STARTFONT 2.1
COMMENT
COMMENT Converted from OpenType font "OpenSans-Bold.ttf" by "otf2bdf 3.0".
COMMENT
FONT -FreeType-Open Sans-Bold-R-Normal--28-200-100-100-P-152-ISO10646-1
SIZE 20 100 100
FONTBOUNDINGBOX 52 38 -16 -8
STARTPROPERTIES 19
FOUNDRY "FreeType"
FAMILY_NAME "Open Sans"
WEIGHT_NAME "Bold"
SLANT "R"
SETWIDTH_NAME "Normal"
ADD_STYLE_NAME ""
PIXEL_SIZE 28
POINT_SIZE 200
RESOLUTION_X 100
RESOLUTION_Y 100
SPACING "P"
AVERAGE_WIDTH 152
CHARSET_REGISTRY "ISO10646"
CHARSET_ENCODING "1"
FONT_ASCENT 29
FONT_DESCENT 8
COPYRIGHT "Copyright 2020 The Open Sans Project Authors (https://github.com/googlefonts/opensans)"
_OTF_FONTFILE "OpenSans-Bold.ttf"
_OTF_PSNAME "OpenSans-Bold"
ENDPROPERTIES
CHARS 1010
STARTCHAR 0000
ENCODING 0
SWIDTH 0 0
DWIDTH 0 0
BBX 0 0 0 0
BITMAP
ENDCHAR
STARTCHAR 000D
ENCODING 13
SWIDTH 252 0
DWIDTH 7 0
BBX 0 0 0 0
BITMAP
ENDCHAR
STARTCHAR 0020
ENCODING 32
SWIDTH 252 0
DWIDTH 7 0
BBX 0 0 0 0
BITMAP
ENDCHAR
STARTCHAR 0021
ENCODING 33
SWIDTH 252 0
DWIDTH 7 0
BBX 4 20 2 0
BITMAP
F0
F0
F0
F0
F0
F0
F0
F0
F0
F0
F0
F0
F0
00
00
00
F0
F0
F0
F0
ENDCHAR
STARTCHAR 0022
ENCODING 34
SWIDTH 468 0
DWIDTH 13 0
BBX 9 7 2 13
BITMAP
F380
E380
E380
E380
E380
E380
E380
ENDCHAR
STARTCHAR 0023
ENCODING 35
SWIDTH 612 0
DWIDTH 17 0
BBX 16 20 1 0
BITMAP
071C
071C
071C
071C
0738
0738
7FFF
7FFF
7FFF
0E70
0E70
1C70
FFFE
FFFE
FFFE
1CE0
38E0
38E0
38E0
39C0
ENDCHAR
STARTCHAR 0024
ENCODING 36
SWIDTH 540 0
DWIDTH 15 0
BBX 14 23 1 -2
BITMAP
0300
0300
0FF0
3FF8
7FF8
FF78
F300
F300
FF00
7F00
3FE0
0FF0
03F8
03FC
033C
833C
F3FC
FFF8
FFF0
1FC0
0300
0300
0300
ENDCHAR
STARTCHAR 0025
ENCODING 37
SWIDTH 900 0
DWIDTH 25 0
BBX 23 20 1 0
BITMAP
3E01C0
7F01C0
FF8380
F78380
E38700
E38F00
E38E00
E39E00
F39CF8
F7B9FC
7F3BFE
3E739E
00738E
00E38E
01E38E
01C38E
03C39E
0383FE
0701FC
0700F8
ENDCHAR
STARTCHAR 0026
ENCODING 38
SWIDTH 720 0
DWIDTH 20 0
BBX 19 20 1 0
BITMAP
0FE000
1FF000
3FF800
3C7800
3C7800
3C7800
3CF800
1FF000
1FE000
1FC1E0
3FC3E0
7FE3C0
F9F3C0
F8FF80
F07F80
F83F00
FC7F00
7FFF80
3FFFC0
1FE3E0
ENDCHAR
STARTCHAR 0027
ENCODING 39
SWIDTH 252 0
DWIDTH 7 0
BBX 4 7 2 13
BITMAP
F0
E0
E0
E0
E0
E0
E0
ENDCHAR
STARTCHAR 0028
ENCODING 40
SWIDTH 324 0
DWIDTH 9 0
BBX 7 24 1 -4
BITMAP
0E
1E
1C
3C
38
78
78
70
F0
F0
F0
F0
F0
F0
F0
F0
F0
70
78
78
38
3C
1C
1E
ENDCHAR
STARTCHAR 0029
ENCODING 41
SWIDTH 324 0
DWIDTH 9 0
BBX 7 24 1 -4
BITMAP
E0
70
78
38
3C
1C
1C
1E
1E
1E
0E
0E
0E
0E
0E
1E
1E
1E
1C
3C
3C
38
78
F0
ENDCHAR
STARTCHAR 002A
ENCODING 42
SWIDTH 540 0
DWIDTH 15 0
BBX 13 13 1 8
BITMAP
0700
0700
0700
8700
F778
FFF8
FFF8
0F80
1FC0
1DC0
3DE0
38E0
0880
ENDCHAR
STARTCHAR 002B
ENCODING 43
SWIDTH 540 0
DWIDTH 15 0
BBX 14 14 1 3
BITMAP
0700
0700
0700
0700
0700
0700
FFFC
FFFC
FFFC
0700
0700
0700
0700
0700
ENDCHAR
STARTCHAR 002C
ENCODING 44
SWIDTH 252 0
DWIDTH 7 0
BBX 5 7 1 -4
BITMAP
78
78
70
70
F0
E0
E0
ENDCHAR
STARTCHAR 002D
ENCODING 45
SWIDTH 288 0
DWIDTH 8 0
BBX 7 3 1 6
BITMAP
FE
FE
FE
ENDCHAR
STARTCHAR 002E
ENCODING 46
SWIDTH 252 0
DWIDTH 7 0
BBX 4 4 2 0
BITMAP
F0
F0
F0
F0
ENDCHAR
STARTCHAR 002F
ENCODING 47
SWIDTH 396 0
DWIDTH 11 0
BBX 11 20 0 0
BITMAP
01E0
01E0
01C0
03C0
03C0
0380
0780
0780
0F00
0F00
0F00
1E00
1E00
1C00
3C00
3C00
7800
7800
7800
F000
ENDCHAR
STARTCHAR 0030
ENCODING 48
SWIDTH 540 0
DWIDTH 15 0
BBX 14 20 1 0
BITMAP
0FC0
3FE0
3FF0
7CF8
7878
F878
F07C
F03C
F03C
F03C
F03C
F03C
F03C
F07C
F878
7878
7CF8
3FF0
3FF0
0FC0
ENDCHAR
STARTCHAR 0031
ENCODING 49
SWIDTH 540 0
DWIDTH 15 0
BBX 9 20 2 0
BITMAP
0380
0F80
1F80
3F80
7F80
F780
6780
4780
0780
0780
0780
0780
0780
0780
0780
0780
0780
0780
0780
0780
ENDCHAR
STARTCHAR 0032
ENCODING 50
SWIDTH 540 0
DWIDTH 15 0
BBX 14 20 1 0
BITMAP
0FC0
3FF0
FFF8
7CF8
3078
0078
0078
0078
00F8
01F0
01E0
03C0
0780
0F00
1E00
3C00
7FFC
FFFC
FFFC
FFFC
ENDCHAR
STARTCHAR 0033
ENCODING 51
SWIDTH 540 0
DWIDTH 15 0
BBX 14 20 1 0
BITMAP
1FC0
7FF0
7FF8
78F8
0078
0078
0078
00F0
1FE0
1F80
1FF0
07F8
0078
007C
007C
007C
C0F8
FFF8
FFF0
7FC0
ENDCHAR
STARTCHAR 0034
ENCODING 52
SWIDTH 540 0
DWIDTH 15 0
BBX 15 20 0 0
BITMAP
0078
00F8
00F8
01F8
03F8
03F8
0778
0F78
1E78
1C78
3C78
7878
7078
FFFE
FFFE
FFFE
0078
0078
0078
0078
ENDCHAR
STARTCHAR 0035
ENCODING 53
SWIDTH 540 0
DWIDTH 15 0
BBX 14 20 1 0
BITMAP
7FF0
7FF0
7FF0
7FF0
7800
7800
7800
7F80
7FE0
7FF0
7FF8
00F8
007C
007C
007C
0078
E0F8
FFF0
FFF0
7FC0
ENDCHAR
STARTCHAR 0036
ENCODING 54
SWIDTH 540 0
DWIDTH 15 0
BBX 14 20 1 0
BITMAP
03F8
0FF8
1FF8
3F00
7C00
7800
7000
F3E0
F7F0
FFF8
FEF8
F87C
F03C
F03C
F03C
783C
7C78
3FF8
3FF0
0FE0
ENDCHAR
STARTCHAR 0037
ENCODING 55
SWIDTH 540 0
DWIDTH 15 0
BBX 14 20 1 0
BITMAP
FFFC
FFFC
FFFC
FFFC
0078
0078
00F0
00F0
01E0
01E0
03E0
03C0
07C0
0780
0780
0F00
0F00
1F00
1E00
3E00
ENDCHAR
STARTCHAR 0038
ENCODING 56
SWIDTH 540 0
DWIDTH 15 0
BBX 14 20 1 0
BITMAP
0FC0
3FF0
7FF8
7878
7878
7878
7878
7DF0
3FE0
0FC0
3FE0
7DF0
7878
F03C
F03C
F03C
F87C
7FF8
7FF0
1FE0
ENDCHAR
STARTCHAR 0039
ENCODING 57
SWIDTH 540 0
DWIDTH 15 0
BBX 14 20 1 0
BITMAP
0FC0
3FE0
7FF0
7DF8
F078
F07C
F03C
F03C
F07C
F8FC
7FFC
7FBC
1F3C
0038
0078
00F8
01F0
7FE0
7FC0
7F00
ENDCHAR
STARTCHAR 003A
ENCODING 58
SWIDTH 252 0
DWIDTH 7 0
BBX 4 15 2 0
BITMAP
F0
F0
F0
F0
00
00
00
00
00
00
00
F0
F0
F0
F0
ENDCHAR
STARTCHAR 003B
ENCODING 59
SWIDTH 252 0
DWIDTH 7 0
BBX 5 19 1 -4
BITMAP
78
78
78
78
00
00
00
00
00
00
00
00
78
78
70
70
F0
E0
E0
ENDCHAR
STARTCHAR 003C
ENCODING 60
SWIDTH 540 0
DWIDTH 15 0
BBX 14 14 1 3
BITMAP
000C
003C
00FC
03F0
0FC0
3F00
FC00
F800
7F00
1FC0
07F0
01FC
003C
000C
ENDCHAR
STARTCHAR 003D
ENCODING 61
SWIDTH 540 0
DWIDTH 15 0
BBX 14 8 1 6
BITMAP
FFFC
FFFC
FFFC
0000
0000
FFFC
FFFC
FFFC
ENDCHAR
STARTCHAR 003E
ENCODING 62
SWIDTH 540 0
DWIDTH 15 0
BBX 14 14 1 3
BITMAP
C000
F000
FC00
7F00
0FC0
03F0
00FC
007C
03F8
0FE0
7F80
FC00
F000
C000
ENDCHAR
STARTCHAR 003F
ENCODING 63
SWIDTH 468 0
DWIDTH 13 0
BBX 13 20 0 0
BITMAP
1FC0
FFE0
7FF0
71F0
0078
0078
00F0
01F0
03E0
07C0
0F00
0F00
0E00
0000
0000
0000
0F00
1F00
1F00
0F00
ENDCHAR
STARTCHAR 0040
ENCODING 64
SWIDTH 864 0
DWIDTH 24 0
BBX 23 22 1 -2
BITMAP
007E00
03FFC0
07FFE0
0F00F0
1E0078
3C3C3C
38FF9C
71FF9C
73C39C
73838E
E3838E
E7839C
E3879C
E3879C
73DFBC
71FDF8
70F8F0
380000
3C0000
1F83C0
0FFFC0
03FF80
ENDCHAR
STARTCHAR 0041
ENCODING 65
SWIDTH 684 0
DWIDTH 19 0
BBX 19 20 0 0
BITMAP
01F000
03F800
03F800
03F800
07BC00
07BC00
079C00
0F1E00
0F1E00
0F1E00
1E0F00
1E0F00
1FFF80
3FFF80
3FFF80
3C07C0
7C03C0
7803C0
7803E0
F803E0
ENDCHAR
STARTCHAR 0042
ENCODING 66
SWIDTH 648 0
DWIDTH 18 0
BBX 15 20 2 0
BITMAP
FFC0
FFF8
FFFC
FFFC
F83E
F83E
F83E
F83C
FFFC
FFF0
FFFC
F8FE
F83E
F81E
F81E
F83E
F8FE
FFFC
FFF8
FFE0
ENDCHAR
STARTCHAR 0043
ENCODING 67
SWIDTH 612 0
DWIDTH 17 0
BBX 15 20 2 0
BITMAP
07F8
1FFE
3FFC
7F3C
7C00
F800
F800
F000
F000
F000
F000
F000
F000
F000
F800
7C00
7E1C
3FFC
1FFC
0FF8
ENDCHAR
STARTCHAR 0044
ENCODING 68
SWIDTH 720 0
DWIDTH 20 0
BBX 17 20 2 0
BITMAP
FFC000
FFF800
FFFC00
FFFE00
F83F00
F81F00
F80F00
F80F80
F80F80
F80780
F80780
F80F80
F80F80
F80F00
F81F00
F83F00
F9FE00
FFFC00
FFF800
FFC000
ENDCHAR
STARTCHAR 0045
ENCODING 69
SWIDTH 540 0
DWIDTH 15 0
BBX 12 20 2 0
BITMAP
FFF0
FFF0
FFF0
FFF0
F800
F800
F800
F800
FFE0
FFE0
FFE0
F800
F800
F800
F800
F800
F800
FFF0
FFF0
FFF0
ENDCHAR
STARTCHAR 0046
ENCODING 70
SWIDTH 540 0
DWIDTH 15 0
BBX 12 20 2 0
BITMAP
FFF0
FFF0
FFF0
FFF0
F800
F800
F800
F800
F800
FFE0
FFE0
FFE0
F800
F800
F800
F800
F800
F800
F800
F800
ENDCHAR
STARTCHAR 0047
ENCODING 71
SWIDTH 720 0
DWIDTH 20 0
BBX 16 20 2 0
BITMAP
03FC
0FFF
3FFE
3F9E
7C00
F800
F800
F000
F000
F0FF
F0FF
F0FF
F00F
F00F
F80F
7C0F
7E0F
3FFF
1FFF
07FE
ENDCHAR
STARTCHAR 0048
ENCODING 72
SWIDTH 756 0
DWIDTH 21 0
BBX 17 20 2 0
BITMAP
F80780
F80780
F80780
F80780
F80780
F80780
F80780
F80780
FFFF80
FFFF80
FFFF80
F80780
F80780
F80780
F80780
F80780
F80780
F80780
F80780
F80780
ENDCHAR
STARTCHAR 0049
ENCODING 73
SWIDTH 324 0
DWIDTH 9 0
BBX 5 20 2 0
BITMAP
F8
F8
F8
F8
F8
F8
F8
F8
F8
F8
F8
F8
F8
F8
F8
F8
F8
F8
F8
F8
ENDCHAR
STARTCHAR 004A
ENCODING 74
SWIDTH 324 0
DWIDTH 9 0
BBX 9 26 -2 -6
BITMAP
0F80
0F80
0F80
0F80
0F80
0F80
0F80
0F80
0F80
0F80
0F80
0F80
0F80
0F80
0F80
0F80
0F80
0F80
0F80
0F80
0F80
0F00
FF00
FF00
FE00
F800
ENDCHAR
STARTCHAR 004B
ENCODING 75
SWIDTH 648 0
DWIDTH 18 0
BBX 16 20 2 0
BITMAP
F81F
F81E
F83E
F87C
F8F8
F9F0
F9E0
FBE0
FFC0
FFC0
FFC0
FFE0
F9F0
F8F0
F8F8
F87C
F87C
F83E
F81F
F81F
ENDCHAR
STARTCHAR 004C
ENCODING 76
SWIDTH 540 0
DWIDTH 15 0
BBX 13 20 2 0
BITMAP
F800
F800
F800
F800
F800
F800
F800
F800
F800
F800
F800
F800
F800
F800
F800
F800
F800
FFF8
FFF8
FFF8
ENDCHAR
STARTCHAR 004D
ENCODING 77
SWIDTH 936 0
DWIDTH 26 0
BBX 22 20 2 0
BITMAP
FC00FC
FE00FC
FE01FC
FE01FC
FF01FC
FF03FC
F703BC
F703BC
F787BC
F3873C
F3873C
F3CF3C
F1CE3C
F1CE3C
F1FE3C
F0FC3C
F0FC3C
F0FC3C
F0F83C
F0783C
ENDCHAR
STARTCHAR 004E
ENCODING 78
SWIDTH 792 0
DWIDTH 22 0
BBX 18 20 2 0
BITMAP
FC03C0
FE03C0
FE03C0
FF03C0
FF03C0
FF83C0
F783C0
F3C3C0
F3E3C0
F1E3C0
F1F3C0
F0F3C0
F0FBC0
F07FC0
F03FC0
F03FC0
F01FC0
F01FC0
F00FC0
F00FC0
ENDCHAR
STARTCHAR 004F
ENCODING 79
SWIDTH 792 0
DWIDTH 22 0
BBX 18 20 2 0
BITMAP
07F800
1FFE00
3FFF00
7F3F80
7C0F80
F807C0
F803C0
F003C0
F003C0
F003C0
F003C0
F003C0
F003C0
F003C0
F807C0
7C0F80
7E1F80
3FFF00
1FFE00
07F800
ENDCHAR
STARTCHAR 0050
ENCODING 80
SWIDTH 612 0
DWIDTH 17 0
BBX 14 20 2 0
BITMAP
FFC0
FFF0
FFF8
FFFC
F87C
F83C
F83C
F83C
F87C
FFFC
FFF8
FFF0
FFC0
F800
F800
F800
F800
F800
F800
F800
ENDCHAR
STARTCHAR 0051
ENCODING 81
SWIDTH 792 0
DWIDTH 22 0
BBX 18 25 2 -5
BITMAP
07F800
1FFE00
3FFF00
7F3F80
7C0F80
F807C0
F803C0
F003C0
F003C0
F003C0
F003C0
F003C0
F003C0
F003C0
F807C0
7C0F80
7E1F80
3FFF00
1FFE00
07FC00
003E00
003F00
001F00
000F80
0007C0
ENDCHAR
STARTCHAR 0052
ENCODING 82
SWIDTH 648 0
DWIDTH 18 0
BBX 16 20 2 0
BITMAP
FFC0
FFF0
FFF8
FFFC
F87C
F83C
F83C
F83C
F87C
FFF8
FFF0
FFE0
F9E0
F8F0
F8F8
F878
F87C
F83E
F81E
F81F
ENDCHAR
STARTCHAR 0053
ENCODING 83
SWIDTH 540 0
DWIDTH 15 0
BBX 13 20 1 0
BITMAP
0FE0
3FF8
7FF8
7CF0
7800
F800
7800
7C00
7F00
3FC0
1FF0
07F0
01F8
0078
0078
8078
F0F8
FFF0
FFF0
7FC0
ENDCHAR
STARTCHAR 0054
ENCODING 84
SWIDTH 576 0
DWIDTH 16 0
BBX 15 20 1 0
BITMAP
FFFE
FFFE
FFFE
FFFE
0780
0780
0780
0780
0780
0780
0780
0780
0780
0780
0780
0780
0780
0780
0780
0780
ENDCHAR
STARTCHAR 0055
ENCODING 85
SWIDTH 756 0
DWIDTH 21 0
BBX 17 20 2 0
BITMAP
F80F80
F80F80
F80F80
F80F80
F80F80
F80F80
F80F80
F80F80
F80F80
F80F80
F80F80
F80F80
F80F80
F80F80
F80F80
780F00
7E3F00
3FFE00
1FFC00
0FF800
ENDCHAR
STARTCHAR 0056
ENCODING 86
SWIDTH 648 0
DWIDTH 18 0
BBX 18 20 0 0
BITMAP
F003C0
F807C0
780780
780780
7C0F80
3C0F00
3C0F00
3E1F00
1E1E00
1E1E00
0F1E00
0F3C00
0F3C00
073C00
07F800
07F800
03F800
03F000
03F000
01F000
ENDCHAR
STARTCHAR 0057
ENCODING 87
SWIDTH 936 0
DWIDTH 26 0
BBX 27 20 0 0
BITMAP
F01F01E0
F01F03E0
781F03C0
781F03C0
783F83C0
783F87C0
3C3B8780
3C3B8780
3C7BC780
3C7BC780
1E71CF00
1EF1CF00
1EF1EF00
1EF1EE00
0EE0FE00
0FE0FE00
0FE0FE00
0FC0FC00
07C07C00
07C07C00
ENDCHAR
STARTCHAR 0058
ENCODING 88
SWIDTH 648 0
DWIDTH 18 0
BBX 18 20 0 0
BITMAP
7807C0
7C0780
3C0F80
1E0F00
1F1E00
0F3E00
0FBC00
07F800
03F800
03F000
03F000
07F800
07F800
0FBC00
0F3E00
1E1F00
3E0F00
3C0F80
7807C0
F807C0
ENDCHAR
STARTCHAR 0059
ENCODING 89
SWIDTH 612 0
DWIDTH 17 0
BBX 17 20 0 0
BITMAP
F80780
780F80
7C0F00
3C1F00
3E1E00
1E3C00
1F3C00
0F7800
0FF800
07F000
03F000
03E000
01E000
01E000
01E000
01E000
01E000
01E000
01E000
01E000
ENDCHAR
STARTCHAR 005A
ENCODING 90
SWIDTH 576 0
DWIDTH 16 0
BBX 14 20 1 0
BITMAP
FFFC
FFFC
FFFC
FFFC
0078
00F0
01F0
03E0
03C0
07C0
0F80
0F00
1E00
3E00
3C00
7800
F800
FFFC
FFFC
FFFC
ENDCHAR
STARTCHAR 005B
ENCODING 91
SWIDTH 324 0
DWIDTH 9 0
BBX 7 24 2 -4
BITMAP
FE
FE
FE
E0
E0
E0
E0
E0
E0
E0
E0
E0
E0
E0
E0
E0
E0
E0
E0
E0
E0
E0
FE
FE
ENDCHAR
STARTCHAR 005C
ENCODING 92
SWIDTH 396 0
DWIDTH 11 0
BBX 11 20 0 0
BITMAP
F000
7000
7800
7800
3C00
3C00
1C00
1E00
1E00
0E00
0F00
0F00
0780
0780
0380
03C0
03C0
01C0
01E0
01E0
ENDCHAR
STARTCHAR 005D
ENCODING 93
SWIDTH 324 0
DWIDTH 9 0
BBX 6 24 1 -4
BITMAP
FC
FC
FC
1C
1C
1C
1C
1C
1C
1C
1C
1C
1C
1C
1C
1C
1C
1C
1C
1C
1C
1C
FC
FC
ENDCHAR
STARTCHAR 005E
ENCODING 94
SWIDTH 540 0
DWIDTH 15 0
BBX 14 13 1 7
BITMAP
0700
0700
0F80
0F80
0FC0
1DC0
1CE0
38E0
3870
7070
7038
E03C
E01C
ENDCHAR
STARTCHAR 005F
ENCODING 95
SWIDTH 396 0
DWIDTH 11 0
BBX 11 2 0 -4
BITMAP
FFE0
FFE0
ENDCHAR
STARTCHAR 0060
ENCODING 96
SWIDTH 360 0
DWIDTH 10 0
BBX 7 4 2 17
BITMAP
F0
78
3C
1E
ENDCHAR
STARTCHAR 0061
ENCODING 97
SWIDTH 576 0
DWIDTH 16 0
BBX 14 15 1 0
BITMAP
3FF0
3FF8
3FF8
007C
003C
003C
1FFC
7FFC
7C3C
F83C
F07C
F87C
FFFC
7FBC
3F1C
ENDCHAR
STARTCHAR 0062
ENCODING 98
SWIDTH 612 0
DWIDTH 17 0
BBX 14 21 2 0
BITMAP
F000
F000
F000
F000
F000
F000
F3F0
F7F8
FFF8
F87C
F83C
F03C
F03C
F03C
F03C
F83C
F87C
FC7C
FFF8
FFF8
F3E0
ENDCHAR
STARTCHAR 0063
ENCODING 99
SWIDTH 504 0
DWIDTH 14 0
BBX 12 15 1 0
BITMAP
0FF0
3FF0
7FF0
7C20
7800
F800
F800
F000
F800
F800
7800
7C30
7FF0
3FF0
0FE0
ENDCHAR
STARTCHAR 0064
ENCODING 100
SWIDTH 612 0
DWIDTH 17 0
BBX 14 21 1 0
BITMAP
003C
003C
003C
003C
003C
003C
1FBC
3FDC
7FFC
7C7C
F83C
F83C
F01C
F01C
F01C
F83C
783C
7C7C
7FFC
3FDC
1F9C
ENDCHAR
STARTCHAR 0065
ENCODING 101
SWIDTH 576 0
DWIDTH 16 0
BBX 14 15 1 0
BITMAP
0FE0
3FF8
7FF8
783C
783C
F83C
FFFC
FFFC
F000
F800
7800
7C08
3FF8
1FF8
0FF8
ENDCHAR
STARTCHAR 0066
ENCODING 102
SWIDTH 360 0
DWIDTH 10 0
BBX 11 21 1 0
BITMAP
0FE0
1FE0
3FC0
3C00
3C00
3C00
FFC0
FFC0
FFC0
3C00
3C00
3C00
3C00
3C00
3C00
3C00
3C00
3C00
3C00
3C00
3C00
ENDCHAR
STARTCHAR 0067
ENCODING 103
SWIDTH 540 0
DWIDTH 15 0
BBX 15 22 0 -7
BITMAP
1FFE
3FFE
3C78
7838
783C
783C
7C78
3FF8
1FF0
1FC0
3800
3C00
3FF8
1FFC
3FFE
781E
F00E
F01E
F83E
7FFC
3FF0
0700
ENDCHAR
STARTCHAR 0068
ENCODING 104
SWIDTH 648 0
DWIDTH 18 0
BBX 14 21 2 0
BITMAP
F000
F000
F000
F000
F000
F000
F7F0
F7F8
FFFC
FC7C
F83C
F83C
F03C
F03C
F03C
F03C
F03C
F03C
F03C
F03C
F03C
ENDCHAR
STARTCHAR 0069
ENCODING 105
SWIDTH 288 0
DWIDTH 8 0
BBX 4 21 2 0
BITMAP
F0
F0
F0
70
00
00
F0
F0
F0
F0
F0
F0
F0
F0
F0
F0
F0
F0
F0
F0
F0
ENDCHAR
STARTCHAR 006A
ENCODING 106
SWIDTH 288 0
DWIDTH 8 0
BBX 8 28 -2 -7
BITMAP
0F
0F
0F
07
00
00
0F
0F
0F
0F
0F
0F
0F
0F
0F
0F
0F
0F
0F
0F
0F
0F
0F
0F
FF
FF
FE
78
ENDCHAR
STARTCHAR 006B
ENCODING 107
SWIDTH 612 0
DWIDTH 17 0
BBX 15 21 2 0
BITMAP
F000
F000
F000
F000
F000
F000
F03C
F078
F0F0
F1F0
F3E0
F7C0
FF80
FFC0
FFC0
F9E0
F1F0
F0F8
F078
F07C
F03E
ENDCHAR
STARTCHAR 006C
ENCODING 108
SWIDTH 288 0
DWIDTH 8 0
BBX 4 21 2 0
BITMAP
F0
F0
F0
F0
F0
F0
F0
F0
F0
F0
F0
F0
F0
F0
F0
F0
F0
F0
F0
F0
F0
ENDCHAR
STARTCHAR 006D
ENCODING 109
SWIDTH 972 0
DWIDTH 27 0
BBX 23 15 2 0
BITMAP
F7F1F8
FFFBFC
FFFFFE
F87E3E
F87C1E
F83C1E
F03C1E
F03C1E
F03C1E
F03C1E
F03C1E
F03C1E
F03C1E
F03C1E
F03C1E
ENDCHAR
STARTCHAR 006E
ENCODING 110
SWIDTH 648 0
DWIDTH 18 0
BBX 14 15 2 0
BITMAP
F7F0
FFF8
FFFC
FC7C
F83C
F83C
F03C
F03C
F03C
F03C
F03C
F03C
F03C
F03C
F03C
ENDCHAR
STARTCHAR 006F
ENCODING 111
SWIDTH 612 0
DWIDTH 17 0
BBX 15 15 1 0
BITMAP
0FF0
3FF8
7FFC
7C3C
783E
F81E
F81E
F01E
F81E
F83E
783E
7C7C
3FFC
1FF8
0FE0
ENDCHAR
STARTCHAR 0070
ENCODING 112
SWIDTH 612 0
DWIDTH 17 0
BBX 14 22 2 -7
BITMAP
F3F0
F7F8
FFF8
F87C
F83C
F03C
F03C
F03C
F03C
F03C
F83C
FC7C
FFF8
FFF0
F3E0
F000
F000
F000
F000
F000
F000
F000
ENDCHAR
STARTCHAR 0071
ENCODING 113
SWIDTH 612 0
DWIDTH 17 0
BBX 14 22 1 -7
BITMAP
1F9C
3FDC
7FFC
7C7C
783C
F83C
F81C
F01C
F01C
F83C
783C
7C7C
7FFC
3FFC
1FBC
003C
003C
003C
003C
003C
003C
003C
ENDCHAR
STARTCHAR 0072
ENCODING 114
SWIDTH 432 0
DWIDTH 12 0
BBX 10 15 2 0
BITMAP
E3C0
F7C0
FFC0
FF40
F800
F800
F000
F000
F000
F000
F000
F000
F000
F000
F000
ENDCHAR
STARTCHAR 0073
ENCODING 115
SWIDTH 468 0
DWIDTH 13 0
BBX 12 15 1 0
BITMAP
3FE0
7FE0
FFE0
F000
F800
FE00
7F80
3FE0
0FE0
03F0
00F0
C0F0
FFE0
FFE0
7F80
ENDCHAR
STARTCHAR 0074
ENCODING 116
SWIDTH 432 0
DWIDTH 12 0
BBX 10 18 1 0
BITMAP
1C00
3C00
3C00
7FC0
FFC0
FFC0
3C00
3C00
3C00
3C00
3C00
3C00
3C00
3C00
3C00
3FC0
3FC0
1FC0
ENDCHAR
STARTCHAR 0075
ENCODING 117
SWIDTH 648 0
DWIDTH 18 0
BBX 14 15 2 0
BITMAP
F03C
F03C
F03C
F03C
F03C
F03C
F03C
F03C
F03C
F03C
F07C
F8FC
7FFC
7FFC
3F9C
ENDCHAR
STARTCHAR 0076
ENCODING 118
SWIDTH 540 0
DWIDTH 15 0
BBX 16 15 0 0
BITMAP
F81F
781E
781E
7C3C
3C3C
3C3C
1E78
1E78
1E78
0FF0
0FF0
0FE0
07E0
07E0
03C0
ENDCHAR
STARTCHAR 0077
ENCODING 119
SWIDTH 828 0
DWIDTH 23 0
BBX 23 15 0 0
BITMAP
F87C1E
787E1E
787E1E
787E3C
3CEE3C
3CEF3C
3CE73C
3CE778
1FE778
1FC778
1FC3F0
0FC3F0
0FC3F0
0F83F0
0F81E0
ENDCHAR
STARTCHAR 0078
ENCODING 120
SWIDTH 576 0
DWIDTH 16 0
BBX 16 15 0 0
BITMAP
7C1E
7C3E
3E7C
1E78
1FF8
0FF0
07E0
07E0
0FF0
0FF0
1FF8
3E7C
3C3C
7C3E
F81F
ENDCHAR
STARTCHAR 0079
ENCODING 121
SWIDTH 540 0
DWIDTH 15 0
BBX 16 22 0 -7
BITMAP
F81F
781E
783E
7C3C
3C3C
3C7C
1E78
1E78
1E78
0FF0
0FF0
07E0
07E0
07E0
03C0
03C0
07C0
0780
7F80
7F00
7E00
7800
ENDCHAR
STARTCHAR 007A
ENCODING 122
SWIDTH 468 0
DWIDTH 13 0
BBX 12 15 1 0
BITMAP
FFE0
FFE0
FFE0
03E0
03C0
0780
0F80
1F00
1E00
3C00
7C00
7800
FFF0
FFF0
FFF0
ENDCHAR
STARTCHAR 007B
ENCODING 123
SWIDTH 360 0
DWIDTH 10 0
BBX 10 24 0 -4
BITMAP
01C0
07C0
0FC0
0F00
0F00
0E00
0E00
0E00
0E00
0E00
3E00
FC00
F800
FE00
1E00
0E00
0E00
0E00
0E00
0E00
0F00
0FC0
0FC0
07C0
ENDCHAR
STARTCHAR 007C
ENCODING 124
SWIDTH 540 0
DWIDTH 15 0
BBX 3 27 6 -6
BITMAP
E0
E0
E0
E0
E0
E0
E0
E0
E0
E0
E0
E0
E0
E0
E0
E0
E0
E0
E0
E0
E0
E0
E0
E0
E0
E0
E0
ENDCHAR
STARTCHAR 007D
ENCODING 125
SWIDTH 360 0
DWIDTH 10 0
BBX 10 24 1 -4
BITMAP
F000
F800
FC00
3C00
3C00
3C00
3C00
3C00
3C00
3C00
1F00
0FC0
07C0
1FC0
1E00
3C00
3C00
3C00
3C00
3C00
3C00
FC00
FC00
F800
ENDCHAR
STARTCHAR 007E
ENCODING 126
SWIDTH 540 0
DWIDTH 15 0
BBX 14 4 1 7
BITMAP
7E04
FFDC
FFFC
C3F8
ENDCHAR
STARTCHAR 00A0
ENCODING 160
SWIDTH 252 0
DWIDTH 7 0
BBX 0 0 0 0
BITMAP
ENDCHAR
STARTCHAR 00A1
ENCODING 161
SWIDTH 252 0
DWIDTH 7 0
BBX 4 20 2 -5
BITMAP
F0
F0
F0
F0
00
00
00
F0
F0
F0
F0
F0
F0
F0
F0
F0
F0
F0
F0
F0
ENDCHAR
STARTCHAR 00A2
ENCODING 162
SWIDTH 540 0
DWIDTH 15 0
BBX 12 20 2 0
BITMAP
0300
0300
0FE0
3FF0
7FF0
7CE0
F800
F000
F000
F000
F000
F000
F800
F810
7FF0
3FF0
1FF0
0780
0300
0300
ENDCHAR
STARTCHAR 00A3
ENCODING 163
SWIDTH 540 0
DWIDTH 15 0
BBX 14 20 1 0
BITMAP
07F0
0FFC
1FF8
1F18
1E00
1E00
1E00
1E00
FFF0
FFF0
FFF0
1E00
1E00
1E00
3C00
3C00
FFFC
FFFC
FFFC
FFFC
ENDCHAR
STARTCHAR 00A4
ENCODING 164
SWIDTH 540 0
DWIDTH 15 0
BBX 12 13 2 3
BITMAP
4020
FFF0
FFF0
7FE0
70E0
60E0
60E0
70E0
79E0
7FE0
FFF0
E460
4000
ENDCHAR
STARTCHAR 00A5
ENCODING 165
SWIDTH 540 0
DWIDTH 15 0
BBX 16 20 0 0
BITMAP
F81F
781E
783E
3C3C
3C3C
1E78
1E78
0FF0
0FE0
07E0
1FF8
1FF8
1FF8
03C0
03C0
1FF8
1FF8
03C0
03C0
03C0
ENDCHAR
STARTCHAR 00A6
ENCODING 166
SWIDTH 540 0
DWIDTH 15 0
BBX 3 27 6 -6
BITMAP
E0
E0
E0
E0
E0
E0
E0
E0
E0
E0
E0
00
00
00
00
00
E0
E0
E0
E0
E0
E0
E0
E0
E0
E0
E0
ENDCHAR
STARTCHAR 00A7
ENCODING 167
SWIDTH 468 0
DWIDTH 13 0
BBX 11 21 1 0
BITMAP
1FC0
7FE0
79C0
7000
7000
7C00
3F00
3FC0
73E0
70E0
70E0
78E0
7DE0
3FC0
0FC0
03E0
00E0
80E0
E3E0
FFC0
7F80
ENDCHAR
STARTCHAR 00A8
ENCODING 168
SWIDTH 576 0
DWIDTH 16 0
BBX 9 4 4 17
BITMAP
E300
F780
F780
4300
ENDCHAR
STARTCHAR 00A9
ENCODING 169
SWIDTH 828 0
DWIDTH 23 0
BBX 21 20 1 0
BITMAP
01FC00
07FF00
0E0380
1800C0
30FC60
61FC30
638030
630030
C70018
C70018
C70018
C70018
630038
638030
61FC30
30FC60
3800E0
1C01C0
07FF80
03FE00
ENDCHAR
STARTCHAR 00AA
ENCODING 170
SWIDTH 360 0
DWIDTH 10 0
BBX 8 10 1 10
BITMAP
7E
FF
47
03
7F
E3
C3
E7
FF
79
ENDCHAR
STARTCHAR 00AB
ENCODING 171
SWIDTH 612 0
DWIDTH 17 0
BBX 15 13 1 1
BITMAP
0408
0F1E
1E3C
3E7C
3CF8
78F0
F1E0
78F0
3C78
3E7C
1F3E
0E1C
0400
ENDCHAR
STARTCHAR 00AC
ENCODING 172
SWIDTH 540 0
DWIDTH 15 0
BBX 14 8 1 3
BITMAP
FFFC
FFFC
FFFC
001C
001C
001C
001C
001C
ENDCHAR
STARTCHAR 00AD
ENCODING 173
SWIDTH 288 0
DWIDTH 8 0
BBX 7 3 1 6
BITMAP
FE
FE
FE
ENDCHAR
STARTCHAR 00AE
ENCODING 174
SWIDTH 828 0
DWIDTH 23 0
BBX 21 20 1 0
BITMAP
01FC00
07FF00
0E0380
1800C0
31F860
61FC30
618E30
618E30
C18E18
C19C18
C1F818
C1F818
619C38
618C30
618E30
318660
3800E0
1C01C0
07FF80
03FE00
ENDCHAR
STARTCHAR 00AF
ENCODING 175
SWIDTH 468 0
DWIDTH 13 0
BBX 14 3 0 21
BITMAP
FFFC
FFFC
FFFC
ENDCHAR
STARTCHAR 00B0
ENCODING 176
SWIDTH 396 0
DWIDTH 11 0
BBX 10 9 1 11
BITMAP
3E00
7F80
FF80
E1C0
E1C0
E1C0
F380
7F80
3F00
ENDCHAR
STARTCHAR 00B1
ENCODING 177
SWIDTH 540 0
DWIDTH 15 0
BBX 14 17 1 0
BITMAP
0700
0700
0700
0700
0700
FFFC
FFFC
FFFC
0700
0700
0700
0700
0700
0000
FFFC
FFFC
FFFC
ENDCHAR
STARTCHAR 00B2
ENCODING 178
SWIDTH 360 0
DWIDTH 10 0
BBX 9 12 1 12
BITMAP
1C00
FE00
FF00
4700
0700
0F00
1E00
3C00
7800
F000
FF80
FF80
ENDCHAR
STARTCHAR 00B3
ENCODING 179
SWIDTH 360 0
DWIDTH 10 0
BBX 8 13 1 11
BITMAP
1C
FE
FF
47
07
3E
3C
1F
07
07
FF
FE
38
ENDCHAR
STARTCHAR 00B4
ENCODING 180
SWIDTH 360 0
DWIDTH 10 0
BBX 7 4 1 17
BITMAP
1E
3C
78
F0
ENDCHAR
STARTCHAR 00B5
ENCODING 181
SWIDTH 648 0
DWIDTH 18 0
BBX 14 22 2 -7
BITMAP
F03C
F03C
F03C
F03C
F03C
F03C
F03C
F03C
F03C
F03C
F87C
F87C
FFFC
FFDC
F79C
F000
F000
F000
F000
F000
F000
F000
ENDCHAR
STARTCHAR 00B6
ENCODING 182
SWIDTH 648 0
DWIDTH 18 0
BBX 14 25 2 -4
BITMAP
1FFC
7FFC
FFFC
FF8C
FF8C
FF8C
FF8C
FF8C
FF8C
FF8C
FF8C
7F8C
7F8C
0F8C
018C
018C
018C
018C
018C
018C
018C
018C
018C
018C
018C
ENDCHAR
STARTCHAR 00B7
ENCODING 183
SWIDTH 252 0
DWIDTH 7 0
BBX 4 4 2 7
BITMAP
F0
F0
F0
F0
ENDCHAR
STARTCHAR 00B8
ENCODING 184
SWIDTH 180 0
DWIDTH 5 0
BBX 7 7 -1 -7
BITMAP
38
7C
1C
1E
FE
FC
70
ENDCHAR
STARTCHAR 00B9
ENCODING 185
SWIDTH 360 0
DWIDTH 10 0
BBX 6 11 2 12
BITMAP
3C
7C
FC
DC
1C
1C
1C
1C
1C
1C
1C
ENDCHAR
STARTCHAR 00BA
ENCODING 186
SWIDTH 360 0
DWIDTH 10 0
BBX 9 10 1 10
BITMAP
3E00
7F00
E780
E380
E380
E380
E380
F700
7F00
1C00
ENDCHAR
STARTCHAR 00BB
ENCODING 187
SWIDTH 612 0
DWIDTH 17 0
BBX 15 12 1 1
BITMAP
2040
F1E0
78F0
3CF8
3E7C
1F3C
0F1E
1E3C
3E78
7CF8
79F0
70E0
ENDCHAR
STARTCHAR 00BC
ENCODING 188
SWIDTH 828 0
DWIDTH 23 0
BBX 22 20 1 0
BITMAP
1C0380
3C0380
7C0700
FC0F00
5C0E00
1C1E00
1C1C00
1C3C00
1C3870
1C70F0
1C71F0
1CE1F0
01E370
01C770
03C670
038C70
078FFC
070FFC
0E0070
0E0070
ENDCHAR
STARTCHAR 00BD
ENCODING 189
SWIDTH 864 0
DWIDTH 24 0
BBX 22 20 1 0
BITMAP
1C0380
3C0380
7C0700
FC0F00
5C0E00
1C1E00
1C1C00
1C3C00
1C39F8
1C77FC
1C73BC
1CE01C
01E03C
01C038
03C070
0380E0
0781C0
0703FC
0E07FC
0E07FC
ENDCHAR
STARTCHAR 00BE
ENCODING 190
SWIDTH 828 0
DWIDTH 23 0
BBX 22 20 1 0
BITMAP
3E01C0
FF01C0
670380
030780
070700
3E0F00
3F0E00
079E00
039C78
C7B8F8
FF38F8
7E71F8
00F3F8
00E378
01E678
01CE78
03CFFC
038FFC
070078
070078
ENDCHAR
STARTCHAR 00BF
ENCODING 191
SWIDTH 468 0
DWIDTH 13 0
BBX 12 20 1 -5
BITMAP
0700
0F80
0F80
0780
0000
0000
0000
0780
0780
0F00
1F00
3E00
7800
F000
F000
F000
F060
FFF0
7FF0
3FC0
ENDCHAR
STARTCHAR 00C0
ENCODING 192
SWIDTH 684 0
DWIDTH 19 0
BBX 19 26 0 0
BITMAP
0F8000
03C000
01E000
00F000
007000
000000
01F000
03F800
03F800
03F800
07BC00
07BC00
079C00
0F1E00
0F1E00
0F1E00
1E0F00
1E0F00
1FFF80
3FFF80
3FFF80
3C07C0
7C03C0
7803C0
7803E0
F803E0
ENDCHAR
STARTCHAR 00C1
ENCODING 193
SWIDTH 684 0
DWIDTH 19 0
BBX 19 26 0 0
BITMAP
003E00
007C00
00F000
00E000
01C000
000000
01F000
03F800
03F800
03F800
07BC00
07BC00
079C00
0F1E00
0F1E00
0F1E00
1E0F00
1E0F00
1FFF80
3FFF80
3FFF80
3C07C0
7C03C0
7803C0
7803E0
F803E0
ENDCHAR
STARTCHAR 00C2
ENCODING 194
SWIDTH 684 0
DWIDTH 19 0
BBX 19 26 0 0
BITMAP
01F000
03F800
07BC00
0F1E00
0C0700
000000
01F000
03F800
03F800
03F800
07BC00
07BC00
079C00
0F1E00
0F1E00
0F1E00
1E0F00
1E0F00
1FFF80
3FFF80
3FFF80
3C07C0
7C03C0
7803C0
7803E0
F803E0
ENDCHAR
STARTCHAR 00C3
ENCODING 195
SWIDTH 684 0
DWIDTH 19 0
BBX 19 26 0 0
BITMAP
010600
07EE00
0FFE00
0C7C00
0C1000
000000
01F000
03F800
03F800
03F800
07BC00
07BC00
079C00
0F1E00
0F1E00
0F1E00
1E0F00
1E0F00
1FFF80
3FFF80
3FFF80
3C07C0
7C03C0
7803C0
7803E0
F803E0
ENDCHAR
STARTCHAR 00C4
ENCODING 196
SWIDTH 684 0
DWIDTH 19 0
BBX 19 25 0 1
BITMAP
07BC00
07BC00
071C00
000000
000000
01F000
03F800
03F800
03F800
07BC00
07BC00
079C00
0F1E00
0F1E00
0F1E00
1E0F00
1E0F00
1FFF80
3FFF80
3FFF80
3C07C0
7C03C0
7803C0
7803E0
F803E0
ENDCHAR
STARTCHAR 00C5
ENCODING 197
SWIDTH 684 0
DWIDTH 19 0
BBX 19 24 0 0
BITMAP
01F000
03B800
031800
031800
01F800
03F800
03F800
03F800
07BC00
07BC00
079C00
0F1E00
0F1E00
0F1E00
1E0F00
1E0F00
1FFF80
3FFF80
3FFF80
3C07C0
7C03C0
7803C0
7803E0
F803E0
ENDCHAR
STARTCHAR 00C6
ENCODING 198
SWIDTH 936 0
DWIDTH 26 0
BBX 25 20 0 0
BITMAP
007FFF80
00FFFF80
00FFFF80
01FFFF80
01E78000
03E78000
03C78000
03C78000
0787FF00
0787FF00
0F07FF00
0F078000
1FFF8000
1FFF8000
3FFF8000
3C078000
3C078000
7807FF80
7807FF80
F007FF80
ENDCHAR
STARTCHAR 00C7
ENCODING 199
SWIDTH 612 0
DWIDTH 17 0
BBX 15 27 2 -7
BITMAP
07F8
1FFE
3FFC
7F3C
7C00
F800
F800
F000
F000
F000
F000
F000
F000
F000
F800
7C00
7E1C
3FFC
1FFC
0FF8
0180
03E0
01E0
00F0
07E0
07E0
0380
ENDCHAR
STARTCHAR 00C8
ENCODING 200
SWIDTH 540 0
DWIDTH 15 0
BBX 12 26 2 0
BITMAP
7C00
3E00
0F00
0700
0380
0000
FFF0
FFF0
FFF0
FFF0
F800
F800
F800
F800
FFE0
FFE0
FFE0
F800
F800
F800
F800
F800
F800
FFF0
FFF0
FFF0
ENDCHAR
STARTCHAR 00C9
ENCODING 201
SWIDTH 540 0
DWIDTH 15 0
BBX 12 26 2 0
BITMAP
01F0
03C0
0780
0F00
0E00
0000
FFF0
FFF0
FFF0
FFF0
F800
F800
F800
F800
FFE0
FFE0
FFE0
F800
F800
F800
F800
F800
F800
FFF0
FFF0
FFF0
ENDCHAR
STARTCHAR 00CA
ENCODING 202
SWIDTH 540 0
DWIDTH 15 0
BBX 12 26 2 0
BITMAP
0F80
1FC0
3DE0
78F0
E030
0000
FFF0
FFF0
FFF0
FFF0
F800
F800
F800
F800
FFE0
FFE0
FFE0
F800
F800
F800
F800
F800
F800
FFF0
FFF0
FFF0
ENDCHAR
STARTCHAR 00CB
ENCODING 203
SWIDTH 540 0
DWIDTH 15 0
BBX 12 26 2 0
BITMAP
1000
39E0
39E0
38E0
0000
0000
FFF0
FFF0
FFF0
FFF0
F800
F800
F800
F800
FFE0
FFE0
FFE0
F800
F800
F800
F800
F800
F800
FFF0
FFF0
FFF0
ENDCHAR
STARTCHAR 00CC
ENCODING 204
SWIDTH 324 0
DWIDTH 9 0
BBX 8 26 -1 0
BITMAP
F8
78
3C
1E
07
00
1F
1F
1F
1F
1F
1F
1F
1F
1F
1F
1F
1F
1F
1F
1F
1F
1F
1F
1F
1F
ENDCHAR
STARTCHAR 00CD
ENCODING 205
SWIDTH 324 0
DWIDTH 9 0
BBX 8 26 2 0
BITMAP
1F
1E
3C
78
60
00
F8
F8
F8
F8
F8
F8
F8
F8
F8
F8
F8
F8
F8
F8
F8
F8
F8
F8
F8
F8
ENDCHAR
STARTCHAR 00CE
ENCODING 206
SWIDTH 324 0
DWIDTH 9 0
BBX 12 26 -1 0
BITMAP
1F00
3F80
7BC0
F1E0
C070
0000
1F00
1F00
1F00
1F00
1F00
1F00
1F00
1F00
1F00
1F00
1F00
1F00
1F00
1F00
1F00
1F00
1F00
1F00
1F00
1F00
ENDCHAR
STARTCHAR 00CF
ENCODING 207
SWIDTH 324 0
DWIDTH 9 0
BBX 9 26 0 0
BITMAP
0100
F380
F780
E380
0000
0000
3E00
3E00
3E00
3E00
3E00
3E00
3E00
3E00
3E00
3E00
3E00
3E00
3E00
3E00
3E00
3E00
3E00
3E00
3E00
3E00
ENDCHAR
STARTCHAR 00D0
ENCODING 208
SWIDTH 720 0
DWIDTH 20 0
BBX 18 20 1 0
BITMAP
7FE000
7FFC00
7FFE00
7FFF00
7C1F80
7C0F80
7C0780
7C07C0
FF87C0
FF83C0
FF83C0
FF87C0
7C07C0
7C0780
7C0F80
7C1F80
7CFF00
7FFE00
7FFC00
7FE000
ENDCHAR
STARTCHAR 00D1
ENCODING 209
SWIDTH 792 0
DWIDTH 22 0
BBX 18 26 2 0
BITMAP
030600
07CE00
0FFC00
0CFC00
0C0000
000000
FC03C0
FE03C0
FE03C0
FF03C0
FF03C0
FF83C0
F783C0
F3C3C0
F3E3C0
F1E3C0
F1F3C0
F0F3C0
F0FBC0
F07FC0
F03FC0
F03FC0
F01FC0
F01FC0
F00FC0
F00FC0
ENDCHAR
STARTCHAR 00D2
ENCODING 210
SWIDTH 792 0
DWIDTH 22 0
BBX 18 26 2 0
BITMAP
0F8000
078000
03C000
01E000
007000
000000
07F800
1FFE00
3FFF00
7F3F80
7C0F80
F807C0
F803C0
F003C0
F003C0
F003C0
F003C0
F003C0
F003C0
F003C0
F807C0
7C0F80
7E1F80
3FFF00
1FFE00
07F800
ENDCHAR
STARTCHAR 00D3
ENCODING 211
SWIDTH 792 0
DWIDTH 22 0
BBX 18 26 2 0
BITMAP
007C00
007800
00F000
01E000
018000
000000
07F800
1FFE00
3FFF00
7F3F80
7C0F80
F807C0
F803C0
F003C0
F003C0
F003C0
F003C0
F003C0
F003C0
F003C0
F807C0
7C0F80
7E1F80
3FFF00
1FFE00
07F800
ENDCHAR
STARTCHAR 00D4
ENCODING 212
SWIDTH 792 0
DWIDTH 22 0
BBX 18 26 2 0
BITMAP
03F000
03F800
07F800
0E1C00
1C0E00
000000
07F800
1FFE00
3FFF00
7F3F80
7C0F80
F807C0
F803C0
F003C0
F003C0
F003C0
F003C0
F003C0
F003C0
F003C0
F807C0
7C0F80
7E1F80
3FFF00
1FFE00
07F800
ENDCHAR
STARTCHAR 00D5
ENCODING 213
SWIDTH 792 0
DWIDTH 22 0
BBX 18 26 2 0
BITMAP
030600
0FCC00
0FFC00
0CF800
180000
000000
07F800
1FFE00
3FFF00
7F3F80
7C0F80
F807C0
F803C0
F003C0
F003C0
F003C0
F003C0
F003C0
F003C0
F003C0
F807C0
7C0F80
7E1F80
3FFF00
1FFE00
07F800
ENDCHAR
STARTCHAR 00D6
ENCODING 214
SWIDTH 792 0
DWIDTH 22 0
BBX 18 25 2 1
BITMAP
073C00
0F3C00
073800
000000
000000
07F800
1FFE00
3FFF00
7F3F80
7C0F80
F807C0
F803C0
F003C0
F003C0
F003C0
F003C0
F003C0
F003C0
F003C0
F807C0
7C0F80
7E1F80
3FFF00
1FFE00
07F800
ENDCHAR
STARTCHAR 00D7
ENCODING 215
SWIDTH 540 0
DWIDTH 15 0
BBX 12 12 2 4
BITMAP
4020
E070
F1F0
7BE0
3FC0
1F80
1F00
1F80
3FC0
79E0
F0F0
6060
ENDCHAR
STARTCHAR 00D8
ENCODING 216
SWIDTH 792 0
DWIDTH 22 0
BBX 18 22 2 -1
BITMAP
000100
07FB80
1FFF00
3FFF00
7F3F80
7C1F80
F81FC0
F83BC0
F073C0
F073C0
F0E3C0
F1C3C0
F1C3C0
F383C0
F703C0
FF07C0
7E0F80
7E1F80
3FFF00
3FFE00
77F800
300000
ENDCHAR
STARTCHAR 00D9
ENCODING 217
SWIDTH 756 0
DWIDTH 21 0
BBX 17 26 2 0
BITMAP
1F0000
0F8000
03C000
01C000
00E000
000000
F80F80
F80F80
F80F80
F80F80
F80F80
F80F80
F80F80
F80F80
F80F80
F80F80
F80F80
F80F80
F80F80
F80F80
F80F80
780F00
7E3F00
3FFE00
1FFC00
0FF800
ENDCHAR
STARTCHAR 00DA
ENCODING 218
SWIDTH 756 0
DWIDTH 21 0
BBX 17 26 2 0
BITMAP
007C00
00F800
01E000
01C000
038000
000000
F80F80
F80F80
F80F80
F80F80
F80F80
F80F80
F80F80
F80F80
F80F80
F80F80
F80F80
F80F80
F80F80
F80F80
F80F80
780F00
7E3F00
3FFE00
1FFC00
0FF800
ENDCHAR
STARTCHAR 00DB
ENCODING 219
SWIDTH 756 0
DWIDTH 21 0
BBX 17 26 2 0
BITMAP
03E000
07F000
0F7800
1E3C00
180C00
000000
F80F80
F80F80
F80F80
F80F80
F80F80
F80F80
F80F80
F80F80
F80F80
F80F80
F80F80
F80F80
F80F80
F80F80
F80F80
780F00
7E3F00
3FFE00
1FFC00
0FF800
ENDCHAR
STARTCHAR 00DC
ENCODING 220
SWIDTH 756 0
DWIDTH 21 0
BBX 17 25 2 1
BITMAP
0F7800
0F7800
0E3800
000000
000000
F80F80
F80F80
F80F80
F80F80
F80F80
F80F80
F80F80
F80F80
F80F80
F80F80
F80F80
F80F80
F80F80
F80F80
F80F80
780F00
7E3F00
3FFE00
1FFC00
0FF800
ENDCHAR
STARTCHAR 00DD
ENCODING 221
SWIDTH 612 0
DWIDTH 17 0
BBX 17 26 0 0
BITMAP
007C00
00F800
00F000
01C000
038000
000000
F80780
780F80
7C0F00
3C1F00
3E1E00
1E3C00
1F3C00
0F7800
0FF800
07F000
03F000
03E000
01E000
01E000
01E000
01E000
01E000
01E000
01E000
01E000
ENDCHAR
STARTCHAR 00DE
ENCODING 222
SWIDTH 612 0
DWIDTH 17 0
BBX 14 20 2 0
BITMAP
F800
F800
F800
FF80
FFF0
FFF8
FFFC
F87C
F83C
F83C
F83C
F87C
F9FC
FFF8
FFF0
FFC0
F800
F800
F800
F800
ENDCHAR
STARTCHAR 00DF
ENCODING 223
SWIDTH 684 0
DWIDTH 19 0
BBX 17 21 2 0
BITMAP
0FF000
3FFC00
7FFE00
FC3E00
F81E00
F01E00
F03C00
F07800
F0F000
F1E000
F1F000
F1F800
F0FC00
F07F00
F01F00
F00F80
F00F80
F20F80
F3FF00
F3FF00
F1FC00
ENDCHAR
STARTCHAR 00E0
ENCODING 224
SWIDTH 576 0
DWIDTH 16 0
BBX 14 21 1 0
BITMAP
1E00
0F00
0780
03C0
0000
0000
3FF0
3FF8
3FF8
007C
003C
003C
1FFC
7FFC
7C3C
F83C
F07C
F87C
FFFC
7FBC
3F1C
ENDCHAR
STARTCHAR 00E1
ENCODING 225
SWIDTH 576 0
DWIDTH 16 0
BBX 14 21 1 0
BITMAP
00F0
01E0
03C0
0780
0000
0000
3FF0
3FF8
3FF8
007C
003C
003C
1FFC
7FFC
7C3C
F83C
F07C
F87C
FFFC
7FBC
3F1C
ENDCHAR
STARTCHAR 00E2
ENCODING 226
SWIDTH 576 0
DWIDTH 16 0
BBX 14 21 1 0
BITMAP
0FC0
0FE0
1EF0
3878
0000
0000
3FF0
3FF8
3FF8
007C
003C
003C
1FFC
7FFC
7C3C
F83C
F07C
F87C
FFFC
7FBC
3F1C
ENDCHAR
STARTCHAR 00E3
ENCODING 227
SWIDTH 576 0
DWIDTH 16 0
BBX 14 21 1 0
BITMAP
0E18
1FF8
3FF0
31E0
0000
0000
3FF0
3FF8
3FF8
007C
003C
003C
1FFC
7FFC
7C3C
F83C
F07C
F87C
FFFC
7FBC
3F1C
ENDCHAR
STARTCHAR 00E4
ENCODING 228
SWIDTH 576 0
DWIDTH 16 0
BBX 14 21 1 0
BITMAP
1C60
1CF0
1CF0
0860
0000
0000
3FF0
3FF8
3FF8
007C
003C
003C
1FFC
7FFC
7C3C
F83C
F07C
F87C
FFFC
7FBC
3F1C
ENDCHAR
STARTCHAR 00E5
ENCODING 229
SWIDTH 576 0
DWIDTH 16 0
BBX 14 23 1 0
BITMAP
07C0
0FE0
0C60
0C60
0FE0
07C0
0000
0000
3FF0
3FF8
3FF8
007C
003C
003C
1FFC
7FFC
7C3C
F83C
F07C
F87C
FFFC
7FBC
3F1C
ENDCHAR
STARTCHAR 00E6
ENCODING 230
SWIDTH 900 0
DWIDTH 25 0
BBX 23 15 1 0
BITMAP
3FE7F0
3FFFFC
3FFFFC
007C1E
007C1E
007C1E
1FFFFE
7FFFFE
7C7800
F87C00
F07C00
F8FE04
FFFFFC
7FCFFC
3F87FC
ENDCHAR
STARTCHAR 00E7
ENCODING 231
SWIDTH 504 0
DWIDTH 14 0
BBX 12 22 1 -7
BITMAP
0FF0
3FF0
7FF0
7C20
7800
F800
F800
F000
F800
F800
7800
7C30
7FF0
3FF0
0FE0
0300
0780
03C0
01C0
0FC0
0FC0
0F00
ENDCHAR
STARTCHAR 00E8
ENCODING 232
SWIDTH 576 0
DWIDTH 16 0
BBX 14 21 1 0
BITMAP
3E00
0F00
0780
0380
0000
0000
0FE0
3FF8
7FF8
783C
783C
F83C
FFFC
FFFC
F000
F800
7800
7C08
3FF8
1FF8
0FF8
ENDCHAR
STARTCHAR 00E9
ENCODING 233
SWIDTH 576 0
DWIDTH 16 0
BBX 14 21 1 0
BITMAP
01F0
01E0
03C0
0700
0000
0000
0FE0
3FF8
7FF8
783C
783C
F83C
FFFC
FFFC
F000
F800
7800
7C08
3FF8
1FF8
0FF8
ENDCHAR
STARTCHAR 00EA
ENCODING 234
SWIDTH 576 0
DWIDTH 16 0
BBX 14 21 1 0
BITMAP
0FC0
1FE0
1CF0
3878
0000
0000
0FE0
3FF8
7FF8
783C
783C
F83C
FFFC
FFFC
F000
F800
7800
7C08
3FF8
1FF8
0FF8
ENDCHAR
STARTCHAR 00EB
ENCODING 235
SWIDTH 576 0
DWIDTH 16 0
BBX 14 21 1 0
BITMAP
1C60
1CF0
1CF0
0C60
0000
0000
0FE0
3FF8
7FF8
783C
783C
F83C
FFFC
FFFC
F000
F800
7800
7C08
3FF8
1FF8
0FF8
ENDCHAR
STARTCHAR 00EC
ENCODING 236
SWIDTH 288 0
DWIDTH 8 0
BBX 8 21 -1 0
BITMAP
F8
3C
1E
0F
00
00
1E
1E
1E
1E
1E
1E
1E
1E
1E
1E
1E
1E
1E
1E
1E
ENDCHAR
STARTCHAR 00ED
ENCODING 237
SWIDTH 288 0
DWIDTH 8 0
BBX 7 21 2 0
BITMAP
3E
3C
78
E0
00
00
F0
F0
F0
F0
F0
F0
F0
F0
F0
F0
F0
F0
F0
F0
F0
ENDCHAR
STARTCHAR 00EE
ENCODING 238
SWIDTH 288 0
DWIDTH 8 0
BBX 11 21 -1 0
BITMAP
3F00
7F80
73C0
E1E0
0000
0000
1E00
1E00
1E00
1E00
1E00
1E00
1E00
1E00
1E00
1E00
1E00
1E00
1E00
1E00
1E00
ENDCHAR
STARTCHAR 00EF
ENCODING 239
SWIDTH 288 0
DWIDTH 8 0
BBX 9 21 0 0
BITMAP
E300
E780
E780
6300
0000
0000
3C00
3C00
3C00
3C00
3C00
3C00
3C00
3C00
3C00
3C00
3C00
3C00
3C00
3C00
3C00
ENDCHAR
STARTCHAR 00F0
ENCODING 240
SWIDTH 612 0
DWIDTH 17 0
BBX 15 21 1 0
BITMAP
0610
0F78
0FF0
03E0
0FF0
0EF8
0478
003C
1FFC
3FFE
7FFE
783E
F83E
F81E
F01E
F81E
783C
7C3C
7FFC
3FF8
0FE0
ENDCHAR
STARTCHAR 00F1
ENCODING 241
SWIDTH 648 0
DWIDTH 18 0
BBX 14 21 2 0
BITMAP
1E18
3FF0
3FF0
31E0
0000
0000
F7F0
FFF8
FFFC
FC7C
F83C
F83C
F03C
F03C
F03C
F03C
F03C
F03C
F03C
F03C
F03C
ENDCHAR
STARTCHAR 00F2
ENCODING 242
SWIDTH 612 0
DWIDTH 17 0
BBX 15 21 1 0
BITMAP
1E00
0F00
0780
03C0
0000
0000
0FF0
3FF8
7FFC
7C3C
783E
F81E
F81E
F01E
F81E
F83E
783E
7C7C
3FFC
1FF8
0FE0
ENDCHAR
STARTCHAR 00F3
ENCODING 243
SWIDTH 612 0
DWIDTH 17 0
BBX 15 21 1 0
BITMAP
00F0
01E0
03C0
0780
0000
0000
0FF0
3FF8
7FFC
7C3C
783E
F81E
F81E
F01E
F81E
F83E
783E
7C7C
3FFC
1FF8
0FE0
ENDCHAR
STARTCHAR 00F4
ENCODING 244
SWIDTH 612 0
DWIDTH 17 0
BBX 15 21 1 0
BITMAP
07E0
0FE0
1EF0
3838
0000
0000
0FF0
3FF8
7FFC
7C3C
783E
F81E
F81E
F01E
F81E
F83E
783E
7C7C
3FFC
1FF8
0FE0
ENDCHAR
STARTCHAR 00F5
ENCODING 245
SWIDTH 612 0
DWIDTH 17 0
BBX 15 21 1 0
BITMAP
0E18
1FF8
3FF8
31F0
0000
0000
0FF0
3FF8
7FFC
7C3C
783E
F81E
F81E
F01E
F81E
F83E
783E
7C7C
3FFC
1FF8
0FE0
ENDCHAR
STARTCHAR 00F6
ENCODING 246
SWIDTH 612 0
DWIDTH 17 0
BBX 15 21 1 0
BITMAP
0C70
1EF0
1EF0
0C20
0000
0000
0FF0
3FF8
7FFC
7C3C
783E
F81E
F81E
F01E
F81E
F83E
783E
7C7C
3FFC
1FF8
0FE0
ENDCHAR
STARTCHAR 00F7
ENCODING 247
SWIDTH 540 0
DWIDTH 15 0
BBX 14 13 1 4
BITMAP
0780
0780
0780
0000
0000
FFFC
FFFC
FFFC
0000
0700
0780
0780
0300
ENDCHAR
STARTCHAR 00F8
ENCODING 248
SWIDTH 612 0
DWIDTH 17 0
BBX 15 17 1 -1
BITMAP
0010
0FFC
3FF8
7FFC
7C7C
78FE
F9FE
F9DE
F39E
FF9E
FF3E
7E3E
7E7C
3FFC
3FF8
7FE0
1000
ENDCHAR
STARTCHAR 00F9
ENCODING 249
SWIDTH 648 0
DWIDTH 18 0
BBX 14 21 2 0
BITMAP
3E00
0F00
0780
0380
0000
0000
F03C
F03C
F03C
F03C
F03C
F03C
F03C
F03C
F03C
F03C
F07C
F8FC
7FFC
7FFC
3F9C
ENDCHAR
STARTCHAR 00FA
ENCODING 250
SWIDTH 648 0
DWIDTH 18 0
BBX 14 21 2 0
BITMAP
01F0
01E0
03C0
0700
0000
0000
F03C
F03C
F03C
F03C
F03C
F03C
F03C
F03C
F03C
F03C
F07C
F8FC
7FFC
7FFC
3F9C
ENDCHAR
STARTCHAR 00FB
ENCODING 251
SWIDTH 648 0
DWIDTH 18 0
BBX 14 21 2 0
BITMAP
0FC0
1FE0
1CF0
3878
0000
0000
F03C
F03C
F03C
F03C
F03C
F03C
F03C
F03C
F03C
F03C
F07C
F8FC
7FFC
7FFC
3F9C
ENDCHAR
STARTCHAR 00FC
ENCODING 252
SWIDTH 648 0
DWIDTH 18 0
BBX 14 21 2 0
BITMAP
1C60
3CF0
1CF0
0860
0000
0000
F03C
F03C
F03C
F03C
F03C
F03C
F03C
F03C
F03C
F03C
F07C
F8FC
7FFC
7FFC
3F9C
ENDCHAR
STARTCHAR 00FD
ENCODING 253
SWIDTH 540 0
DWIDTH 15 0
BBX 16 28 0 -7
BITMAP
00F8
01F0
03C0
0380
0000
0000
F81F
781E
783E
7C3C
3C3C
3C7C
1E78
1E78
1E78
0FF0
0FF0
07E0
07E0
07E0
03C0
03C0
07C0
0780
7F80
7F00
7E00
7800
ENDCHAR
STARTCHAR 00FE
ENCODING 254
SWIDTH 612 0
DWIDTH 17 0
BBX 14 28 2 -7
BITMAP
F000
F000
F000
F000
F000
F000
F7F0
F7F8
FFF8
F87C
F83C
F03C
F03C
F03C
F03C
F83C
F83C
FC7C
FFF8
FFF8
F7E0
F000
F000
F000
F000
F000
F000
F000
ENDCHAR
STARTCHAR 00FF
ENCODING 255
SWIDTH 540 0
DWIDTH 15 0
BBX 16 28 0 -7
BITMAP
0C70
1E78
1E70
0C20
0000
0000
F81F
781E
783E
7C3C
3C3C
3C7C
1E78
1E78
1E78
0FF0
0FF0
07E0
07E0
07E0
03C0
03C0
07C0
0780
7F80
7F00
7E00
7800
ENDCHAR
STARTCHAR 0100
ENCODING 256
SWIDTH 684 0
DWIDTH 19 0
BBX 19 24 0 0
BITMAP
07FC00
07FC00
07FC00
000000
01F000
03F800
03F800
03F800
07BC00
07BC00
079C00
0F1E00
0F1E00
0F1E00
1E0F00
1E0F00
1FFF80
3FFF80
3FFF80
3C07C0
7C03C0
7803C0
7803E0
F803E0
ENDCHAR
STARTCHAR 0101
ENCODING 257
SWIDTH 576 0
DWIDTH 16 0
BBX 14 20 1 0
BITMAP
1FF0
1FF0
1FF0
0000
0000
3FF0
3FF8
3FF8
007C
003C
003C
1FFC
7FFC
7C3C
F83C
F07C
F87C
FFFC
7FBC
3F1C
ENDCHAR
STARTCHAR 0102
ENCODING 258
SWIDTH 684 0
DWIDTH 19 0
BBX 19 26 0 0
BITMAP
0E0E00
071E00
07FC00
03F800
004000
000000
01F000
03F800
03F800
03F800
07BC00
07BC00
079C00
0F1E00
0F1E00
0F1E00
1E0F00
1E0F00
1FFF80
3FFF80
3FFF80
3C07C0
7C03C0
7803C0
7803E0
F803E0
ENDCHAR
STARTCHAR 0103
ENCODING 259
SWIDTH 576 0
DWIDTH 16 0
BBX 14 21 1 0
BITMAP
3838
1FF0
1FF0
0FC0
0000
0000
3FF0
3FF8
3FF8
007C
003C
003C
1FFC
7FFC
7C3C
F83C
F07C
F87C
FFFC
7FBC
3F1C
ENDCHAR
STARTCHAR 0104
ENCODING 260
SWIDTH 684 0
DWIDTH 19 0
BBX 19 27 0 -7
BITMAP
01F000
03F800
03F800
03F800
07BC00
07BC00
079C00
0F1E00
0F1E00
0F1E00
1E0F00
1E0F00
1FFF80
3FFF80
3FFF80
3C07C0
7C03C0
7803C0
7803E0
F803E0
000180
000380
000700
000700
0007E0
0003E0
0001C0
ENDCHAR
STARTCHAR 0105
ENCODING 261
SWIDTH 576 0
DWIDTH 16 0
BBX 14 22 1 -7
BITMAP
3FF0
3FF8
3FF8
007C
003C
003C
1FFC
7FFC
7C3C
F83C
F07C
F87C
FFFC
7FBC
3F1C
0038
0070
0060
00E0
007C
007C
0018
ENDCHAR
STARTCHAR 0106
ENCODING 262
SWIDTH 612 0
DWIDTH 17 0
BBX 15 26 2 0
BITMAP
007C
00F0
01E0
03C0
0380
0000
07F8
1FFE
3FFC
7F3C
7C00
F800
F800
F000
F000
F000
F000
F000
F000
F000
F800
7C00
7E1C
3FFC
1FFC
0FF8
ENDCHAR
STARTCHAR 0107
ENCODING 263
SWIDTH 504 0
DWIDTH 14 0
BBX 12 21 1 0
BITMAP
01F0
03E0
0380
0700
0000
0000
0FF0
3FF0
7FF0
7C20
7800
F800
F800
F000
F800
F800
7800
7C30
7FF0
3FF0
0FE0
ENDCHAR
STARTCHAR 0108
ENCODING 264
SWIDTH 612 0
DWIDTH 17 0
BBX 15 26 2 0
BITMAP
03E0
07F0
0F78
1E3C
180C
0000
07F8
1FFE
3FFC
7F3C
7C00
F800
F800
F000
F000
F000
F000
F000
F000
F000
F800
7C00
7E1C
3FFC
1FFC
0FF8
ENDCHAR
STARTCHAR 0109
ENCODING 265
SWIDTH 504 0
DWIDTH 14 0
BBX 13 21 1 0
BITMAP
0FC0
1FE0
3CF0
7878
0000
0000
0FF0
3FF0
7FF0
7C20
7800
F800
F800
F000
F800
F800
7800
7C30
7FF0
3FF0
0FE0
ENDCHAR
STARTCHAR 010A
ENCODING 266
SWIDTH 612 0
DWIDTH 17 0
BBX 15 26 2 0
BITMAP
01C0
03E0
03E0
01C0
0000
0000
07F8
1FFE
3FFC
7F3C
7C00
F800
F800
F000
F000
F000
F000
F000
F000
F000
F800
7C00
7E1C
3FFC
1FFC
0FF8
ENDCHAR
STARTCHAR 010B
ENCODING 267
SWIDTH 504 0
DWIDTH 14 0
BBX 12 21 1 0
BITMAP
0780
0780
0780
0780
0000
0000
0FF0
3FF0
7FF0
7C20
7800
F800
F800
F000
F800
F800
7800
7C30
7FF0
3FF0
0FE0
ENDCHAR
STARTCHAR 010C
ENCODING 268
SWIDTH 612 0
DWIDTH 17 0
BBX 15 26 2 0
BITMAP
1C1C
0E38
07F0
07F0
03E0
0000
07F8
1FFE
3FFC
7F3C
7C00
F800
F800
F000
F000
F000
F000
F000
F000
F000
F800
7C00
7E1C
3FFC
1FFC
0FF8
ENDCHAR
STARTCHAR 010D
ENCODING 269
SWIDTH 504 0
DWIDTH 14 0
BBX 13 21 1 0
BITMAP
3878
3CF0
1FE0
0FC0
0000
0000
0FF0
3FF0
7FF0
7C20
7800
F800
F800
F000
F800
F800
7800
7C30
7FF0
3FF0
0FE0
ENDCHAR
STARTCHAR 010E
ENCODING 270
SWIDTH 720 0
DWIDTH 20 0
BBX 17 26 2 0
BITMAP
1C1C00
1E7800
0FF000
07E000
03E000
000000
FFC000
FFF800
FFFC00
FFFE00
F83F00
F81F00
F80F00
F80F80
F80F80
F80780
F80780
F80F80
F80F80
F80F00
F81F00
F83F00
F9FE00
FFFC00
FFF800
FFC000
ENDCHAR
STARTCHAR 010F
ENCODING 271
SWIDTH 612 0
DWIDTH 17 0
BBX 20 21 1 0
BITMAP
003CF0
003CE0
003CE0
003DC0
003C00
003C00
1FBC00
3FDC00
7FFC00
7C7C00
F83C00
F83C00
F01C00
F01C00
F01C00
F83C00
783C00
7C7C00
7FFC00
3FDC00
1F9C00
ENDCHAR
STARTCHAR 0110
ENCODING 272
SWIDTH 720 0
DWIDTH 20 0
BBX 18 20 1 0
BITMAP
7FE000
7FFC00
7FFE00
7FFF00
7C1F80
7C0F80
7C0780
7C07C0
FF87C0
FF83C0
FF83C0
FF87C0
7C07C0
7C0780
7C0F80
7C1F80
7CFF00
7FFE00
7FFC00
7FE000
ENDCHAR
STARTCHAR 0111
ENCODING 273
SWIDTH 648 0
DWIDTH 18 0
BBX 17 21 1 0
BITMAP
003C00
003C00
03FF80
03FF80
03FF80
003C00
023C00
1FBC00
3FDC00
7FFC00
7C3C00
F83C00
F83C00
F01C00
F81C00
F83C00
F83C00
7C7C00
7FFC00
3FDC00
1F9C00
ENDCHAR
STARTCHAR 0112
ENCODING 274
SWIDTH 540 0
DWIDTH 15 0
BBX 12 24 2 0
BITMAP
3FE0
3FE0
3FE0
0000
FFF0
FFF0
FFF0
FFF0
F800
F800
F800
F800
FFE0
FFE0
FFE0
F800
F800
F800
F800
F800
F800
FFF0
FFF0
FFF0
ENDCHAR
STARTCHAR 0113
ENCODING 275
SWIDTH 576 0
DWIDTH 16 0
BBX 14 20 1 0
BITMAP
1FF0
1FF0
1FF0
0000
0000
0FE0
3FF8
7FF8
783C
783C
F83C
FFFC
FFFC
F000
F800
7800
7C08
3FF8
1FF8
0FF8
ENDCHAR
STARTCHAR 0114
ENCODING 276
SWIDTH 540 0
DWIDTH 15 0
BBX 12 26 2 0
BITMAP
7070
78E0
3FE0
1FC0
0200
0000
FFF0
FFF0
FFF0
FFF0
F800
F800
F800
F800
FFE0
FFE0
FFE0
F800
F800
F800
F800
F800
F800
FFF0
FFF0
FFF0
ENDCHAR
STARTCHAR 0115
ENCODING 277
SWIDTH 576 0
DWIDTH 16 0
BBX 14 21 1 0
BITMAP
3830
3FF0
1FE0
0FC0
0000
0000
0FE0
3FF8
7FF8
783C
783C
F83C
FFFC
FFFC
F000
F800
7800
7C08
3FF8
1FF8
0FF8
ENDCHAR
STARTCHAR 0116
ENCODING 278
SWIDTH 540 0
DWIDTH 15 0
BBX 12 26 2 0
BITMAP
0600
0F80
0F80
0F00
0000
0000
FFF0
FFF0
FFF0
FFF0
F800
F800
F800
F800
FFE0
FFE0
FFE0
F800
F800
F800
F800
F800
F800
FFF0
FFF0
FFF0
ENDCHAR
STARTCHAR 0117
ENCODING 279
SWIDTH 576 0
DWIDTH 16 0
BBX 14 21 1 0
BITMAP
0780
0780
0780
0380
0000
0000
0FE0
3FF8
7FF8
783C
783C
F83C
FFFC
FFFC
F000
F800
7800
7C08
3FF8
1FF8
0FF8
ENDCHAR
STARTCHAR 0118
ENCODING 280
SWIDTH 540 0
DWIDTH 15 0
BBX 12 27 2 -7
BITMAP
FFF0
FFF0
FFF0
FFF0
F800
F800
F800
F800
FFE0
FFE0
FFE0
F800
F800
F800
F800
F800
F800
FFF0
FFF0
FFF0
00E0
01C0
0180
0380
01F0
01F0
0060
ENDCHAR
STARTCHAR 0119
ENCODING 281
SWIDTH 576 0
DWIDTH 16 0
BBX 14 22 1 -7
BITMAP
0FE0
3FF8
7FF8
783C
783C
F83C
FFFC
FFFC
F000
F800
7800
7C08
3FF8
1FF8
0FF8
0070
00E0
00E0
00E0
00F8
00F8
0038
ENDCHAR
STARTCHAR 011A
ENCODING 282
SWIDTH 540 0
DWIDTH 15 0
BBX 12 26 2 0
BITMAP
7070
39E0
3FC0
1FC0
0F80
0000
FFF0
FFF0
FFF0
FFF0
F800
F800
F800
F800
FFE0
FFE0
FFE0
F800
F800
F800
F800
F800
F800
FFF0
FFF0
FFF0
ENDCHAR
STARTCHAR 011B
ENCODING 283
SWIDTH 576 0
DWIDTH 16 0
BBX 14 21 1 0
BITMAP
3878
1EF0
0FE0
0FC0
0000
0000
0FE0
3FF8
7FF8
783C
783C
F83C
FFFC
FFFC
F000
F800
7800
7C08
3FF8
1FF8
0FF8
ENDCHAR
STARTCHAR 011C
ENCODING 284
SWIDTH 720 0
DWIDTH 20 0
BBX 16 26 2 0
BITMAP
03F0
03F8
07FC
0E1C
1C0E
0000
03FC
0FFF
3FFE
3F9E
7C00
F800
F800
F000
F000
F0FF
F0FF
F0FF
F00F
F00F
F80F
7C0F
7E0F
3FFF
1FFF
07FE
ENDCHAR
STARTCHAR 011D
ENCODING 285
SWIDTH 540 0
DWIDTH 15 0
BBX 15 28 0 -7
BITMAP
0FC0
0FE0
1EF0
3878
0000
0000
1FFE
3FFE
3C78
7838
783C
783C
7C78
3FF8
1FF0
1FC0
3800
3C00
3FF8
1FFC
3FFE
781E
F00E
F01E
F83E
7FFC
3FF0
0700
ENDCHAR
STARTCHAR 011E
ENCODING 286
SWIDTH 720 0
DWIDTH 20 0
BBX 16 26 2 0
BITMAP
0C0C
0F3C
07FC
03F8
0040
0000
03FC
0FFF
3FFE
3F9E
7C00
F800
F800
F000
F000
F0FF
F0FF
F0FF
F00F
F00F
F80F
7C0F
7E0F
3FFF
1FFF
07FE
ENDCHAR
STARTCHAR 011F
ENCODING 287
SWIDTH 540 0
DWIDTH 15 0
BBX 15 28 0 -7
BITMAP
3838
1FF0
1FF0
0FC0
0000
0000
1FFE
3FFE
3C78
7838
783C
783C
7C78
3FF8
1FF0
1FC0
3800
3C00
3FF8
1FFC
3FFE
781E
F00E
F01E
F83E
7FFC
3FF0
0700
ENDCHAR
STARTCHAR 0120
ENCODING 288
SWIDTH 720 0
DWIDTH 20 0
BBX 16 26 2 0
BITMAP
00C0
01E0
01E0
01E0
0000
0000
03FC
0FFF
3FFE
3F9E
7C00
F800
F800
F000
F000
F0FF
F0FF
F0FF
F00F
F00F
F80F
7C0F
7E0F
3FFF
1FFF
07FE
ENDCHAR
STARTCHAR 0121
ENCODING 289
SWIDTH 540 0
DWIDTH 15 0
BBX 15 28 0 -7
BITMAP
0380
07C0
07C0
0380
0000
0000
1FFE
3FFE
3C78
7838
783C
783C
7C78
3FF8
1FF0
1FC0
3800
3C00
3FF8
1FFC
3FFE
781E
F00E
F01E
F83E
7FFC
3FF0
0700
ENDCHAR
STARTCHAR 0122
ENCODING 290
SWIDTH 720 0
DWIDTH 20 0
BBX 16 26 2 -6
BITMAP
03FC
0FFF
3FFE
3F9E
7C00
F800
F800
F000
F000
F0FF
F0FF
F0FF
F00F
F00F
F80F
7C0F
7E0F
3FFF
1FFF
07FE
0000
0000
01E0
01C0
01C0
0180
ENDCHAR
STARTCHAR 0123
ENCODING 291
SWIDTH 540 0
DWIDTH 15 0
BBX 15 28 0 -7
BITMAP
01C0
0380
0380
0780
0000
0000
1FFE
3FFE
3C78
7838
783C
783C
7C78
3FF8
1FF0
1FC0
3800
3C00
3FF8
1FFC
3FFE
781E
F00E
F01E
F83E
7FFC
3FF0
0700
ENDCHAR
STARTCHAR 0124
ENCODING 292
SWIDTH 756 0
DWIDTH 21 0
BBX 17 26 2 0
BITMAP
03E000
07F000
0F7800
1E3C00
1C0E00
000000
F80780
F80780
F80780
F80780
F80780
F80780
F80780
F80780
FFFF80
FFFF80
FFFF80
F80780
F80780
F80780
F80780
F80780
F80780
F80780
F80780
F80780
ENDCHAR
STARTCHAR 0125
ENCODING 293
SWIDTH 648 0
DWIDTH 18 0
BBX 17 27 -1 0
BITMAP
3F0000
3F8000
7BC000
E1E000
000000
000000
1E0000
1E0000
1E0000
1E0000
1E0000
1E0000
1EFE00
1EFF00
1FFF80
1F8F80
1F0780
1F0780
1E0780
1E0780
1E0780
1E0780
1E0780
1E0780
1E0780
1E0780
1E0780
ENDCHAR
STARTCHAR 0126
ENCODING 294
SWIDTH 756 0
DWIDTH 21 0
BBX 21 20 0 0
BITMAP
3E01E0
3E01E0
3E01E0
FFFFF8
FFFFF8
FFFFF8
3E01E0
3E01E0
3FFFE0
3FFFE0
3FFFE0
3E01E0
3E01E0
3E01E0
3E01E0
3E01E0
3E01E0
3E01E0
3E01E0
3E01E0
ENDCHAR
STARTCHAR 0127
ENCODING 295
SWIDTH 648 0
DWIDTH 18 0
BBX 16 21 0 0
BITMAP
3C00
3C00
FFE0
FFE0
FFE0
3C00
3C30
3DFC
3FFE
3FFF
3E1F
3E0F
3C0F
3C0F
3C0F
3C0F
3C0F
3C0F
3C0F
3C0F
3C0F
ENDCHAR
STARTCHAR 0128
ENCODING 296
SWIDTH 324 0
DWIDTH 9 0
BBX 11 26 -1 0
BITMAP
1860
7EE0
FFE0
E7C0
C100
0000
1F00
1F00
1F00
1F00
1F00
1F00
1F00
1F00
1F00
1F00
1F00
1F00
1F00
1F00
1F00
1F00
1F00
1F00
1F00
1F00
ENDCHAR
STARTCHAR 0129
ENCODING 297
SWIDTH 288 0
DWIDTH 8 0
BBX 11 21 -1 0
BITMAP
7860
FFE0
FFC0
C780
0000
0000
1E00
1E00
1E00
1E00
1E00
1E00
1E00
1E00
1E00
1E00
1E00
1E00
1E00
1E00
1E00
ENDCHAR
STARTCHAR 012A
ENCODING 298
SWIDTH 324 0
DWIDTH 9 0
BBX 9 24 0 0
BITMAP
FF80
FF80
FF80
0000
3E00
3E00
3E00
3E00
3E00
3E00
3E00
3E00
3E00
3E00
3E00
3E00
3E00
3E00
3E00
3E00
3E00
3E00
3E00
3E00
ENDCHAR
STARTCHAR 012B
ENCODING 299
SWIDTH 288 0
DWIDTH 8 0
BBX 9 20 0 0
BITMAP
FF80
FF80
FF80
0000
0000
3C00
3C00
3C00
3C00
3C00
3C00
3C00
3C00
3C00
3C00
3C00
3C00
3C00
3C00
3C00
ENDCHAR
STARTCHAR 012C
ENCODING 300
SWIDTH 324 0
DWIDTH 9 0
BBX 11 26 -1 0
BITMAP
E0E0
71E0
7FC0
3F80
0400
0000
1F00
1F00
1F00
1F00
1F00
1F00
1F00
1F00
1F00
1F00
1F00
1F00
1F00
1F00
1F00
1F00
1F00
1F00
1F00
1F00
ENDCHAR
STARTCHAR 012D
ENCODING 301
SWIDTH 288 0
DWIDTH 8 0
BBX 11 21 -1 0
BITMAP
E0E0
FFC0
7F80
3F00
0000
0000
1E00
1E00
1E00
1E00
1E00
1E00
1E00
1E00
1E00
1E00
1E00
1E00
1E00
1E00
1E00
ENDCHAR
STARTCHAR 012E
ENCODING 302
SWIDTH 324 0
DWIDTH 9 0
BBX 5 27 2 -7
BITMAP
F8
F8
F8
F8
F8
F8
F8
F8
F8
F8
F8
F8
F8
F8
F8
F8
F8
F8
F8
F8
70
60
E0
E0
F8
F8
38
ENDCHAR
STARTCHAR 012F
ENCODING 303
SWIDTH 288 0
DWIDTH 8 0
BBX 6 28 1 -7
BITMAP
78
78
78
38
00
00
78
78
78
78
78
78
78
78
78
78
78
78
78
78
78
38
70
E0
E0
FC
7C
18
ENDCHAR
STARTCHAR 0130
ENCODING 304
SWIDTH 324 0
DWIDTH 9 0
BBX 5 26 2 0
BITMAP
30
F8
F8
78
00
00
F8
F8
F8
F8
F8
F8
F8
F8
F8
F8
F8
F8
F8
F8
F8
F8
F8
F8
F8
F8
ENDCHAR
STARTCHAR 0131
ENCODING 305
SWIDTH 288 0
DWIDTH 8 0
BBX 4 15 2 0
BITMAP
F0
F0
F0
F0
F0
F0
F0
F0
F0
F0
F0
F0
F0
F0
F0
ENDCHAR
STARTCHAR 0132
ENCODING 306
SWIDTH 648 0
DWIDTH 18 0
BBX 14 26 2 -6
BITMAP
F83C
F83C
F83C
F83C
F83C
F83C
F83C
F83C
F83C
F83C
F83C
F83C
F83C
F83C
F83C
F83C
F83C
F83C
F83C
F83C
007C
007C
07F8
07F8
07F0
07C0
ENDCHAR
STARTCHAR 0133
ENCODING 307
SWIDTH 576 0
DWIDTH 16 0
BBX 13 28 2 -7
BITMAP
F078
F0F8
F078
7070
0000
0000
F078
F078
F078
F078
F078
F078
F078
F078
F078
F078
F078
F078
F078
F078
F078
0078
0078
00F8
07F8
07F0
07E0
0780
ENDCHAR
STARTCHAR 0134
ENCODING 308
SWIDTH 324 0
DWIDTH 9 0
BBX 13 32 -2 -6
BITMAP
0F80
1FC0
3DE0
78F0
7038
0000
0F80
0F80
0F80
0F80
0F80
0F80
0F80
0F80
0F80
0F80
0F80
0F80
0F80
0F80
0F80
0F80
0F80
0F80
0F80
0F80
0F80
0F00
FF00
FF00
FE00
F800
ENDCHAR
STARTCHAR 0135
ENCODING 309
SWIDTH 288 0
DWIDTH 8 0
BBX 12 28 -2 -7
BITMAP
1F80
3FC0
39E0
70F0
0000
0000
0F00
0F00
0F00
0F00
0F00
0F00
0F00
0F00
0F00
0F00
0F00
0F00
0F00
0F00
0F00
0F00
0F00
0F00
FF00
FF00
FE00
7800
ENDCHAR
STARTCHAR 0136
ENCODING 310
SWIDTH 648 0
DWIDTH 18 0
BBX 16 26 2 -6
BITMAP
F81F
F81E
F83E
F87C
F8F8
F9F0
F9E0
FBE0
FFC0
FFC0
FFC0
FFE0
F9F0
F8F0
F8F8
F87C
F87C
F83E
F81F
F81F
0000
0000
03C0
0380
0380
0700
ENDCHAR
STARTCHAR 0137
ENCODING 311
SWIDTH 612 0
DWIDTH 17 0
BBX 15 27 2 -6
BITMAP
F000
F000
F000
F000
F000
F000
F03C
F078
F0F0
F1F0
F3E0
F7C0
FF80
FFC0
FFC0
F9E0
F1F0
F0F8
F078
F07C
F03E
0000
0000
0780
0700
0700
0E00
ENDCHAR
STARTCHAR 0138
ENCODING 312
SWIDTH 612 0
DWIDTH 17 0
BBX 15 15 2 0
BITMAP
F03C
F078
F0F8
F1F0
F3E0
F3C0
F780
FF80
FFC0
FFE0
F1F0
F0F8
F078
F07C
F03E
ENDCHAR
STARTCHAR 0139
ENCODING 313
SWIDTH 540 0
DWIDTH 15 0
BBX 13 26 2 0
BITMAP
1F00
3E00
7800
7000
E000
0000
F800
F800
F800
F800
F800
F800
F800
F800
F800
F800
F800
F800
F800
F800
F800
F800
F800
FFF8
FFF8
FFF8
ENDCHAR
STARTCHAR 013A
ENCODING 314
SWIDTH 288 0
DWIDTH 8 0
BBX 7 27 2 0
BITMAP
3E
3C
78
F0
00
00
F0
F0
F0
F0
F0
F0
F0
F0
F0
F0
F0
F0
F0
F0
F0
F0
F0
F0
F0
F0
F0
ENDCHAR
STARTCHAR 013B
ENCODING 315
SWIDTH 540 0
DWIDTH 15 0
BBX 13 26 2 -6
BITMAP
F800
F800
F800
F800
F800
F800
F800
F800
F800
F800
F800
F800
F800
F800
F800
F800
F800
FFF8
FFF8
FFF8
0000
0000
0780
0700
0700
0E00
ENDCHAR
STARTCHAR 013C
ENCODING 316
SWIDTH 288 0
DWIDTH 8 0
BBX 4 27 2 -6
BITMAP
F0
F0
F0
F0
F0
F0
F0
F0
F0
F0
F0
F0
F0
F0
F0
F0
F0
F0
F0
F0
F0
00
00
70
F0
E0
E0
ENDCHAR
STARTCHAR 013D
ENCODING 317
SWIDTH 540 0
DWIDTH 15 0
BBX 14 20 2 0
BITMAP
F83C
F878
F878
F870
F860
F800
F800
F800
F800
F800
F800
F800
F800
F800
F800
F800
F800
FFF8
FFF8
FFF8
ENDCHAR
STARTCHAR 013E
ENCODING 318
SWIDTH 288 0
DWIDTH 8 0
BBX 10 21 2 0
BITMAP
F3C0
F380
F780
F700
F000
F000
F000
F000
F000
F000
F000
F000
F000
F000
F000
F000
F000
F000
F000
F000
F000
ENDCHAR
STARTCHAR 013F
ENCODING 319
SWIDTH 540 0
DWIDTH 15 0
BBX 13 20 2 0
BITMAP
F800
F800
F800
F800
F800
F800
F800
F870
F8F0
F8F0
F8F0
F800
F800
F800
F800
F800
F800
FFF8
FFF8
FFF8
ENDCHAR
STARTCHAR 0140
ENCODING 320
SWIDTH 360 0
DWIDTH 10 0
BBX 10 21 2 0
BITMAP
F000
F000
F000
F000
F000
F000
F000
F000
F100
F780
F7C0
F780
F000
F000
F000
F000
F000
F000
F000
F000
F000
ENDCHAR
STARTCHAR 0141
ENCODING 321
SWIDTH 540 0
DWIDTH 15 0
BBX 15 20 0 0
BITMAP
3E00
3E00
3E00
3E00
3E00
3E00
3E80
3FC0
3FC0
3F80
7E00
FE00
7E00
7E00
3E00
3E00
3E00
3FFE
3FFE
3FFE
ENDCHAR
STARTCHAR 0142
ENCODING 322
SWIDTH 288 0
DWIDTH 8 0
BBX 9 21 0 0
BITMAP
3C00
3C00
3C00
3C00
3C00
3C00
3C00
3C00
3F00
3F00
3F80
7E00
FC00
FC00
7C00
3C00
3C00
3C00
3C00
3C00
3C00
ENDCHAR
STARTCHAR 0143
ENCODING 323
SWIDTH 792 0
DWIDTH 22 0
BBX 18 26 2 0
BITMAP
003C00
007800
00F000
01E000
01C000
000000
FC03C0
FE03C0
FE03C0
FF03C0
FF03C0
FF83C0
F783C0
F3C3C0
F3E3C0
F1E3C0
F1F3C0
F0F3C0
F0FBC0
F07FC0
F03FC0
F03FC0
F01FC0
F01FC0
F00FC0
F00FC0
ENDCHAR
STARTCHAR 0144
ENCODING 324
SWIDTH 648 0
DWIDTH 18 0
BBX 14 21 2 0
BITMAP
01F0
01E0
03C0
0700
0000
0000
F7F0
FFF8
FFFC
FC7C
F83C
F83C
F03C
F03C
F03C
F03C
F03C
F03C
F03C
F03C
F03C
ENDCHAR
STARTCHAR 0145
ENCODING 325
SWIDTH 792 0
DWIDTH 22 0
BBX 18 26 2 -6
BITMAP
FC03C0
FE03C0
FE03C0
FF03C0
FF03C0
FF83C0
F783C0
F3C3C0
F3E3C0
F1E3C0
F1F3C0
F0F3C0
F0FBC0
F07FC0
F03FC0
F03FC0
F01FC0
F01FC0
F00FC0
F00FC0
000000
000000
00E000
01E000
01C000
01C000
ENDCHAR
STARTCHAR 0146
ENCODING 326
SWIDTH 648 0
DWIDTH 18 0
BBX 14 21 2 -6
BITMAP
F7F0
FFF8
FFFC
FC7C
F83C
F83C
F03C
F03C
F03C
F03C
F03C
F03C
F03C
F03C
F03C
0000
0000
0380
0780
0700
0700
ENDCHAR
STARTCHAR 0147
ENCODING 327
SWIDTH 792 0
DWIDTH 22 0
BBX 18 26 2 0
BITMAP
0E0E00
073C00
07F800
03F000
01F000
000000
FC03C0
FE03C0
FE03C0
FF03C0
FF03C0
FF83C0
F783C0
F3C3C0
F3E3C0
F1E3C0
F1F3C0
F0F3C0
F0FBC0
F07FC0
F03FC0
F03FC0
F01FC0
F01FC0
F00FC0
F00FC0
ENDCHAR
STARTCHAR 0148
ENCODING 328
SWIDTH 648 0
DWIDTH 18 0
BBX 14 21 2 0
BITMAP
3878
1EF0
0FE0
0FC0
0000
0000
F7F0
FFF8
FFFC
FC7C
F83C
F83C
F03C
F03C
F03C
F03C
F03C
F03C
F03C
F03C
F03C
ENDCHAR
STARTCHAR 0149
ENCODING 329
SWIDTH 756 0
DWIDTH 21 0
BBX 19 20 0 0
BITMAP
780000
780000
780000
700000
700000
F7BF80
E7FFC0
07FFE0
07E3E0
07C1E0
07C1E0
07C1E0
0781E0
0781E0
0781E0
0781E0
0781E0
0781E0
0781E0
0781E0
ENDCHAR
STARTCHAR 014A
ENCODING 330
SWIDTH 792 0
DWIDTH 22 0
BBX 18 26 2 -6
BITMAP
FC03C0
FE03C0
FE03C0
FF03C0
FF83C0
FFC3C0
F7C3C0
F3E3C0
F1F3C0
F1F3C0
F0FBC0
F07FC0
F07FC0
F03FC0
F01FC0
F01FC0
F00FC0
F007C0
F007C0
F003C0
0003C0
0003C0
007FC0
007F80
007F00
007C00
ENDCHAR
STARTCHAR 014B
ENCODING 331
SWIDTH 648 0
DWIDTH 18 0
BBX 14 22 2 -7
BITMAP
F7F0
FFF8
FFFC
FC7C
F83C
F83C
F03C
F03C
F03C
F03C
F03C
F03C
F03C
F03C
F03C
003C
003C
003C
01FC
01FC
01F8
00E0
ENDCHAR
STARTCHAR 014C
ENCODING 332
SWIDTH 792 0
DWIDTH 22 0
BBX 18 24 2 0
BITMAP
0FFC00
0FFC00
0FFC00
000000
07F800
1FFE00
3FFF00
7F3F80
7C0F80
F807C0
F803C0
F003C0
F003C0
F003C0
F003C0
F003C0
F003C0
F003C0
F807C0
7C0F80
7E1F80
3FFF00
1FFE00
07F800
ENDCHAR
STARTCHAR 014D
ENCODING 333
SWIDTH 612 0
DWIDTH 17 0
BBX 15 20 1 0
BITMAP
1FF0
1FF0
1FF0
0000
0000
0FF0
3FF8
7FFC
7C3C
783E
F81E
F81E
F01E
F81E
F83E
783E
7C7C
3FFC
1FF8
0FE0
ENDCHAR
STARTCHAR 014E
ENCODING 334
SWIDTH 792 0
DWIDTH 22 0
BBX 18 26 2 0
BITMAP
0C0C00
0F3C00
07FC00
03F800
000000
000000
07F800
1FFE00
3FFF00
7F3F80
7C0F80
F807C0
F803C0
F003C0
F003C0
F003C0
F003C0
F003C0
F003C0
F003C0
F807C0
7C0F80
7E1F80
3FFF00
1FFE00
07F800
ENDCHAR
STARTCHAR 014F
ENCODING 335
SWIDTH 612 0
DWIDTH 17 0
BBX 15 21 1 0
BITMAP
3838
1FF8
1FF0
07E0
0000
0000
0FF0
3FF8
7FFC
7C3C
783E
F81E
F81E
F01E
F81E
F83E
783E
7C7C
3FFC
1FF8
0FE0
ENDCHAR
STARTCHAR 0150
ENCODING 336
SWIDTH 792 0
DWIDTH 22 0
BBX 18 26 2 0
BITMAP
01F780
01EF00
03CE00
039C00
063800
000000
07F800
1FFE00
3FFF00
7F3F80
7C0F80
F807C0
F803C0
F003C0
F003C0
F003C0
F003C0
F003C0
F003C0
F003C0
F807C0
7C0F80
7E1F80
3FFF00
1FFE00
07F800
ENDCHAR
STARTCHAR 0151
ENCODING 337
SWIDTH 612 0
DWIDTH 17 0
BBX 15 21 1 0
BITMAP
03DE
079C
0738
0E70
0000
0000
0FF0
3FF8
7FFC
7C3C
783E
F81E
F81E
F01E
F81E
F83E
783E
7C7C
3FFC
1FF8
0FE0
ENDCHAR
STARTCHAR 0152
ENCODING 338
SWIDTH 972 0
DWIDTH 27 0
BBX 23 20 2 0
BITMAP
07FFFE
1FFFFE
3FFFFE
7F3FFE
7C0F00
F80F00
F00F00
F00F00
F00FFE
F00FFE
F00FFE
F00F00
F00F00
F00F00
F80F00
780F00
7E1F00
3FFFFE
1FFFFE
0FFFFE
ENDCHAR
STARTCHAR 0153
ENCODING 339
SWIDTH 972 0
DWIDTH 27 0
BBX 25 15 1 0
BITMAP
0FE3FC00
3FFFFE00
7FFFFF00
7C3F0F00
783E0780
F81E0780
F81FFF80
F01FFF80
F81E0000
F83E0000
783E0000
7C7F0100
3FFFFF00
1FFFFF00
0FE1FE00
ENDCHAR
STARTCHAR 0154
ENCODING 340
SWIDTH 648 0
DWIDTH 18 0
BBX 16 26 2 0
BITMAP
00F8
01E0
03C0
0780
0700
0000
FFC0
FFF0
FFF8
FFFC
F87C
F83C
F83C
F83C
F87C
FFF8
FFF0
FFE0
F9E0
F8F0
F8F8
F878
F87C
F83E
F81E
F81F
ENDCHAR
STARTCHAR 0155
ENCODING 341
SWIDTH 432 0
DWIDTH 12 0
BBX 10 21 2 0
BITMAP
07C0
0F80
0F00
1C00
0000
0000
E3C0
F7C0
FFC0
FF40
F800
F800
F000
F000
F000
F000
F000
F000
F000
F000
F000
ENDCHAR
STARTCHAR 0156
ENCODING 342
SWIDTH 648 0
DWIDTH 18 0
BBX 16 26 2 -6
BITMAP
FFC0
FFF0
FFF8
FFFC
F87C
F83C
F83C
F83C
F87C
FFF8
FFF0
FFE0
F9E0
F8F0
F8F8
F878
F87C
F83E
F81E
F81F
0000
0000
03C0
03C0
0380
0300
ENDCHAR
STARTCHAR 0157
ENCODING 343
SWIDTH 432 0
DWIDTH 12 0
BBX 10 21 2 -6
BITMAP
E3C0
F7C0
FFC0
FF40
F800
F800
F000
F000
F000
F000
F000
F000
F000
F000
F000
0000
0000
7000
7000
E000
E000
ENDCHAR
STARTCHAR 0158
ENCODING 344
SWIDTH 648 0
DWIDTH 18 0
BBX 16 26 2 0
BITMAP
3838
1CF0
1FE0
0FE0
07C0
0000
FFC0
FFF0
FFF8
FFFC
F87C
F83C
F83C
F83C
F87C
FFF8
FFF0
FFE0
F9E0
F8F0
F8F8
F878
F87C
F83E
F81E
F81F
ENDCHAR
STARTCHAR 0159
ENCODING 345
SWIDTH 432 0
DWIDTH 12 0
BBX 11 21 2 0
BITMAP
E1E0
73C0
7F80
3F00
0000
0000
E3C0
F7C0
FFC0
FF40
F800
F800
F000
F000
F000
F000
F000
F000
F000
F000
F000
ENDCHAR
STARTCHAR 015A
ENCODING 346
SWIDTH 540 0
DWIDTH 15 0
BBX 13 26 1 0
BITMAP
01F0
01E0
03C0
0700
0E00
0000
0FE0
3FF8
7FF8
7CF0
7800
F800
7800
7C00
7F00
3FC0
1FF0
07F0
01F8
0078
0078
8078
F0F8
FFF0
FFF0
7FC0
ENDCHAR
STARTCHAR 015B
ENCODING 347
SWIDTH 468 0
DWIDTH 13 0
BBX 12 21 1 0
BITMAP
03E0
07C0
0F00
0E00
0000
0000
3FE0
7FE0
FFE0
F000
F800
FE00
7F80
3FE0
0FE0
03F0
00F0
C0F0
FFE0
FFE0
7F80
ENDCHAR
STARTCHAR 015C
ENCODING 348
SWIDTH 540 0
DWIDTH 15 0
BBX 13 26 1 0
BITMAP
0FC0
1FC0
1FE0
38F0
7038
0000
0FE0
3FF8
7FF8
7CF0
7800
F800
7800
7C00
7F00
3FC0
1FF0
07F0
01F8
0078
0078
8078
F0F8
FFF0
FFF0
7FC0
ENDCHAR
STARTCHAR 015D
ENCODING 349
SWIDTH 468 0
DWIDTH 13 0
BBX 12 21 1 0
BITMAP
1F80
3FC0
79E0
F0F0
0000
0000
3FE0
7FE0
FFE0
F000
F800
FE00
7F80
3FE0
0FE0
03F0
00F0
C0F0
FFE0
FFE0
7F80
ENDCHAR
STARTCHAR 015E
ENCODING 350
SWIDTH 540 0
DWIDTH 15 0
BBX 13 27 1 -7
BITMAP
0FE0
3FF8
7FF8
7CF0
7800
F800
7800
7C00
7F00
3FC0
1FF0
07F0
01F8
0078
0078
8078
F0F8
FFF0
FFF0
7FC0
0700
0F80
0380
03C0
1FC0
1F80
0E00
ENDCHAR
STARTCHAR 015F
ENCODING 351
SWIDTH 468 0
DWIDTH 13 0
BBX 12 22 1 -7
BITMAP
3FE0
7FE0
FFE0
F000
F800
FE00
7F80
3FE0
0FE0
03F0
00F0
C0F0
FFE0
FFE0
7F80
0E00
0F00
0780
0380
1F80
1F80
1E00
ENDCHAR
STARTCHAR 0160
ENCODING 352
SWIDTH 540 0
DWIDTH 15 0
BBX 13 26 1 0
BITMAP
7078
3CF0
1FE0
0FC0
0780
0000
0FE0
3FF8
7FF8
7CF0
7800
F800
7800
7C00
7F00
3FC0
1FF0
07F0
01F8
0078
0078
8078
F0F8
FFF0
FFF0
7FC0
ENDCHAR
STARTCHAR 0161
ENCODING 353
SWIDTH 468 0
DWIDTH 13 0
BBX 12 21 1 0
BITMAP
F0E0
79E0
3FC0
1F80
0000
0000
3FE0
7FE0
FFE0
F000
F800
FE00
7F80
3FE0
0FE0
03F0
00F0
C0F0
FFE0
FFE0
7F80
ENDCHAR
STARTCHAR 0162
ENCODING 354
SWIDTH 576 0
DWIDTH 16 0
BBX 15 27 1 -7
BITMAP
FFFE
FFFE
FFFE
FFFE
0780
0780
0780
0780
0780
0780
0780
0780
0780
0780
0780
0780
0780
0780
0780
0780
0300
0780
03C0
01C0
0FC0
0FC0
0700
ENDCHAR
STARTCHAR 0163
ENCODING 355
SWIDTH 432 0
DWIDTH 12 0
BBX 10 25 1 -7
BITMAP
1C00
3C00
3C00
7FC0
FFC0
FFC0
3C00
3C00
3C00
3C00
3C00
3C00
3C00
3C00
3C00
3FC0
3FC0
1FC0
0E00
0F00
0780
0380
1F80
1F00
1C00
ENDCHAR
STARTCHAR 0164
ENCODING 356
SWIDTH 576 0
DWIDTH 16 0
BBX 15 26 1 0
BITMAP
7838
3CF0
1FE0
0FC0
07C0
0000
FFFE
FFFE
FFFE
FFFE
0780
0780
0780
0780
0780
0780
0780
0780
0780
0780
0780
0780
0780
0780
0780
0780
ENDCHAR
STARTCHAR 0165
ENCODING 357
SWIDTH 432 0
DWIDTH 12 0
BBX 15 21 1 0
BITMAP
001E
001C
001C
1C38
3C00
3C00
7FC0
FFC0
FFC0
3C00
3C00
3C00
3C00
3C00
3C00
3C00
3C00
3C00
3FC0
3FC0
1FC0
ENDCHAR
STARTCHAR 0166
ENCODING 358
SWIDTH 576 0
DWIDTH 16 0
BBX 15 20 1 0
BITMAP
FFFE
FFFE
FFFE
FFFE
0780
0780
0780
0780
3FF8
3FF8
3FF8
3FF8
0780
0780
0780
0780
0780
0780
0780
0780
ENDCHAR
STARTCHAR 0167
ENCODING 359
SWIDTH 432 0
DWIDTH 12 0
BBX 10 18 1 0
BITMAP
1C00
3C00
3C00
7FC0
FFC0
FFC0
3C00
3C00
3C00
FFC0
FFC0
3C00
3C00
3C00
3C00
3FC0
3FC0
1FC0
ENDCHAR
STARTCHAR 0168
ENCODING 360
SWIDTH 756 0
DWIDTH 21 0
BBX 17 26 2 0
BITMAP
030C00
0FDC00
1FFC00
18F800
180000
000000
F80F80
F80F80
F80F80
F80F80
F80F80
F80F80
F80F80
F80F80
F80F80
F80F80
F80F80
F80F80
F80F80
F80F80
F80F80
780F00
7E3F00
3FFE00
1FFC00
0FF800
ENDCHAR
STARTCHAR 0169
ENCODING 361
SWIDTH 648 0
DWIDTH 18 0
BBX 14 21 2 0
BITMAP
1E18
3FF0
3FF0
31E0
0000
0000
F03C
F03C
F03C
F03C
F03C
F03C
F03C
F03C
F03C
F03C
F07C
F8FC
7FFC
7FFC
3F9C
ENDCHAR
STARTCHAR 016A
ENCODING 362
SWIDTH 756 0
DWIDTH 21 0
BBX 17 24 2 0
BITMAP
0FF800
0FF800
0FF800
000000
F80F80
F80F80
F80F80
F80F80
F80F80
F80F80
F80F80
F80F80
F80F80
F80F80
F80F80
F80F80
F80F80
F80F80
F80F80
780F00
7E3F00
3FFE00
1FFC00
0FF800
ENDCHAR
STARTCHAR 016B
ENCODING 363
SWIDTH 648 0
DWIDTH 18 0
BBX 14 20 2 0
BITMAP
1FF0
1FF0
1FF0
0000
0000
F03C
F03C
F03C
F03C
F03C
F03C
F03C
F03C
F03C
F03C
F07C
F8FC
7FFC
7FFC
3F9C
ENDCHAR
STARTCHAR 016C
ENCODING 364
SWIDTH 756 0
DWIDTH 21 0
BBX 17 26 2 0
BITMAP
1C1C00
0E3C00
0FF800
07F000
008000
000000
F80F80
F80F80
F80F80
F80F80
F80F80
F80F80
F80F80
F80F80
F80F80
F80F80
F80F80
F80F80
F80F80
F80F80
F80F80
780F00
7E3F00
3FFE00
1FFC00
0FF800
ENDCHAR
STARTCHAR 016D
ENCODING 365
SWIDTH 648 0
DWIDTH 18 0
BBX 14 21 2 0
BITMAP
3830
3FF0
1FE0
0FC0
0000
0000
F03C
F03C
F03C
F03C
F03C
F03C
F03C
F03C
F03C
F03C
F07C
F8FC
7FFC
7FFC
3F9C
ENDCHAR
STARTCHAR 016E
ENCODING 366
SWIDTH 756 0
DWIDTH 21 0
BBX 17 28 2 0
BITMAP
01C000
03E000
063000
063000
077000
03E000
008000
000000
F80F80
F80F80
F80F80
F80F80
F80F80
F80F80
F80F80
F80F80
F80F80
F80F80
F80F80
F80F80
F80F80
F80F80
F80F80
780F00
7E3F00
3FFE00
1FFC00
0FF800
ENDCHAR
STARTCHAR 016F
ENCODING 367
SWIDTH 648 0
DWIDTH 18 0
BBX 14 23 2 0
BITMAP
0780
0FC0
0CE0
0CE0
0FC0
0780
0000
0000
F03C
F03C
F03C
F03C
F03C
F03C
F03C
F03C
F03C
F03C
F07C
F8FC
7FFC
7FFC
3F9C
ENDCHAR
STARTCHAR 0170
ENCODING 368
SWIDTH 756 0
DWIDTH 21 0
BBX 17 26 2 0
BITMAP
01EF80
03CF00
039E00
073800
063000
000000
F80F80
F80F80
F80F80
F80F80
F80F80
F80F80
F80F80
F80F80
F80F80
F80F80
F80F80
F80F80
F80F80
F80F80
F80F80
780F00
7E3F00
3FFE00
1FFC00
0FF800
ENDCHAR
STARTCHAR 0171
ENCODING 369
SWIDTH 648 0
DWIDTH 18 0
BBX 15 21 2 0
BITMAP
07DE
07BC
0E78
1C70
0000
0000
F03C
F03C
F03C
F03C
F03C
F03C
F03C
F03C
F03C
F03C
F07C
F8FC
7FFC
7FFC
3F9C
ENDCHAR
STARTCHAR 0172
ENCODING 370
SWIDTH 756 0
DWIDTH 21 0
BBX 17 27 2 -7
BITMAP
F80F80
F80F80
F80F80
F80F80
F80F80
F80F80
F80F80
F80F80
F80F80
F80F80
F80F80
F80F80
F80F80
F80F80
F80F80
780F00
7E3F00
3FFE00
1FFC00
0FF800
003000
007000
006000
007000
007C00
007C00
001C00
ENDCHAR
STARTCHAR 0173
ENCODING 371
SWIDTH 648 0
DWIDTH 18 0
BBX 14 22 2 -7
BITMAP
F03C
F03C
F03C
F03C
F03C
F03C
F03C
F03C
F03C
F03C
F07C
F8FC
7FFC
7FFC
3F9C
0038
0070
00E0
00E0
00FC
007C
0018
ENDCHAR
STARTCHAR 0174
ENCODING 372
SWIDTH 936 0
DWIDTH 26 0
BBX 27 26 0 0
BITMAP
001F0000
003F8000
007BC000
00F1E000
00C06000
00000000
F01F01E0
F01F03E0
781F03C0
781F03C0
783F83C0
783F87C0
3C3B8780
3C3B8780
3C7BC780
3C7BC780
1E71CF00
1EF1CF00
1EF1EF00
1EF1EE00
0EE0FE00
0FE0FE00
0FE0FE00
0FC0FC00
07C07C00
07C07C00
ENDCHAR
STARTCHAR 0175
ENCODING 373
SWIDTH 828 0
DWIDTH 23 0
BBX 23 21 0 0
BITMAP
007E00
00FF00
01E780
03C3C0
000000
000000
F87C1E
787E1E
787E1E
787E3C
3CEE3C
3CEF3C
3CE73C
3CE778
1FE778
1FC778
1FC3F0
0FC3F0
0FC3F0
0F83F0
0F81E0
ENDCHAR
STARTCHAR 0176
ENCODING 374
SWIDTH 612 0
DWIDTH 17 0
BBX 17 26 0 0
BITMAP
03E000
07F000
0F7800
1E3C00
1C0E00
000000
F80780
780F80
7C0F00
3C1F00
3E1E00
1E3C00
1F3C00
0F7800
0FF800
07F000
03F000
03E000
01E000
01E000
01E000
01E000
01E000
01E000
01E000
01E000
ENDCHAR
STARTCHAR 0177
ENCODING 375
SWIDTH 540 0
DWIDTH 15 0
BBX 16 28 0 -7
BITMAP
07E0
0FF0
1E78
3C3C
0000
0000
F81F
781E
783E
7C3C
3C3C
3C7C
1E78
1E78
1E78
0FF0
0FF0
07E0
07E0
07E0
03C0
03C0
07C0
0780
7F80
7F00
7E00
7800
ENDCHAR
STARTCHAR 0178
ENCODING 376
SWIDTH 612 0
DWIDTH 17 0
BBX 17 26 0 0
BITMAP
001000
0F3800
0F7800
0E3800
000000
000000
F80780
780F80
7C0F00
3C1F00
3E1E00
1E3C00
1F3C00
0F7800
0FF800
07F000
03F000
03E000
01E000
01E000
01E000
01E000
01E000
01E000
01E000
01E000
ENDCHAR
STARTCHAR 0179
ENCODING 377
SWIDTH 576 0
DWIDTH 16 0
BBX 14 26 1 0
BITMAP
00F0
01E0
03C0
0780
0600
0000
FFFC
FFFC
FFFC
FFFC
0078
00F0
01F0
03E0
03C0
07C0
0F80
0F00
1E00
3E00
3C00
7800
F800
FFFC
FFFC
FFFC
ENDCHAR
STARTCHAR 017A
ENCODING 378
SWIDTH 468 0
DWIDTH 13 0
BBX 12 21 1 0
BITMAP
03E0
0780
0F00
1E00
0000
0000
FFE0
FFE0
FFE0
03E0
03C0
0780
0F80
1F00
1E00
3C00
7C00
7800
FFF0
FFF0
FFF0
ENDCHAR
STARTCHAR 017B
ENCODING 379
SWIDTH 576 0
DWIDTH 16 0
BBX 14 26 1 0
BITMAP
0300
0780
0780
0780
0000
0000
FFFC
FFFC
FFFC
FFFC
0078
00F0
01F0
03E0
03C0
07C0
0F80
0F00
1E00
3E00
3C00
7800
F800
FFFC
FFFC
FFFC
ENDCHAR
STARTCHAR 017C
ENCODING 380
SWIDTH 468 0
DWIDTH 13 0
BBX 12 21 1 0
BITMAP
0F00
0F00
0F00
0E00
0000
0000
FFE0
FFE0
FFE0
03E0
03C0
0780
0F80
1F00
1E00
3C00
7C00
7800
FFF0
FFF0
FFF0
ENDCHAR
STARTCHAR 017D
ENCODING 381
SWIDTH 576 0
DWIDTH 16 0
BBX 14 26 1 0
BITMAP
7838
3CF0
1FE0
0FC0
07C0
0000
FFFC
FFFC
FFFC
FFFC
0078
00F0
01F0
03E0
03C0
07C0
0F80
0F00
1E00
3E00
3C00
7800
F800
FFFC
FFFC
FFFC
ENDCHAR
STARTCHAR 017E
ENCODING 382
SWIDTH 468 0
DWIDTH 13 0
BBX 12 21 1 0
BITMAP
F0E0
7BC0
3FC0
1F80
0000
0000
FFE0
FFE0
FFE0
03E0
03C0
0780
0F80
1F00
1E00
3C00
7C00
7800
FFF0
FFF0
FFF0
ENDCHAR
STARTCHAR 017F
ENCODING 383
SWIDTH 360 0
DWIDTH 10 0
BBX 9 21 2 0
BITMAP
3F80
7F80
FF80
F800
F000
F000
F000
F000
F000
F000
F000
F000
F000
F000
F000
F000
F000
F000
F000
F000
F000
ENDCHAR
STARTCHAR 0192
ENCODING 402
SWIDTH 540 0
DWIDTH 15 0
BBX 12 27 3 -7
BITMAP
07F0
0FE0
1FE0
1F20
1E00
1E00
3FC0
7FC0
7FC0
1E00
1E00
1E00
1E00
1E00
1E00
1E00
1E00
1E00
1E00
1E00
1E00
1E00
1E00
FE00
FC00
FC00
7000
ENDCHAR
STARTCHAR 01A0
ENCODING 416
SWIDTH 792 0
DWIDTH 22 0
BBX 22 21 2 0
BITMAP
00007C
07F878
1FFE78
3FFFF8
7F3FF0
7C0FE0
F807C0
F803C0
F003C0
F003C0
F003C0
F003C0
F003C0
F003C0
F003C0
F807C0
7C0F80
7E1F80
3FFF00
1FFE00
07F800
ENDCHAR
STARTCHAR 01A1
ENCODING 417
SWIDTH 648 0
DWIDTH 18 0
BBX 19 17 1 0
BITMAP
0001E0
0001E0
0FF3C0
3FFFC0
7FFF80
7C3E00
783E00
F81E00
F81E00
F01E00
F81E00
F83E00
783E00
7C7C00
3FFC00
1FF800
0FE000
ENDCHAR
STARTCHAR 01AF
ENCODING 431
SWIDTH 864 0
DWIDTH 24 0
BBX 23 21 2 0
BITMAP
00001E
F80FBE
F80FBC
F80FFC
F80FF8
F80FE0
F80F80
F80F80
F80F80
F80F80
F80F80
F80F80
F80F80
F80F80
F80F80
F80F80
780F00
7E3F00
3FFE00
1FFC00
0FF800
ENDCHAR
STARTCHAR 01B0
ENCODING 432
SWIDTH 756 0
DWIDTH 21 0
BBX 20 17 2 0
BITMAP
0000F0
0000F0
F03DF0
F03FE0
F03FC0
F03F00
F03C00
F03C00
F03C00
F03C00
F03C00
F03C00
F07C00
F8FC00
7FFC00
7FFC00
3F9C00
ENDCHAR
STARTCHAR 01EA
ENCODING 490
SWIDTH 792 0
DWIDTH 22 0
BBX 18 27 2 -7
BITMAP
07F800
1FFE00
3FFF00
7F3F80
7C0F80
F807C0
F803C0
F003C0
F003C0
F003C0
F003C0
F003C0
F003C0
F003C0
F807C0
7C0F80
7E1F80
3FFF00
1FFE00
07F800
00E000
01C000
018000
038000
03F000
01F000
00E000
ENDCHAR
STARTCHAR 01EB
ENCODING 491
SWIDTH 612 0
DWIDTH 17 0
BBX 15 22 1 -7
BITMAP
0FF0
3FF8
7FFC
7C3C
783E
F81E
F81E
F01E
F81E
F83E
783E
7C7C
3FFC
1FF8
0FE0
0380
0700
0700
0700
07C0
07C0
01C0
ENDCHAR
STARTCHAR 01EC
ENCODING 492
SWIDTH 792 0
DWIDTH 22 0
BBX 18 31 2 -7
BITMAP
0FFC00
0FFC00
0FFC00
000000
07F800
1FFE00
3FFF00
7F3F80
7C0F80
F807C0
F803C0
F003C0
F003C0
F003C0
F003C0
F003C0
F003C0
F003C0
F807C0
7C0F80
7E1F80
3FFF00
1FFE00
07F800
00E000
01C000
018000
038000
03F000
01F000
00E000
ENDCHAR
STARTCHAR 01ED
ENCODING 493
SWIDTH 612 0
DWIDTH 17 0
BBX 15 27 1 -7
BITMAP
1FF0
1FF0
1FF0
0000
0000
0FF0
3FF8
7FFC
7C3C
783E
F81E
F81E
F01E
F81E
F83E
783E
7C7C
3FFC
1FF8
0FE0
0380
0700
0700
0700
07C0
07C0
01C0
ENDCHAR
STARTCHAR 01F0
ENCODING 496
SWIDTH 288 0
DWIDTH 8 0
BBX 12 28 -2 -7
BITMAP
70F0
3DE0
1FC0
1F80
0000
0000
0F00
0F00
0F00
0F00
0F00
0F00
0F00
0F00
0F00
0F00
0F00
0F00
0F00
0F00
0F00
0F00
0F00
0F00
FF00
FF00
FE00
7800
ENDCHAR
STARTCHAR 01FA
ENCODING 506
SWIDTH 684 0
DWIDTH 19 0
BBX 19 27 0 0
BITMAP
003E00
007C00
00F000
000000
00F000
01F800
031800
031800
03F800
01F000
03F800
03B800
07BC00
07BC00
071C00
0F1E00
0F1E00
0E0F00
1E0F00
1FFF00
3FFF80
3FFF80
3FFF80
7C03C0
7803C0
7803E0
F803E0
ENDCHAR
STARTCHAR 01FB
ENCODING 507
SWIDTH 576 0
DWIDTH 16 0
BBX 14 27 1 0
BITMAP
00F0
01E0
0380
0000
0300
07C0
0EE0
0C60
0EE0
07C0
0380
0000
3FF0
3FF8
3FF8
007C
003C
003C
1FFC
7FFC
7C3C
F83C
F07C
F87C
FFFC
7FBC
3F1C
ENDCHAR
STARTCHAR 01FC
ENCODING 508
SWIDTH 936 0
DWIDTH 26 0
BBX 25 26 0 0
BITMAP
0003E000
0003C000
00078000
000F0000
000C0000
00000000
007FFF80
00FFFF80
00FFFF80
01FFFF80
01E78000
03E78000
03C78000
03C78000
0787FF00
0787FF00
0F07FF00
0F078000
1FFF8000
1FFF8000
3FFF8000
3C078000
3C078000
7807FF80
7807FF80
F007FF80
ENDCHAR
STARTCHAR 01FD
ENCODING 509
SWIDTH 900 0
DWIDTH 25 0
BBX 23 21 1 0
BITMAP
000F80
001F00
001C00
003800
000000
000000
3FE7F0
3FFFFC
3FFFFC
007C1E
007C1E
007C1E
1FFFFE
7FFFFE
7C7800
F87C00
F07C00
F8FE04
FFFFFC
7FCFFC
3F87FC
ENDCHAR
STARTCHAR 01FE
ENCODING 510
SWIDTH 792 0
DWIDTH 22 0
BBX 18 27 2 -1
BITMAP
003C00
007800
00F000
01E000
018000
000100
07FB80
1FFF00
3FFF00
7F3F80
7C1F80
F81FC0
F83BC0
F073C0
F073C0
F0E3C0
F1C3C0
F1C3C0
F383C0
F703C0
FF07C0
7E0F80
7E1F80
3FFF00
3FFE00
77F800
300000
ENDCHAR
STARTCHAR 01FF
ENCODING 511
SWIDTH 612 0
DWIDTH 17 0
BBX 15 22 1 -1
BITMAP
00F0
01E0
03C0
0780
0000
0010
0FFC
3FF8
7FFC
7C7C
78FE
F9FE
F9DE
F39E
FF9E
FF3E
7E3E
7E7C
3FFC
3FF8
7FE0
1000
ENDCHAR
STARTCHAR 0218
ENCODING 536
SWIDTH 540 0
DWIDTH 15 0
BBX 13 26 1 -6
BITMAP
0FE0
3FF8
7FF8
7CF0
7800
F800
7800
7C00
7F00
3FC0
1FF0
07F0
01F8
0078
0078
8078
F0F8
FFF0
FFF0
7FC0
0000
0000
0780
0700
0F00
0E00
ENDCHAR
STARTCHAR 0219
ENCODING 537
SWIDTH 468 0
DWIDTH 13 0
BBX 12 21 1 -6
BITMAP
3FE0
7FE0
FFE0
F000
F800
FE00
7F80
3FE0
0FE0
03F0
00F0
C0F0
FFE0
FFE0
7F80
0000
0000
0F00
0F00
0E00
0C00
ENDCHAR
STARTCHAR 021A
ENCODING 538
SWIDTH 576 0
DWIDTH 16 0
BBX 15 26 1 -6
BITMAP
FFFE
FFFE
FFFE
FFFE
0780
0780
0780
0780
0780
0780
0780
0780
0780
0780
0780
0780
0780
0780
0780
0780
0000
0000
0780
0780
0700
0700
ENDCHAR
STARTCHAR 021B
ENCODING 539
SWIDTH 432 0
DWIDTH 12 0
BBX 10 24 1 -6
BITMAP
1C00
3C00
3C00
7FC0
FFC0
FFC0
3C00
3C00
3C00
3C00
3C00
3C00
3C00
3C00
3C00
3FC0
3FC0
1FC0
0000
0000
0F00
0E00
0E00
1C00
ENDCHAR
STARTCHAR 0237
ENCODING 567
SWIDTH 288 0
DWIDTH 8 0
BBX 8 22 -2 -7
BITMAP
0F
0F
0F
0F
0F
0F
0F
0F
0F
0F
0F
0F
0F
0F
0F
0F
0F
0F
FF
FF
FE
78
ENDCHAR
STARTCHAR 0259
ENCODING 601
SWIDTH 576 0
DWIDTH 16 0
BBX 14 15 1 0
BITMAP
7FE0
7FF0
7FF8
4078
003C
003C
FFFC
FFFC
FFFC
F03C
F03C
7878
7FF8
3FF0
1FE0
ENDCHAR
STARTCHAR 02BC
ENCODING 700
SWIDTH 216 0
DWIDTH 6 0
BBX 6 7 0 13
BITMAP
3C
78
78
78
70
70
F0
ENDCHAR
STARTCHAR 02C6
ENCODING 710
SWIDTH 504 0
DWIDTH 14 0
BBX 12 4 1 17
BITMAP
1F80
3FC0
79E0
F0F0
ENDCHAR
STARTCHAR 02C7
ENCODING 711
SWIDTH 504 0
DWIDTH 14 0
BBX 11 4 1 17
BITMAP
F0E0
79E0
3FC0
1F80
ENDCHAR
STARTCHAR 02C9
ENCODING 713
SWIDTH 396 0
DWIDTH 11 0
BBX 9 3 1 17
BITMAP
FF80
FF80
FF80
ENDCHAR
STARTCHAR 02D8
ENCODING 728
SWIDTH 432 0
DWIDTH 12 0
BBX 11 4 1 17
BITMAP
E0E0
7FC0
7FC0
3F00
ENDCHAR
STARTCHAR 02D9
ENCODING 729
SWIDTH 216 0
DWIDTH 6 0
BBX 5 4 1 17
BITMAP
70
F8
F8
70
ENDCHAR
STARTCHAR 02DA
ENCODING 730
SWIDTH 324 0
DWIDTH 9 0
BBX 7 6 1 17
BITMAP
7C
FE
C6
C6
FE
7C
ENDCHAR
STARTCHAR 02DB
ENCODING 731
SWIDTH 252 0
DWIDTH 7 0
BBX 6 7 1 -7
BITMAP
30
70
E0
E0
FC
7C
38
ENDCHAR
STARTCHAR 02DC
ENCODING 732
SWIDTH 468 0
DWIDTH 13 0
BBX 11 4 1 17
BITMAP
3C60
7FE0
FFE0
C3C0
ENDCHAR
STARTCHAR 02DD
ENCODING 733
SWIDTH 504 0
DWIDTH 14 0
BBX 12 4 1 17
BITMAP
3CF0
39E0
73C0
E380
ENDCHAR
STARTCHAR 02F3
ENCODING 755
SWIDTH 324 0
DWIDTH 9 0
BBX 7 6 1 -8
BITMAP
7C
FE
C6
C6
7E
7C
ENDCHAR
STARTCHAR 0300
ENCODING 768
SWIDTH 0 0
DWIDTH 0 0
BBX 7 4 -14 17
BITMAP
F0
78
3C
1E
ENDCHAR
STARTCHAR 0301
ENCODING 769
SWIDTH 0 0
DWIDTH 0 0
BBX 7 4 -9 17
BITMAP
1E
3C
78
E0
ENDCHAR
STARTCHAR 0302
ENCODING 770
SWIDTH 0 0
DWIDTH 0 0
BBX 12 4 -6 17
BITMAP
1F80
3FC0
79E0
F0F0
ENDCHAR
STARTCHAR 0303
ENCODING 771
SWIDTH 0 0
DWIDTH 0 0
BBX 11 4 -14 17
BITMAP
3860
FFE0
FFC0
C780
ENDCHAR
STARTCHAR 0304
ENCODING 772
SWIDTH 0 0
DWIDTH 0 0
BBX 10 3 -5 17
BITMAP
FFC0
FFC0
FFC0
ENDCHAR
STARTCHAR 0306
ENCODING 774
SWIDTH 0 0
DWIDTH 0 0
BBX 10 4 -5 17
BITMAP
C0C0
FFC0
7F80
3F00
ENDCHAR
STARTCHAR 0307
ENCODING 775
SWIDTH 0 0
DWIDTH 0 0
BBX 4 4 -2 17
BITMAP
F0
F0
F0
F0
ENDCHAR
STARTCHAR 0308
ENCODING 776
SWIDTH 0 0
DWIDTH 0 0
BBX 10 4 -5 17
BITMAP
6180
F3C0
F3C0
2100
ENDCHAR
STARTCHAR 0309
ENCODING 777
SWIDTH 0 0
DWIDTH 0 0
BBX 6 6 -11 17
BITMAP
F8
FC
1C
1C
7C
70
ENDCHAR
STARTCHAR 030A
ENCODING 778
SWIDTH 0 0
DWIDTH 0 0
BBX 6 6 -3 17
BITMAP
78
FC
CC
CC
FC
78
ENDCHAR
STARTCHAR 030B
ENCODING 779
SWIDTH 0 0
DWIDTH 0 0
BBX 12 4 -4 17
BITMAP
3DF0
79E0
7380
E700
ENDCHAR
STARTCHAR 030C
ENCODING 780
SWIDTH 0 0
DWIDTH 0 0
BBX 11 4 -5 17
BITMAP
E1E0
F3C0
7F80
3F00
ENDCHAR
STARTCHAR 030F
ENCODING 783
SWIDTH 0 0
DWIDTH 0 0
BBX 12 4 -16 17
BITMAP
FBC0
79C0
3CE0
0C70
ENDCHAR
STARTCHAR 0312
ENCODING 786
SWIDTH 0 0
DWIDTH 0 0
BBX 6 7 -3 13
BITMAP
1C
38
38
78
78
78
F0
ENDCHAR
STARTCHAR 0323
ENCODING 803
SWIDTH 0 0
DWIDTH 0 0
BBX 5 4 -11 -6
BITMAP
F0
F8
F0
70
ENDCHAR
STARTCHAR 0326
ENCODING 806
SWIDTH 0 0
DWIDTH 0 0
BBX 4 4 -2 -6
BITMAP
F0
F0
E0
C0
ENDCHAR
STARTCHAR 0327
ENCODING 807
SWIDTH 0 0
DWIDTH 0 0
BBX 6 7 -3 -7
BITMAP
70
78
3C
1C
FC
F8
E0
ENDCHAR
STARTCHAR 0328
ENCODING 808
SWIDTH 0 0
DWIDTH 0 0
BBX 6 7 -3 -7
BITMAP
38
70
E0
E0
FC
7C
18
ENDCHAR
STARTCHAR 0384
ENCODING 900
SWIDTH 576 0
DWIDTH 16 0
BBX 4 5 7 17
BITMAP
70
F0
E0
E0
C0
ENDCHAR
STARTCHAR 0385
ENCODING 901
SWIDTH 576 0
DWIDTH 16 0
BBX 11 6 3 17
BITMAP
0700
0E00
EEC0
EDE0
E1E0
E0C0
ENDCHAR
STARTCHAR 0386
ENCODING 902
SWIDTH 684 0
DWIDTH 19 0
BBX 20 21 0 0
BITMAP
780000
79F800
71F800
71FC00
E3FC00
03DC00
03DE00
079E00
079E00
078F00
0F0F00
0F0F00
0F0780
1FFF80
1FFF80
3FFFC0
3C03C0
3C03C0
7C03E0
7C01E0
7801F0
ENDCHAR
STARTCHAR 0387
ENCODING 903
SWIDTH 252 0
DWIDTH 7 0
BBX 4 4 2 11
BITMAP
F0
F0
F0
F0
ENDCHAR
STARTCHAR 0388
ENCODING 904
SWIDTH 648 0
DWIDTH 18 0
BBX 17 21 0 0
BITMAP
780000
7BFF80
73FF80
F3FF80
E3FF80
03C000
03C000
03C000
03C000
03FF80
03FF80
03FF80
03C000
03C000
03C000
03C000
03C000
03C000
03FF80
03FF80
03FF80
ENDCHAR
STARTCHAR 0389
ENCODING 905
SWIDTH 864 0
DWIDTH 24 0
BBX 22 21 0 0
BITMAP
780000
7BC03C
73C03C
F3C03C
E3C03C
03C03C
03C03C
03C03C
03C03C
03FFFC
03FFFC
03FFFC
03C03C
03C03C
03C03C
03C03C
03C03C
03C03C
03C03C
03C03C
03C03C
ENDCHAR
STARTCHAR 038A
ENCODING 906
SWIDTH 432 0
DWIDTH 12 0
BBX 10 21 0 0
BITMAP
7800
7BC0
73C0
F3C0
E3C0
03C0
03C0
03C0
03C0
03C0
03C0
03C0
03C0
03C0
03C0
03C0
03C0
03C0
03C0
03C0
03C0
ENDCHAR
STARTCHAR 038C
ENCODING 908
SWIDTH 828 0
DWIDTH 23 0
BBX 22 21 0 0
BITMAP
780000
787F80
71FFE0
F3FFF0
E7F7F8
0FC0F8
0F807C
0F007C
1F003C
1F003C
1F003C
1F003C
1F003C
1F003C
0F007C
0F807C
0F80F8
07E3F8
03FFF0
01FFE0
00FF80
ENDCHAR
STARTCHAR 038E
ENCODING 910
SWIDTH 792 0
DWIDTH 22 0
BBX 22 21 0 0
BITMAP
780000
7FC03C
73C07C
F3E078
E1E0F8
00F0F0
00F1F0
0079E0
007BE0
003FC0
003FC0
001F80
001F00
000F00
000F00
000F00
000F00
000F00
000F00
000F00
000F00
ENDCHAR
STARTCHAR 038F
ENCODING 911
SWIDTH 864 0
DWIDTH 24 0
BBX 23 21 0 0
BITMAP
780000
787F80
71FFE0
F3FFF0
E7F3F8
0FC0FC
0F807C
0F003C
0F003E
0F003E
0F003C
0F003C
0F003C
07003C
078078
03C070
01E0F0
1FF1FE
1FF1FE
1FF1FE
1FF1FE
ENDCHAR
STARTCHAR 0390
ENCODING 912
SWIDTH 396 0
DWIDTH 11 0
BBX 12 23 -1 0
BITMAP
0700
0700
66E0
FEE0
F0E0
6040
0000
0000
1E00
1E00
1E00
1E00
1E00
1E00
1E00
1E00
1E00
1E00
1E00
1F00
1FF0
0FF0
07F0
ENDCHAR
STARTCHAR 0391
ENCODING 913
SWIDTH 684 0
DWIDTH 19 0
BBX 19 20 0 0
BITMAP
01F000
03F800
03F800
03F800
07BC00
07BC00
079C00
0F1E00
0F1E00
0F1E00
1E0F00
1E0F00
1FFF80
3FFF80
3FFF80
3C07C0
7C03C0
7803C0
7803E0
F803E0
ENDCHAR
STARTCHAR 0392
ENCODING 914
SWIDTH 648 0
DWIDTH 18 0
BBX 15 20 2 0
BITMAP
FFC0
FFF8
FFFC
FFFC
F83E
F83E
F83E
F83C
FFFC
FFF0
FFFC
F8FE
F83E
F81E
F81E
F83E
F8FE
FFFC
FFF8
FFE0
ENDCHAR
STARTCHAR 0393
ENCODING 915
SWIDTH 540 0
DWIDTH 15 0
BBX 13 20 2 0
BITMAP
FFF8
FFF8
FFF8
FFF8
F800
F800
F800
F800
F800
F800
F800
F800
F800
F800
F800
F800
F800
F800
F800
F800
ENDCHAR
STARTCHAR 0394
ENCODING 916
SWIDTH 648 0
DWIDTH 18 0
BBX 17 20 1 0
BITMAP
03E000
07E000
07E000
07F000
0FF000
0F7000
0E7800
1E7800
1E3800
1C3C00
3C3C00
3C1C00
381E00
781E00
780E00
F00F00
FFFF00
FFFF00
FFFF80
FFFF80
ENDCHAR
STARTCHAR 0395
ENCODING 917
SWIDTH 540 0
DWIDTH 15 0
BBX 12 20 2 0
BITMAP
FFF0
FFF0
FFF0
FFF0
F800
F800
F800
F800
FFE0
FFE0
FFE0
F800
F800
F800
F800
F800
F800
FFF0
FFF0
FFF0
ENDCHAR
STARTCHAR 0396
ENCODING 918
SWIDTH 576 0
DWIDTH 16 0
BBX 14 20 1 0
BITMAP
FFFC
FFFC
FFFC
FFFC
0078
00F0
01F0
03E0
03C0
07C0
0F80
0F00
1E00
3E00
3C00
7800
F800
FFFC
FFFC
FFFC
ENDCHAR
STARTCHAR 0397
ENCODING 919
SWIDTH 756 0
DWIDTH 21 0
BBX 17 20 2 0
BITMAP
F80780
F80780
F80780
F80780
F80780
F80780
F80780
F80780
FFFF80
FFFF80
FFFF80
F80780
F80780
F80780
F80780
F80780
F80780
F80780
F80780
F80780
ENDCHAR
STARTCHAR 0398
ENCODING 920
SWIDTH 792 0
DWIDTH 22 0
BBX 18 20 2 0
BITMAP
07F800
1FFE00
3FFF00
7F3F80
7C0F80
F807C0
F803C0
F003C0
F3FBC0
F3FBC0
F3FBC0
F3FBC0
F003C0
F003C0
F807C0
7C0F80
7E1F80
3FFF00
1FFE00
07F800
ENDCHAR
STARTCHAR 0399
ENCODING 921
SWIDTH 324 0
DWIDTH 9 0
BBX 5 20 2 0
BITMAP
F8
F8
F8
F8
F8
F8
F8
F8
F8
F8
F8
F8
F8
F8
F8
F8
F8
F8
F8
F8
ENDCHAR
STARTCHAR 039A
ENCODING 922
SWIDTH 648 0
DWIDTH 18 0
BBX 16 20 2 0
BITMAP
F81F
F81E
F83E
F87C
F8F8
F9F0
F9E0
FBE0
FFC0
FFC0
FFC0
FFE0
F9F0
F8F0
F8F8
F87C
F87C
F83E
F81F
F81F
ENDCHAR
STARTCHAR 039B
ENCODING 923
SWIDTH 648 0
DWIDTH 18 0
BBX 18 20 0 0
BITMAP
01E000
03F000
03F000
03F000
07F800
07F800
073800
0F3C00
0F3C00
0F1C00
1E1E00
1E1E00
1E1F00
3C0F00
3C0F00
3C0F80
780780
780780
F807C0
F003C0
ENDCHAR
STARTCHAR 039C
ENCODING 924
SWIDTH 936 0
DWIDTH 26 0
BBX 22 20 2 0
BITMAP
FC00FC
FE00FC
FE01FC
FE01FC
FF01FC
FF03FC
F703BC
F703BC
F787BC
F3873C
F3873C
F3CF3C
F1CE3C
F1CE3C
F1FE3C
F0FC3C
F0FC3C
F0FC3C
F0F83C
F0783C
ENDCHAR
STARTCHAR 039D
ENCODING 925
SWIDTH 792 0
DWIDTH 22 0
BBX 18 20 2 0
BITMAP
FC03C0
FE03C0
FE03C0
FF03C0
FF03C0
FF83C0
F783C0
F3C3C0
F3E3C0
F1E3C0
F1F3C0
F0F3C0
F0FBC0
F07FC0
F03FC0
F03FC0
F01FC0
F01FC0
F00FC0
F00FC0
ENDCHAR
STARTCHAR 039E
ENCODING 926
SWIDTH 540 0
DWIDTH 15 0
BBX 14 20 1 0
BITMAP
7FF8
7FF8
7FF8
7FF8
0000
0000
0000
0000
3FF0
3FF0
3FF0
0000
0000
0000
0000
0000
0000
FFFC
FFFC
FFFC
ENDCHAR
STARTCHAR 039F
ENCODING 927
SWIDTH 792 0
DWIDTH 22 0
BBX 18 20 2 0
BITMAP
07F800
1FFE00
3FFF00
7F3F80
7C0F80
F807C0
F803C0
F003C0
F003C0
F003C0
F003C0
F003C0
F003C0
F003C0
F807C0
7C0F80
7E1F80
3FFF00
1FFE00
07F800
ENDCHAR
STARTCHAR 03A0
ENCODING 928
SWIDTH 720 0
DWIDTH 20 0
BBX 16 20 2 0
BITMAP
FFFF
FFFF
FFFF
FFFF
F80F
F80F
F80F
F80F
F80F
F80F
F80F
F80F
F80F
F80F
F80F
F80F
F80F
F80F
F80F
F80F
ENDCHAR
STARTCHAR 03A1
ENCODING 929
SWIDTH 612 0
DWIDTH 17 0
BBX 14 20 2 0
BITMAP
FFC0
FFF0
FFF8
FFFC
F87C
F83C
F83C
F83C
F87C
FFFC
FFF8
FFF0
FFC0
F800
F800
F800
F800
F800
F800
F800
ENDCHAR
STARTCHAR 03A3
ENCODING 931
SWIDTH 576 0
DWIDTH 16 0
BBX 15 20 1 0
BITMAP
FFFC
FFFC
FFFC
FFFC
7C00
3E00
1F00
0F80
07C0
03E0
03C0
0780
0F00
1E00
3C00
7800
F800
FFFE
FFFE
FFFE
ENDCHAR
STARTCHAR 03A4
ENCODING 932
SWIDTH 576 0
DWIDTH 16 0
BBX 15 20 1 0
BITMAP
FFFE
FFFE
FFFE
FFFE
0780
0780
0780
0780
0780
0780
0780
0780
0780
0780
0780
0780
0780
0780
0780
0780
ENDCHAR
STARTCHAR 03A5
ENCODING 933
SWIDTH 612 0
DWIDTH 17 0
BBX 17 20 0 0
BITMAP
F80780
780F80
7C0F00
3C1F00
3E1E00
1E3C00
1F3C00
0F7800
0FF800
07F000
03F000
03E000
01E000
01E000
01E000
01E000
01E000
01E000
01E000
01E000
ENDCHAR
STARTCHAR 03A6
ENCODING 934
SWIDTH 828 0
DWIDTH 23 0
BBX 22 20 1 0
BITMAP
007800
007800
01FC00
0FFFC0
3FFFF0
7FFFF0
7C78F8
787878
F0783C
F0783C
F0783C
F87878
787878
7E79F8
3FFFF0
1FFFE0
07FF80
007800
007800
007800
ENDCHAR
STARTCHAR 03A7
ENCODING 935
SWIDTH 648 0
DWIDTH 18 0
BBX 18 20 0 0
BITMAP
7807C0
7C0780
3C0F80
1E0F00
1F1E00
0F3E00
0FBC00
07F800
03F800
03F000
03F000
07F800
07F800
0FBC00
0F3E00
1E1F00
3E0F00
3C0F80
7807C0
F807C0
ENDCHAR
STARTCHAR 03A8
ENCODING 936
SWIDTH 864 0
DWIDTH 24 0
BBX 22 20 1 0
BITMAP
F0783C
F0783C
F0783C
F0783C
F0783C
F0783C
F0783C
F0783C
78783C
78787C
7F79F8
3FFFF8
1FFFF0
07FFC0
007800
007800
007800
007800
007800
007800
ENDCHAR
STARTCHAR 03A9
ENCODING 937
SWIDTH 756 0
DWIDTH 21 0
BBX 20 20 1 0
BITMAP
03FC00
0FFF00
1FFF80
3F9FC0
7E07E0
7C03E0
7801E0
F801E0
F801E0
7801E0
7801E0
7801E0
7801C0
3C03C0
1C0780
1E0F00
FF1FF0
FF1FF0
FF1FF0
FF1FF0
ENDCHAR
STARTCHAR 03AA
ENCODING 938
SWIDTH 324 0
DWIDTH 9 0
BBX 9 26 0 0
BITMAP
0100
F380
F780
E380
0000
0000
3E00
3E00
3E00
3E00
3E00
3E00
3E00
3E00
3E00
3E00
3E00
3E00
3E00
3E00
3E00
3E00
3E00
3E00
3E00
3E00
ENDCHAR
STARTCHAR 03AB
ENCODING 939
SWIDTH 612 0
DWIDTH 17 0
BBX 17 26 0 0
BITMAP
001000
0F3800
0F7800
0E3800
000000
000000
F80780
780F80
7C0F00
3C1F00
3E1E00
1E3C00
1F3C00
0F7800
0FF800
07F000
03F000
03E000
01E000
01E000
01E000
01E000
01E000
01E000
01E000
01E000
ENDCHAR
STARTCHAR 03AC
ENCODING 940
SWIDTH 612 0
DWIDTH 17 0
BBX 16 22 1 0
BITMAP
01E0
01E0
01C0
01C0
0380
0000
0000
1FCE
3FFE
7FFE
7C7E
783C
F83C
F81C
F01C
F03C
F83C
783C
7C7E
7FFF
3FDF
1F8F
ENDCHAR
STARTCHAR 03AD
ENCODING 941
SWIDTH 540 0
DWIDTH 15 0
BBX 13 22 1 0
BITMAP
01E0
01E0
01C0
01C0
0380
0000
0000
1FF8
7FF8
7FF8
7800
7800
7E00
3FC0
1FC0
7FC0
F000
F000
F808
FFF8
7FF8
1FF8
ENDCHAR
STARTCHAR 03AE
ENCODING 942
SWIDTH 648 0
DWIDTH 18 0
BBX 14 29 2 -7
BITMAP
01E0
01C0
01C0
0380
0380
0000
0000
F7F0
FFF8
FFFC
FC7C
F83C
F83C
F03C
F03C
F03C
F03C
F03C
F03C
F03C
F03C
F03C
003C
003C
003C
003C
003C
003C
003C
ENDCHAR
STARTCHAR 03AF
ENCODING 943
SWIDTH 396 0
DWIDTH 11 0
BBX 9 22 2 0
BITMAP
3C00
3800
3800
7000
7000
0000
0000
F000
F000
F000
F000
F000
F000
F000
F000
F000
F000
F000
F800
FF80
7F80
3F80
ENDCHAR
STARTCHAR 03B0
ENCODING 944
SWIDTH 612 0
DWIDTH 17 0
BBX 14 23 2 0
BITMAP
03C0
0380
33B0
3B70
3870
1020
0000
0000
F07C
F03C
F03C
F03C
F03C
F03C
F03C
F03C
F03C
F03C
F03C
F87C
7FF8
3FF0
1FE0
ENDCHAR
STARTCHAR 03B1
ENCODING 945
SWIDTH 612 0
DWIDTH 17 0
BBX 16 15 1 0
BITMAP
1FCE
3FFE
7FFE
7C7E
783C
F83C
F81C
F01C
F03C
F83C
783C
7C7E
7FFF
3FDF
1F8F
ENDCHAR
STARTCHAR 03B2
ENCODING 946
SWIDTH 648 0
DWIDTH 18 0
BBX 15 28 2 -7
BITMAP
0FE0
3FF8
7FFC
787C
F83C
F03C
F03C
F03C
F1F8
F1E0
F1F8
F1FC
F03E
F01E
F01E
F01E
F01E
F83E
FFFE
FFFC
F7F0
F000
F000
F000
F000
F000
F000
F000
ENDCHAR
STARTCHAR 03B3
ENCODING 947
SWIDTH 540 0
DWIDTH 15 0
BBX 16 22 0 -7
BITMAP
F81F
781E
781E
7C3C
3C3C
3C3C
1E78
1E78
1E78
0EF0
0FF0
07E0
07E0
07E0
03C0
03C0
07C0
0780
0780
0780
0F80
0F80
ENDCHAR
STARTCHAR 03B4
ENCODING 948
SWIDTH 612 0
DWIDTH 17 0
BBX 15 21 1 0
BITMAP
07F8
1FFE
1FFC
3E0C
3E00
1E00
1F80
0FE0
07F0
1FF8
3EFC
7C3C
783E
F81E
F81E
F83E
F83E
7C7C
7FFC
3FF8
0FE0
ENDCHAR
STARTCHAR 03B5
ENCODING 949
SWIDTH 540 0
DWIDTH 15 0
BBX 13 15 1 0
BITMAP
1FF8
7FF8
7FF8
7800
7800
7E00
3FC0
1FC0
7FC0
F000
F000
F808
FFF8
7FF8
1FF8
ENDCHAR
STARTCHAR 03B6
ENCODING 950
SWIDTH 468 0
DWIDTH 13 0
BBX 13 26 1 -5
BITMAP
7FF8
7FF8
7FF0
01E0
03C0
0780
0F00
1E00
3E00
3C00
7800
7800
F800
F800
F800
F800
F800
7C00
7FC0
1FF0
07F8
00F8
0078
00F0
00F0
01E0
ENDCHAR
STARTCHAR 03B7
ENCODING 951
SWIDTH 648 0
DWIDTH 18 0
BBX 14 22 2 -7
BITMAP
F7F0
FFF8
FFFC
FC7C
F83C
F83C
F03C
F03C
F03C
F03C
F03C
F03C
F03C
F03C
F03C
003C
003C
003C
003C
003C
003C
003C
ENDCHAR
STARTCHAR 03B8
ENCODING 952
SWIDTH 612 0
DWIDTH 17 0
BBX 15 21 1 0
BITMAP
0FE0
1FF0
3FF8
7C7C
783C
783C
783E
F81E
F81E
FFFE
FFFE
FFFE
F01E
F81E
783E
783C
783C
3C7C
3FF8
1FF0
0FE0
ENDCHAR
STARTCHAR 03B9
ENCODING 953
SWIDTH 396 0
DWIDTH 11 0
BBX 9 15 2 0
BITMAP
F000
F000
F000
F000
F000
F000
F000
F000
F000
F000
F000
F800
FF80
7F80
3F80
ENDCHAR
STARTCHAR 03BA
ENCODING 954
SWIDTH 612 0
DWIDTH 17 0
BBX 15 15 2 0
BITMAP
F03C
F078
F0F8
F1F0
F3E0
F3C0
F780
FF80
FFC0
FFE0
F1F0
F0F8
F078
F07C
F03E
ENDCHAR
STARTCHAR 03BB
ENCODING 955
SWIDTH 612 0
DWIDTH 17 0
BBX 17 21 0 0
BITMAP
3E0000
3F0000
3F8000
0F8000
03C000
03C000
03E000
03E000
03E000
07F000
07F000
0FF000
0F7800
1F7800
1E7C00
1E3C00
3C3C00
3C3E00
781F80
781F80
F80F80
ENDCHAR
STARTCHAR 03BC
ENCODING 956
SWIDTH 648 0
DWIDTH 18 0
BBX 14 22 2 -7
BITMAP
F03C
F03C
F03C
F03C
F03C
F03C
F03C
F03C
F03C
F03C
F87C
F87C
FFFC
FFDC
F79C
F000
F000
F000
F000
F000
F000
F000
ENDCHAR
STARTCHAR 03BD
ENCODING 957
SWIDTH 576 0
DWIDTH 16 0
BBX 15 15 0 0
BITMAP
F81E
781E
781E
7C1E
3C1E
3C1E
1E1E
1E3C
1E3C
0F7C
0F78
0FF0
07F0
07E0
03C0
ENDCHAR
STARTCHAR 03BE
ENCODING 958
SWIDTH 468 0
DWIDTH 13 0
BBX 13 26 1 -5
BITMAP
7FF0
7FF0
7FF0
1E00
3C00
7800
7800
7C00
3F00
1FE0
1FE0
3F80
7800
F800
F800
F800
F800
7C00
7FC0
3FF0
07F8
00F8
0078
00F0
00F0
01E0
ENDCHAR
STARTCHAR 03BF
ENCODING 959
SWIDTH 612 0
DWIDTH 17 0
BBX 15 15 1 0
BITMAP
0FF0
3FF8
7FFC
7C3C
783E
F81E
F81E
F01E
F81E
F83E
783E
7C7C
3FFC
1FF8
0FE0
ENDCHAR
STARTCHAR 03C0
ENCODING 960
SWIDTH 720 0
DWIDTH 20 0
BBX 20 15 0 0
BITMAP
3FFFF0
FFFFF0
FFFFF0
1F0F00
1F0F00
1F0F00
1F0F00
1F0F00
1F0F00
1F0F00
1F0F00
1F0F80
1F0FE0
1F07E0
1F03E0
ENDCHAR
STARTCHAR 03C1
ENCODING 961
SWIDTH 612 0
DWIDTH 17 0
BBX 14 22 2 -7
BITMAP
1FE0
3FF0
7FF8
F878
F07C
F03C
F03C
F03C
F03C
F07C
F07C
F8F8
FFF8
FFF0
FFE0
F000
F000
F000
F000
F000
F000
F000
ENDCHAR
STARTCHAR 03C2
ENCODING 962
SWIDTH 468 0
DWIDTH 13 0
BBX 13 20 1 -5
BITMAP
0FF0
3FF0
7FF0
7C10
7800
F800
F800
F000
F000
F800
7800
7F00
3FE0
1FF0
03F8
00F8
0078
00F0
00F0
01E0
ENDCHAR
STARTCHAR 03C3
ENCODING 963
SWIDTH 648 0
DWIDTH 18 0
BBX 17 15 1 0
BITMAP
0FFF80
1FFF80
3FFF80
7C3800
783C00
F81E00
F81E00
F81E00
F81E00
F81E00
783E00
7C7E00
3FFC00
3FF800
0FF000
ENDCHAR
STARTCHAR 03C4
ENCODING 964
SWIDTH 504 0
DWIDTH 14 0
BBX 13 15 1 0
BITMAP
7FF8
FFF8
FFF8
1F00
1F00
1F00
1F00
1F00
1F00
1F00
1F00
1F00
0FF0
0FF0
07F0
ENDCHAR
STARTCHAR 03C5
ENCODING 965
SWIDTH 612 0
DWIDTH 17 0
BBX 14 15 2 0
BITMAP
F07C
F03C
F03C
F03C
F03C
F03C
F03C
F03C
F03C
F03C
F03C
F87C
7FF8
3FF0
1FE0
ENDCHAR
STARTCHAR 03C6
ENCODING 966
SWIDTH 792 0
DWIDTH 22 0
BBX 20 22 1 -7
BITMAP
183F80
3C7FC0
7CFFE0
78F1E0
78F1E0
F0F0F0
F0F0F0
F0F0F0
F0F0F0
F0F1E0
78F1E0
7CF7C0
3FFFC0
1FFF80
07FE00
00F000
00F000
00F000
00F000
00F000
00F000
00F000
ENDCHAR
STARTCHAR 03C7
ENCODING 967
SWIDTH 576 0
DWIDTH 16 0
BBX 18 22 -1 -7
BITMAP
3E0780
3F0F80
3F0F00
0F9E00
079E00
03BC00
03FC00
03F800
01F000
01F000
01F000
03F000
03F000
07F800
0F7800
0F3C00
1E3C00
1E3E00
3C1FC0
3C1FC0
780FC0
F80380
ENDCHAR
STARTCHAR 03C8
ENCODING 968
SWIDTH 828 0
DWIDTH 23 0
BBX 20 28 2 -7
BITMAP
00F000
00F000
00F000
00F000
00F000
00F000
F0F1E0
F0F1E0
F0F1E0
F0F0F0
F0F0F0
F0F0F0
F0F0F0
F0F0F0
F0F0F0
F0F0F0
F8F1E0
78F3E0
7FFFC0
3FFF80
0FFE00
00F000
00F000
00F000
00F000
00F000
00F000
00F000
ENDCHAR
STARTCHAR 03C9
ENCODING 969
SWIDTH 828 0
DWIDTH 23 0
BBX 21 15 1 0
BITMAP
3C00F0
780078
780078
780078
780078
707838
F07838
F07838
707838
707878
787878
78FC78
3FFFF0
3FCFF0
0F87C0
ENDCHAR
STARTCHAR 03CA
ENCODING 970
SWIDTH 396 0
DWIDTH 11 0
BBX 11 21 0 0
BITMAP
6300
F780
F780
4300
0000
0000
3C00
3C00
3C00
3C00
3C00
3C00
3C00
3C00
3C00
3C00
3C00
3E00
3FE0
1FE0
0FE0
ENDCHAR
STARTCHAR 03CB
ENCODING 971
SWIDTH 612 0
DWIDTH 17 0
BBX 14 21 2 0
BITMAP
18E0
3CE0
3CE0
1840
0000
0000
F07C
F03C
F03C
F03C
F03C
F03C
F03C
F03C
F03C
F03C
F03C
F87C
7FF8
3FF0
1FE0
ENDCHAR
STARTCHAR 03CC
ENCODING 972
SWIDTH 612 0
DWIDTH 17 0
BBX 15 22 1 0
BITMAP
01E0
01C0
01C0
0380
0380
0000
0000
0FF0
3FF8
7FFC
7C3C
783E
F81E
F81E
F01E
F81E
F83E
783E
7C7C
3FFC
1FF8
0FE0
ENDCHAR
STARTCHAR 03CD
ENCODING 973
SWIDTH 612 0
DWIDTH 17 0
BBX 14 22 2 0
BITMAP
03C0
03C0
0380
0380
0700
0000
0000
F07C
F03C
F03C
F03C
F03C
F03C
F03C
F03C
F03C
F03C
F03C
F87C
7FF8
3FF0
1FE0
ENDCHAR
STARTCHAR 03CE
ENCODING 974
SWIDTH 828 0
DWIDTH 23 0
BBX 21 22 1 0
BITMAP
001C00
003C00
003800
003800
003000
000000
000000
3C00F0
780078
780078
780078
780078
707838
F07838
F07838
707838
707878
787878
78FC78
3FFFF0
3FCFF0
0F87C0
ENDCHAR
STARTCHAR 03D1
ENCODING 977
SWIDTH 720 0
DWIDTH 20 0
BBX 19 21 1 0
BITMAP
07F000
0FFC00
1FFE00
1F1E00
1E1F00
1E0F00
1F0F00
0FFF80
07FFE0
03FFE0
7C3FE0
FC0780
FC0780
3C0F80
1C0F80
3C0F00
3C0F00
3E1F00
1FFE00
1FFC00
0FF000
ENDCHAR
STARTCHAR 03D2
ENCODING 978
SWIDTH 612 0
DWIDTH 17 0
BBX 17 20 0 0
BITMAP
F80780
780F80
7C0F80
3C1F00
3E3E00
1E3C00
1F3C00
0F7800
0FF800
07F000
03F000
03E000
01E000
01E000
01E000
01E000
01E000
01E000
01E000
01E000
ENDCHAR
STARTCHAR 03D6
ENCODING 982
SWIDTH 972 0
DWIDTH 27 0
BBX 26 15 1 0
BITMAP
7FFFFFC0
FFFFFFC0
FFFFFFC0
1E001E00
1E001E00
1C001E00
3C000E00
3C1E0E00
3C1E0E00
3C1E1E00
1E1E1E00
1E3F1E00
1FFFFE00
0FF3FC00
07E3F800
ENDCHAR
STARTCHAR 0400
ENCODING 1024
SWIDTH 540 0
DWIDTH 15 0
BBX 12 26 2 0
BITMAP
7C00
3E00
0F00
0700
0380
0000
FFF0
FFF0
FFF0
FFF0
F800
F800
F800
F800
FFE0
FFE0
FFE0
F800
F800
F800
F800
F800
F800
FFF0
FFF0
FFF0
ENDCHAR
STARTCHAR 0401
ENCODING 1025
SWIDTH 540 0
DWIDTH 15 0
BBX 12 26 2 0
BITMAP
1000
39E0
39E0
38E0
0000
0000
FFF0
FFF0
FFF0
FFF0
F800
F800
F800
F800
FFE0
FFE0
FFE0
F800
F800
F800
F800
F800
F800
FFF0
FFF0
FFF0
ENDCHAR
STARTCHAR 0402
ENCODING 1026
SWIDTH 792 0
DWIDTH 22 0
BBX 20 20 1 0
BITMAP
FFFE00
FFFE00
FFFE00
FFFE00
078000
078000
078000
07FE00
07FFC0
07FFE0
07FFE0
0781F0
0780F0
0780F0
0780F0
0780F0
0781F0
078FE0
078FE0
078FC0
ENDCHAR
STARTCHAR 0403
ENCODING 1027
SWIDTH 540 0
DWIDTH 15 0
BBX 13 26 2 0
BITMAP
01F0
01E0
03C0
0780
0600
0000
FFF8
FFF8
FFF8
FFF8
F800
F800
F800
F800
F800
F800
F800
F800
F800
F800
F800
F800
F800
F800
F800
F800
ENDCHAR
STARTCHAR 0404
ENCODING 1028
SWIDTH 648 0
DWIDTH 18 0
BBX 16 20 2 0
BITMAP
03FC
0FFF
3FFE
3FBE
7C00
F800
F000
F000
FFF8
FFF8
FFF8
FFF8
F000
F000
F800
7C00
7F0E
3FFE
1FFE
07FC
ENDCHAR
STARTCHAR 0405
ENCODING 1029
SWIDTH 540 0
DWIDTH 15 0
BBX 13 20 1 0
BITMAP
0FE0
3FF8
7FF8
7CF0
7800
F800
7800
7C00
7F00
3FC0
1FF0
07F0
01F8
0078
0078
8078
F0F8
FFF0
FFF0
7FC0
ENDCHAR
STARTCHAR 0406
ENCODING 1030
SWIDTH 324 0
DWIDTH 9 0
BBX 5 20 2 0
BITMAP
F8
F8
F8
F8
F8
F8
F8
F8
F8
F8
F8
F8
F8
F8
F8
F8
F8
F8
F8
F8
ENDCHAR
STARTCHAR 0407
ENCODING 1031
SWIDTH 324 0
DWIDTH 9 0
BBX 9 26 0 0
BITMAP
0100
F380
F780
E380
0000
0000
3E00
3E00
3E00
3E00
3E00
3E00
3E00
3E00
3E00
3E00
3E00
3E00
3E00
3E00
3E00
3E00
3E00
3E00
3E00
3E00
ENDCHAR
STARTCHAR 0408
ENCODING 1032
SWIDTH 324 0
DWIDTH 9 0
BBX 9 26 -2 -6
BITMAP
0F80
0F80
0F80
0F80
0F80
0F80
0F80
0F80
0F80
0F80
0F80
0F80
0F80
0F80
0F80
0F80
0F80
0F80
0F80
0F80
0F80
0F00
FF00
FF00
FE00
F800
ENDCHAR
STARTCHAR 0409
ENCODING 1033
SWIDTH 972 0
DWIDTH 27 0
BBX 26 20 0 0
BITMAP
03FF8000
07FF8000
07FF8000
07FF8000
07878000
07878000
07878000
07878000
0F87FE00
0F07FF80
0F07FFC0
0F0787C0
0F0783C0
0F0783C0
1F0783C0
1E0783C0
3E079FC0
FE07FF80
FC07FF00
F807FE00
ENDCHAR
STARTCHAR 040A
ENCODING 1034
SWIDTH 972 0
DWIDTH 27 0
BBX 25 20 2 0
BITMAP
F81E0000
F81E0000
F81E0000
F81E0000
F81E0000
F81E0000
F81E0000
F81E0000
FFFFF800
FFFFFE00
FFFFFF00
F81E1F00
F81E0F00
F81E0F80
F81E0F80
F81E0F00
F81E7F00
F81FFF00
F81FFE00
F81FF800
ENDCHAR
STARTCHAR 040B
ENCODING 1035
SWIDTH 792 0
DWIDTH 22 0
BBX 20 20 1 0
BITMAP
FFFE00
FFFE00
FFFE00
FFFE00
078000
078000
078000
07FF00
07FFC0
07FFE0
07FFF0
0781F0
0780F0
0780F0
0780F0
0780F0
0780F0
0780F0
0780F0
0780F0
ENDCHAR
STARTCHAR 040C
ENCODING 1036
SWIDTH 648 0
DWIDTH 18 0
BBX 16 26 2 0
BITMAP
0078
00F0
01E0
03C0
0300
0000
F80F
F81E
F83E
F87C
F878
F8F0
F9E0
FBE0
FBC0
FF80
FFC0
FBC0
F9E0
F9F0
F8F8
F878
F87C
F83E
F81F
F80F
ENDCHAR
STARTCHAR 040D
ENCODING 1037
SWIDTH 792 0
DWIDTH 22 0
BBX 18 26 2 0
BITMAP
078000
03C000
01E000
00F000
003000
000000
F007C0
F007C0
F00FC0
F01FC0
F01FC0
F03DC0
F07DC0
F079C0
F0F9C0
F0F1C0
F1E1C0
F3E1C0
F3C1C0
F7C1C0
F781C0
FF01C0
FF01C0
FE01C0
FC01C0
FC01C0
ENDCHAR
STARTCHAR 040E
ENCODING 1038
SWIDTH 648 0
DWIDTH 18 0
BBX 18 26 0 0
BITMAP
1E0F00
1E0F00
0FFE00
07FC00
004000
000000
F803C0
7803C0
7C0780
3C0780
3E0F80
1E0F00
1E1F00
0F1E00
0F1E00
07BC00
07BC00
03F800
03F800
01F800
01F000
01F000
47E000
7FC000
7FC000
7F0000
ENDCHAR
STARTCHAR 040F
ENCODING 1039
SWIDTH 720 0
DWIDTH 20 0
BBX 16 26 2 -6
BITMAP
F80F
F80F
F80F
F80F
F80F
F80F
F80F
F80F
F80F
F80F
F80F
F80F
F80F
F80F
F80F
F80F
FFFF
FFFF
FFFF
FFFF
03C0
03C0
03C0
03C0
03C0
03C0
ENDCHAR
STARTCHAR 0410
ENCODING 1040
SWIDTH 684 0
DWIDTH 19 0
BBX 19 20 0 0
BITMAP
01F000
03F800
03F800
03F800
07BC00
07BC00
079C00
0F1E00
0F1E00
0F1E00
1E0F00
1E0F00
1FFF80
3FFF80
3FFF80
3C07C0
7C03C0
7803C0
7803E0
F803E0
ENDCHAR
STARTCHAR 0411
ENCODING 1041
SWIDTH 612 0
DWIDTH 17 0
BBX 14 20 2 0
BITMAP
FFF8
FFF8
FFF8
FFF8
F800
F800
F800
F800
FFE0
FFF8
FFF8
F8FC
F83C
F83C
F83C
F83C
F9FC
FFF8
FFF0
FFC0
ENDCHAR
STARTCHAR 0412
ENCODING 1042
SWIDTH 648 0
DWIDTH 18 0
BBX 15 20 2 0
BITMAP
FFC0
FFF8
FFFC
FFFC
F83E
F83E
F83E
F83C
FFFC
FFF0
FFFC
F8FE
F83E
F81E
F81E
F83E
F8FE
FFFC
FFF8
FFE0
ENDCHAR
STARTCHAR 0413
ENCODING 1043
SWIDTH 540 0
DWIDTH 15 0
BBX 13 20 2 0
BITMAP
FFF8
FFF8
FFF8
FFF8
F800
F800
F800
F800
F800
F800
F800
F800
F800
F800
F800
F800
F800
F800
F800
F800
ENDCHAR
STARTCHAR 0414
ENCODING 1044
SWIDTH 756 0
DWIDTH 21 0
BBX 21 26 0 -6
BITMAP
03FFC0
03FFC0
03FFC0
03FFC0
03C3C0
03C3C0
0783C0
0783C0
0783C0
0F83C0
0F03C0
0F03C0
1F03C0
1E03C0
1E03C0
3E03C0
FFFFF8
FFFFF8
FFFFF8
FFFFF8
F00078
F00078
F00078
F00078
F00078
F00078
ENDCHAR
STARTCHAR 0415
ENCODING 1045
SWIDTH 540 0
DWIDTH 15 0
BBX 12 20 2 0
BITMAP
FFF0
FFF0
FFF0
FFF0
F800
F800
F800
F800
FFE0
FFE0
FFE0
F800
F800
F800
F800
F800
F800
FFF0
FFF0
FFF0
ENDCHAR
STARTCHAR 0416
ENCODING 1046
SWIDTH 936 0
DWIDTH 26 0
BBX 26 20 0 0
BITMAP
781E07C0
7C1E0780
3C1E0F00
1E1E1E00
1F1E1E00
0F1E3C00
079E7800
03DE7800
03DEF000
01FFE000
03FFF000
03DEF000
079E7800
0F9E7C00
0F1E3C00
1E1E1E00
3E1E1F00
3C1E0F00
7C1E0780
F81E07C0
ENDCHAR
STARTCHAR 0417
ENCODING 1047
SWIDTH 648 0
DWIDTH 18 0
BBX 16 20 1 0
BITMAP
0FF0
7FFC
7FFE
7C7E
201E
001E
001E
007C
1FF8
1FC0
1FF8
00FE
001E
000F
000F
001F
E03E
FFFE
FFFC
7FF0
ENDCHAR
STARTCHAR 0418
ENCODING 1048
SWIDTH 792 0
DWIDTH 22 0
BBX 18 20 2 0
BITMAP
F007C0
F007C0
F00FC0
F01FC0
F01FC0
F03DC0
F07DC0
F079C0
F0F9C0
F0F1C0
F1E1C0
F3E1C0
F3C1C0
F7C1C0
F781C0
FF01C0
FF01C0
FE01C0
FC01C0
FC01C0
ENDCHAR
STARTCHAR 0419
ENCODING 1049
SWIDTH 792 0
DWIDTH 22 0
BBX 18 26 2 0
BITMAP
1E0700
0F0F00
0FFE00
07FC00
004000
000000
F007C0
F007C0
F00FC0
F01FC0
F01FC0
F03DC0
F07DC0
F079C0
F0F9C0
F0F1C0
F1E1C0
F3E1C0
F3C1C0
F7C1C0
F781C0
FF01C0
FF01C0
FE01C0
FC01C0
FC01C0
ENDCHAR
STARTCHAR 041A
ENCODING 1050
SWIDTH 648 0
DWIDTH 18 0
BBX 16 20 2 0
BITMAP
F80F
F81E
F83E
F87C
F878
F8F0
F9E0
FBE0
FBC0
FF80
FFC0
FBC0
F9E0
F9F0
F8F8
F878
F87C
F83E
F81F
F80F
ENDCHAR
STARTCHAR 041B
ENCODING 1051
SWIDTH 720 0
DWIDTH 20 0
BBX 18 20 0 0
BITMAP
03FFC0
07FFC0
07FFC0
07FFC0
0783C0
0783C0
0783C0
0783C0
0F83C0
0F03C0
0F03C0
0F03C0
0F03C0
0F03C0
1F03C0
1E03C0
3E03C0
FE03C0
FC03C0
F803C0
ENDCHAR
STARTCHAR 041C
ENCODING 1052
SWIDTH 936 0
DWIDTH 26 0
BBX 22 20 2 0
BITMAP
FC00FC
FE00FC
FE01FC
FE01FC
FF01FC
FF03FC
F703BC
F703BC
F787BC
F3873C
F3873C
F3CF3C
F1CE3C
F1CE3C
F1FE3C
F0FC3C
F0FC3C
F0FC3C
F0F83C
F0783C
ENDCHAR
STARTCHAR 041D
ENCODING 1053
SWIDTH 756 0
DWIDTH 21 0
BBX 17 20 2 0
BITMAP
F80780
F80780
F80780
F80780
F80780
F80780
F80780
F80780
FFFF80
FFFF80
FFFF80
F80780
F80780
F80780
F80780
F80780
F80780
F80780
F80780
F80780
ENDCHAR
STARTCHAR 041E
ENCODING 1054
SWIDTH 792 0
DWIDTH 22 0
BBX 18 20 2 0
BITMAP
07F800
1FFE00
3FFF00
7F3F80
7C0F80
F807C0
F803C0
F003C0
F003C0
F003C0
F003C0
F003C0
F003C0
F003C0
F807C0
7C0F80
7E1F80
3FFF00
1FFE00
07F800
ENDCHAR
STARTCHAR 041F
ENCODING 1055
SWIDTH 720 0
DWIDTH 20 0
BBX 16 20 2 0
BITMAP
FFFF
FFFF
FFFF
FFFF
F80F
F80F
F80F
F80F
F80F
F80F
F80F
F80F
F80F
F80F
F80F
F80F
F80F
F80F
F80F
F80F
ENDCHAR
STARTCHAR 0420
ENCODING 1056
SWIDTH 612 0
DWIDTH 17 0
BBX 14 20 2 0
BITMAP
FFC0
FFF0
FFF8
FFFC
F87C
F83C
F83C
F83C
F87C
FFFC
FFF8
FFF0
FFC0
F800
F800
F800
F800
F800
F800
F800
ENDCHAR
STARTCHAR 0421
ENCODING 1057
SWIDTH 612 0
DWIDTH 17 0
BBX 15 20 2 0
BITMAP
07F8
1FFE
3FFC
7F3C
7C00
F800
F800
F000
F000
F000
F000
F000
F000
F000
F800
7C00
7E1C
3FFC
1FFC
0FF8
ENDCHAR
STARTCHAR 0422
ENCODING 1058
SWIDTH 576 0
DWIDTH 16 0
BBX 15 20 1 0
BITMAP
FFFE
FFFE
FFFE
FFFE
0780
0780
0780
0780
0780
0780
0780
0780
0780
0780
0780
0780
0780
0780
0780
0780
ENDCHAR
STARTCHAR 0423
ENCODING 1059
SWIDTH 648 0
DWIDTH 18 0
BBX 18 20 0 0
BITMAP
F803C0
7803C0
7C0780
3C0780
3E0F80
1E0F00
1E1F00
0F1E00
0F1E00
07BC00
07BC00
03F800
03F800
01F800
01F000
01F000
47E000
7FC000
7FC000
7F0000
ENDCHAR
STARTCHAR 0424
ENCODING 1060
SWIDTH 828 0
DWIDTH 23 0
BBX 22 20 1 0
BITMAP
007800
007800
01FC00
0FFFC0
3FFFF0
7FFFF0
7C78F8
787878
F0783C
F0783C
F0783C
F87878
787878
7E79F8
3FFFF0
1FFFE0
07FF80
007800
007800
007800
ENDCHAR
STARTCHAR 0425
ENCODING 1061
SWIDTH 648 0
DWIDTH 18 0
BBX 18 20 0 0
BITMAP
7807C0
7C0780
3C0F80
1E0F00
1F1E00
0F3E00
0FBC00
07F800
03F800
03F000
03F000
07F800
07F800
0FBC00
0F3E00
1E1F00
3E0F00
3C0F80
7807C0
F807C0
ENDCHAR
STARTCHAR 0426
ENCODING 1062
SWIDTH 756 0
DWIDTH 21 0
BBX 19 26 2 -6
BITMAP
F80F00
F80F00
F80F00
F80F00
F80F00
F80F00
F80F00
F80F00
F80F00
F80F00
F80F00
F80F00
F80F00
F80F00
F80F00
F80F00
FFFF00
FFFFE0
FFFFE0
FFFFE0
0001E0
0001E0
0001E0
0001E0
0001E0
0001E0
ENDCHAR
STARTCHAR 0427
ENCODING 1063
SWIDTH 720 0
DWIDTH 20 0
BBX 17 20 1 0
BITMAP
F80780
F80780
F80780
F80780
F80780
F80780
F80780
F80780
F80780
7C1F80
7FFF80
7FFF80
3FF780
020780
000780
000780
000780
000780
000780
000780
ENDCHAR
STARTCHAR 0428
ENCODING 1064
SWIDTH 1044 0
DWIDTH 29 0
BBX 25 20 2 0
BITMAP
F81E0780
F81E0780
F81E0780
F81E0780
F81E0780
F81E0780
F81E0780
F81E0780
F81E0780
F81E0780
F81E0780
F81E0780
F81E0780
F81E0780
F81E0780
F81E0780
FFFFFF80
FFFFFF80
FFFFFF80
FFFFFF80
ENDCHAR
STARTCHAR 0429
ENCODING 1065
SWIDTH 1080 0
DWIDTH 30 0
BBX 28 26 2 -6
BITMAP
F81E0780
F81E0780
F81E0780
F81E0780
F81E0780
F81E0780
F81E0780
F81E0780
F81E0780
F81E0780
F81E0780
F81E0780
F81E0780
F81E0780
F81E0780
F81E0780
FFFFFF80
FFFFFFF0
FFFFFFF0
FFFFFFF0
000000F0
000000F0
000000F0
000000F0
000000F0
000000F0
ENDCHAR
STARTCHAR 042A
ENCODING 1066
SWIDTH 720 0
DWIDTH 20 0
BBX 19 20 0 0
BITMAP
FF8000
FF8000
FF8000
FF8000
078000
078000
078000
078000
07FE00
07FF80
07FFC0
0787E0
0783E0
0781E0
0781E0
0783E0
079FC0
07FFC0
07FF80
07FE00
ENDCHAR
STARTCHAR 042B
ENCODING 1067
SWIDTH 900 0
DWIDTH 25 0
BBX 21 20 2 0
BITMAP
F800F8
F800F8
F800F8
F800F8
F800F8
F800F8
F800F8
F800F8
FFC0F8
FFF0F8
FFF8F8
F8FCF8
F83CF8
F83CF8
F83CF8
F87CF8
FBFCF8
FFF8F8
FFF0F8
FFC0F8
ENDCHAR
STARTCHAR 042C
ENCODING 1068
SWIDTH 612 0
DWIDTH 17 0
BBX 14 20 2 0
BITMAP
F800
F800
F800
F800
F800
F800
F800
F800
FFE0
FFF8
FFF8
F8FC
F83C
F83C
F83C
F83C
F9FC
FFF8
FFF0
FFC0
ENDCHAR
STARTCHAR 042D
ENCODING 1069
SWIDTH 648 0
DWIDTH 18 0
BBX 16 20 1 0
BITMAP
3FC0
FFF0
FFF8
7DFC
403E
001E
001E
001F
1FFF
1FFF
1FFF
1FFF
001F
001E
001E
003E
E0FC
FFF8
FFF0
7FE0
ENDCHAR
STARTCHAR 042E
ENCODING 1070
SWIDTH 1044 0
DWIDTH 29 0
BBX 26 20 2 0
BITMAP
F803F800
F80FFE00
F81FFF00
F83F3F80
F87C0F80
F87C0780
F87807C0
F87803C0
FFF803C0
FFF803C0
FFF803C0
F87803C0
F87803C0
F87807C0
F87C07C0
F87C0F80
F83F1F80
F81FFF00
F80FFE00
F807F800
ENDCHAR
STARTCHAR 042F
ENCODING 1071
SWIDTH 648 0
DWIDTH 18 0
BBX 16 20 0 0
BITMAP
01FF
0FFF
1FFF
3FFF
3E0F
3C0F
3C0F
3E0F
1F0F
1FFF
0FFF
07FF
078F
0F8F
1F0F
1E0F
3E0F
7C0F
780F
F80F
ENDCHAR
STARTCHAR 0430
ENCODING 1072
SWIDTH 576 0
DWIDTH 16 0
BBX 14 15 1 0
BITMAP
3FF0
3FF8
3FF8
007C
003C
003C
1FFC
7FFC
7C3C
F83C
F07C
F87C
FFFC
7FBC
3F1C
ENDCHAR
STARTCHAR 0431
ENCODING 1073
SWIDTH 612 0
DWIDTH 17 0
BBX 15 21 1 0
BITMAP
007E
07FE
0FFE
1FFC
3E00
7C00
7800
7BF0
FFF8
FFFC
FC3E
F83E
F01E
F81E
F81E
781E
783E
7C7C
3FFC
1FF8
0FE0
ENDCHAR
STARTCHAR 0432
ENCODING 1074
SWIDTH 612 0
DWIDTH 17 0
BBX 14 15 2 0
BITMAP
FFE0
FFF8
FFF8
F07C
F07C
F0F8
FFF0
FFF0
FFF8
F03C
F03C
F07C
FFFC
FFF8
FFE0
ENDCHAR
STARTCHAR 0433
ENCODING 1075
SWIDTH 468 0
DWIDTH 13 0
BBX 11 15 2 0
BITMAP
FFE0
FFE0
FFE0
F000
F000
F000
F000
F000
F000
F000
F000
F000
F000
F000
F000
ENDCHAR
STARTCHAR 0434
ENCODING 1076
SWIDTH 648 0
DWIDTH 18 0
BBX 18 20 0 -5
BITMAP
07FF00
07FF00
07FF00
070F00
0F0F00
0F0F00
0F0F00
0F0F00
1E0F00
1E0F00
3E0F00
3C0F00
FFFFC0
FFFFC0
FFFFC0
F003C0
F003C0
F003C0
F003C0
F003C0
ENDCHAR
STARTCHAR 0435
ENCODING 1077
SWIDTH 576 0
DWIDTH 16 0
BBX 14 15 1 0
BITMAP
0FE0
3FF8
7FF8
783C
783C
F83C
FFFC
FFFC
F000
F800
7800
7C08
3FF8
1FF8
0FF8
ENDCHAR
STARTCHAR 0436
ENCODING 1078
SWIDTH 864 0
DWIDTH 24 0
BBX 24 15 0 0
BITMAP
783C1E
3C3C3C
1E3C7C
1F3C78
0F3CF0
07BDE0
03FDE0
03FFC0
07BDE0
0FBCF0
1F3CF8
1E3C7C
3C3C3C
7C3C1E
F83C1F
ENDCHAR
STARTCHAR 0437
ENCODING 1079
SWIDTH 540 0
DWIDTH 15 0
BBX 13 15 1 0
BITMAP
7FE0
7FF0
7FF8
4078
0078
01F0
1FE0
1FE0
1FF8
0078
0078
C078
FFF8
FFF0
FFC0
ENDCHAR
STARTCHAR 0438
ENCODING 1080
SWIDTH 720 0
DWIDTH 20 0
BBX 16 15 2 0
BITMAP
F03F
F03F
F07F
F0FF
F0FF
F1EF
F3EF
F3CF
F78F
FF8F
FF0F
FE0F
FE0F
FC0F
F80F
ENDCHAR
STARTCHAR 0439
ENCODING 1081
SWIDTH 720 0
DWIDTH 20 0
BBX 16 22 2 0
BITMAP
381E
381C
3E3C
1FF8
0FF0
0000
0000
F03F
F03F
F07F
F0FF
F0FF
F1EF
F3EF
F3CF
F78F
FF8F
FF0F
FE0F
FE0F
FC0F
F80F
ENDCHAR
STARTCHAR 043A
ENCODING 1082
SWIDTH 612 0
DWIDTH 17 0
BBX 15 15 2 0
BITMAP
F03C
F078
F0F0
F1F0
F3E0
F3C0
F780
FF80
F7C0
F3E0
F1E0
F0F0
F0F8
F07C
F03E
ENDCHAR
STARTCHAR 043B
ENCODING 1083
SWIDTH 612 0
DWIDTH 17 0
BBX 16 15 0 0
BITMAP
0FFF
0FFF
0FFF
0F0F
0F0F
0F0F
0E0F
1E0F
1E0F
1E0F
1E0F
3C0F
FC0F
FC0F
F80F
ENDCHAR
STARTCHAR 043C
ENCODING 1084
SWIDTH 828 0
DWIDTH 23 0
BBX 19 15 2 0
BITMAP
FC07E0
FE07E0
FE07E0
FE0EE0
FF0FE0
F70FE0
F71DE0
F79DE0
F3BDE0
F3F9E0
F1F9E0
F1F9E0
F1F1E0
F0F1E0
F0F1E0
ENDCHAR
STARTCHAR 043D
ENCODING 1085
SWIDTH 648 0
DWIDTH 18 0
BBX 14 15 2 0
BITMAP
F03C
F03C
F03C
F03C
F03C
F03C
FFFC
FFFC
FFFC
F03C
F03C
F03C
F03C
F03C
F03C
ENDCHAR
STARTCHAR 043E
ENCODING 1086
SWIDTH 612 0
DWIDTH 17 0
BBX 15 15 1 0
BITMAP
0FF0
3FF8
7FFC
7C3C
783E
F81E
F81E
F01E
F81E
F83E
783E
7C7C
3FFC
1FF8
0FE0
ENDCHAR
STARTCHAR 043F
ENCODING 1087
SWIDTH 648 0
DWIDTH 18 0
BBX 14 15 2 0
BITMAP
FFFC
FFFC
FFFC
F03C
F03C
F03C
F03C
F03C
F03C
F03C
F03C
F03C
F03C
F03C
F03C
ENDCHAR
STARTCHAR 0440
ENCODING 1088
SWIDTH 612 0
DWIDTH 17 0
BBX 14 22 2 -7
BITMAP
F3F0
F7F8
FFF8
F87C
F83C
F03C
F03C
F03C
F03C
F03C
F83C
FC7C
FFF8
FFF0
F3E0
F000
F000
F000
F000
F000
F000
F000
ENDCHAR
STARTCHAR 0441
ENCODING 1089
SWIDTH 504 0
DWIDTH 14 0
BBX 12 15 1 0
BITMAP
0FF0
3FF0
7FF0
7C20
7800
F800
F800
F000
F800
F800
7800
7C30
7FF0
3FF0
0FE0
ENDCHAR
STARTCHAR 0442
ENCODING 1090
SWIDTH 540 0
DWIDTH 15 0
BBX 14 15 1 0
BITMAP
FFFC
FFFC
FFFC
0780
0780
0780
0780
0780
0780
0780
0780
0780
0780
0780
0780
ENDCHAR
STARTCHAR 0443
ENCODING 1091
SWIDTH 540 0
DWIDTH 15 0
BBX 16 22 0 -7
BITMAP
F81F
781E
783E
7C3C
3C3C
3C7C
1E78
1E78
1E78
0FF0
0FF0
07E0
07E0
07E0
03C0
03C0
07C0
0780
7F80
7F00
7E00
7800
ENDCHAR
STARTCHAR 0444
ENCODING 1092
SWIDTH 792 0
DWIDTH 22 0
BBX 20 28 1 -7
BITMAP
00F000
00F000
00F000
00F000
00F000
00F000
07FF00
1FFFC0
3FFFE0
7EF3E0
78F1F0
F8F0F0
F8F0F0
F8F0F0
F8F0F0
78F0F0
7CF1F0
7EF3E0
3FFFC0
1FFF80
07FE00
00F000
00F000
00F000
00F000
00F000
00F000
00F000
ENDCHAR
STARTCHAR 0445
ENCODING 1093
SWIDTH 576 0
DWIDTH 16 0
BBX 16 15 0 0
BITMAP
7C1E
7C3E
3E7C
1E78
1FF8
0FF0
07E0
07E0
0FF0
0FF0
1FF8
3E7C
3C3C
7C3E
F81F
ENDCHAR
STARTCHAR 0446
ENCODING 1094
SWIDTH 684 0
DWIDTH 19 0
BBX 17 20 2 -5
BITMAP
F03E00
F03E00
F03E00
F03E00
F03E00
F03E00
F03E00
F03E00
F03E00
F03E00
F03E00
F03E00
FFFF80
FFFF80
FFFF80
000780
000780
000780
000780
000780
ENDCHAR
STARTCHAR 0447
ENCODING 1095
SWIDTH 648 0
DWIDTH 18 0
BBX 14 15 2 0
BITMAP
F03C
F03C
F03C
F03C
F03C
F03C
F03C
FFFC
FFFC
3FBC
003C
003C
003C
003C
003C
ENDCHAR
STARTCHAR 0448
ENCODING 1096
SWIDTH 936 0
DWIDTH 26 0
BBX 23 15 2 0
BITMAP
F07C1E
F07C1E
F07C1E
F07C1E
F07C1E
F07C1E
F07C1E
F07C1E
F07C1E
F07C1E
F07C1E
F07C1E
FFFFFE
FFFFFE
FFFFFE
ENDCHAR
STARTCHAR 0449
ENCODING 1097
SWIDTH 972 0
DWIDTH 27 0
BBX 25 20 2 -5
BITMAP
F07C1E00
F07C1E00
F07C1E00
F07C1E00
F07C1E00
F07C1E00
F07C1E00
F07C1E00
F07C1E00
F07C1E00
F07C1E00
F07C1E00
FFFFFF80
FFFFFF80
FFFFFF80
00000780
00000780
00000780
00000780
00000780
ENDCHAR
STARTCHAR 044A
ENCODING 1098
SWIDTH 684 0
DWIDTH 19 0
BBX 19 15 0 0
BITMAP
FF8000
FF8000
FF8000
078000
078000
078000
07FF80
07FFC0
07FFC0
0783E0
0781E0
0783E0
07FFC0
07FF80
07FF00
ENDCHAR
STARTCHAR 044B
ENCODING 1099
SWIDTH 828 0
DWIDTH 23 0
BBX 19 15 2 0
BITMAP
F001E0
F001E0
F001E0
F001E0
F001E0
F001E0
FFE1E0
FFF1E0
FFF9E0
F079E0
F079E0
F0F9E0
FFF9E0
FFF1E0
FFC1E0
ENDCHAR
STARTCHAR 044C
ENCODING 1100
SWIDTH 612 0
DWIDTH 17 0
BBX 14 15 2 0
BITMAP
F000
F000
F000
F000
F000
F000
FFF0
FFF8
FFFC
F03C
F03C
F07C
FFFC
FFF8
FFE0
ENDCHAR
STARTCHAR 044D
ENCODING 1101
SWIDTH 504 0
DWIDTH 14 0
BBX 12 15 1 0
BITMAP
FF80
FFC0
7FE0
01E0
01F0
00F0
3FF0
3FF0
3FF0
00F0
01F0
81E0
FFE0
FFC0
FF00
ENDCHAR
STARTCHAR 044E
ENCODING 1102
SWIDTH 864 0
DWIDTH 24 0
BBX 21 15 2 0
BITMAP
F03FC0
F07FE0
F0FFF0
F0F0F0
F1F0F8
F1E078
FFE078
FFE078
FFE078
F1E078
F1F0F8
F0F8F0
F0FFF0
F07FE0
F01FC0
ENDCHAR
STARTCHAR 044F
ENCODING 1103
SWIDTH 576 0
DWIDTH 16 0
BBX 14 15 0 0
BITMAP
0FFC
3FFC
3FFC
7C3C
783C
783C
7E3C
3FFC
1FFC
0F3C
1E3C
3E3C
3C3C
783C
F83C
ENDCHAR
STARTCHAR 0450
ENCODING 1104
SWIDTH 576 0
DWIDTH 16 0
BBX 14 21 1 0
BITMAP
3E00
0F00
0780
0380
0000
0000
0FE0
3FF8
7FF8
783C
783C
F83C
FFFC
FFFC
F000
F800
7800
7C08
3FF8
1FF8
0FF8
ENDCHAR
STARTCHAR 0451
ENCODING 1105
SWIDTH 576 0
DWIDTH 16 0
BBX 14 21 1 0
BITMAP
1C60
1CF0
1CF0
0C60
0000
0000
0FE0
3FF8
7FF8
783C
783C
F83C
FFFC
FFFC
F000
F800
7800
7C08
3FF8
1FF8
0FF8
ENDCHAR
STARTCHAR 0452
ENCODING 1106
SWIDTH 648 0
DWIDTH 18 0
BBX 16 28 0 -7
BITMAP
3C00
3C00
FFE0
FFE0
FFE0
3C00
3C30
3DFC
3FFE
3FFF
3E1F
3E0F
3C0F
3C0F
3C0F
3C0F
3C0F
3C0F
3C0F
3C0F
3C0F
000F
000F
000F
007F
007F
007E
0038
ENDCHAR
STARTCHAR 0453
ENCODING 1107
SWIDTH 468 0
DWIDTH 13 0
BBX 11 21 2 0
BITMAP
03C0
0780
0F00
1E00
0000
0000
FFE0
FFE0
FFE0
F000
F000
F000
F000
F000
F000
F000
F000
F000
F000
F000
F000
ENDCHAR
STARTCHAR 0454
ENCODING 1108
SWIDTH 504 0
DWIDTH 14 0
BBX 13 15 1 0
BITMAP
1FF8
3FF0
7FF0
7800
7800
F800
FFC0
FFC0
FFC0
F800
7800
7C10
3FF0
3FF0
0FF0
ENDCHAR
STARTCHAR 0455
ENCODING 1109
SWIDTH 468 0
DWIDTH 13 0
BBX 12 15 1 0
BITMAP
3FE0
7FE0
FFE0
F000
F800
FE00
7F80
3FE0
0FE0
03F0
00F0
C0F0
FFE0
FFE0
7F80
ENDCHAR
STARTCHAR 0456
ENCODING 1110
SWIDTH 288 0
DWIDTH 8 0
BBX 4 21 2 0
BITMAP
F0
F0
F0
70
00
00
F0
F0
F0
F0
F0
F0
F0
F0
F0
F0
F0
F0
F0
F0
F0
ENDCHAR
STARTCHAR 0457
ENCODING 1111
SWIDTH 288 0
DWIDTH 8 0
BBX 9 21 0 0
BITMAP
E300
E780
E780
6300
0000
0000
3C00
3C00
3C00
3C00
3C00
3C00
3C00
3C00
3C00
3C00
3C00
3C00
3C00
3C00
3C00
ENDCHAR
STARTCHAR 0458
ENCODING 1112
SWIDTH 288 0
DWIDTH 8 0
BBX 8 28 -2 -7
BITMAP
0F
0F
0F
07
00
00
0F
0F
0F
0F
0F
0F
0F
0F
0F
0F
0F
0F
0F
0F
0F
0F
0F
0F
FF
FF
FE
78
ENDCHAR
STARTCHAR 0459
ENCODING 1113
SWIDTH 864 0
DWIDTH 24 0
BBX 24 15 0 0
BITMAP
0FFE00
0FFE00
0FFE00
0F1E00
0F1E00
0F1E00
0E1FFC
1E1FFE
1E1FFE
1E1E1F
1E1E0F
3C1E1F
FC1FFE
FC1FFC
F81FF8
ENDCHAR
STARTCHAR 045A
ENCODING 1114
SWIDTH 864 0
DWIDTH 24 0
BBX 22 15 2 0
BITMAP
F07800
F07800
F07800
F07800
F07800
F07800
FFFFF0
FFFFF8
FFFFF8
F0787C
F0783C
F0787C
F07FF8
F07FF0
F07FE0
ENDCHAR
STARTCHAR 045B
ENCODING 1115
SWIDTH 648 0
DWIDTH 18 0
BBX 16 21 0 0
BITMAP
3C00
3C00
FFE0
FFE0
FFE0
3C00
3C30
3DFC
3FFE
3FFF
3E1F
3E0F
3C0F
3C0F
3C0F
3C0F
3C0F
3C0F
3C0F
3C0F
3C0F
ENDCHAR
STARTCHAR 045C
ENCODING 1116
SWIDTH 612 0
DWIDTH 17 0
BBX 15 21 2 0
BITMAP
01F0
01E0
03C0
0700
0000
0000
F03C
F078
F0F0
F1F0
F3E0
F3C0
F780
FF80
F7C0
F3E0
F1E0
F0F0
F0F8
F07C
F03E
ENDCHAR
STARTCHAR 045D
ENCODING 1117
SWIDTH 720 0
DWIDTH 20 0
BBX 16 21 2 0
BITMAP
1F00
0F80
0380
01C0
0000
0000
F03F
F03F
F07F
F0FF
F0FF
F1EF
F3EF
F3CF
F78F
FF8F
FF0F
FE0F
FE0F
FC0F
F80F
ENDCHAR
STARTCHAR 045E
ENCODING 1118
SWIDTH 540 0
DWIDTH 15 0
BBX 16 29 0 -7
BITMAP
781E
381C
3E3C
1FF8
0FF0
0000
0000
F81F
781E
783E
7C3C
3C3C
3C7C
1E78
1E78
1E78
0FF0
0FF0
07E0
07E0
07E0
03C0
03C0
07C0
0780
7F80
7F00
7E00
7800
ENDCHAR
STARTCHAR 045F
ENCODING 1119
SWIDTH 648 0
DWIDTH 18 0
BBX 15 20 2 -5
BITMAP
F03E
F03E
F03E
F03E
F03E
F03E
F03E
F03E
F03E
F03E
F03E
F03E
FFFE
FFFE
FFFE
0780
0780
0780
0780
0780
ENDCHAR
STARTCHAR 0460
ENCODING 1120
SWIDTH 936 0
DWIDTH 26 0
BBX 25 20 1 0
BITMAP
F03C0780
F03C0F80
F03C0F80
F03C0F80
F03C0F80
F83E0F80
F83E0F00
F83E0F00
783E0F00
787E0F00
7C7F0F00
3C7F1E00
3CFF1E00
3EEF9E00
1EE7BC00
1EE7BC00
0FE3FC00
0FC3F800
07C1F800
07C1F000
ENDCHAR
STARTCHAR 0461
ENCODING 1121
SWIDTH 864 0
DWIDTH 24 0
BBX 22 15 1 0
BITMAP
F0783C
F0783C
F0783C
F0783C
F07C3C
F03C3C
787C78
787C78
78FE78
3CFE70
3DEEF0
1DCFE0
1F8FE0
0F87C0
0F03C0
ENDCHAR
STARTCHAR 0462
ENCODING 1122
SWIDTH 648 0
DWIDTH 18 0
BBX 17 20 0 0
BITMAP
1F0000
1F0000
1F0000
FFF800
FFF800
FFF800
1F0000
1F0000
1FFC00
1FFF00
1FFF00
1F1F80
1F0780
1F0780
1F0780
1F0780
1F3F80
1FFF00
1FFE00
1FF800
ENDCHAR
STARTCHAR 0463
ENCODING 1123
SWIDTH 648 0
DWIDTH 18 0
BBX 17 18 0 0
BITMAP
1F0000
1F0000
1F0000
FFF800
FFF800
FFF800
1F0000
1F0000
1F0000
1FFE00
1FFF80
1FFF80
1F0780
1F0780
1F0780
1FFF80
1FFF00
1FFC00
ENDCHAR
STARTCHAR 0464
ENCODING 1124
SWIDTH 936 0
DWIDTH 26 0
BBX 23 20 2 0
BITMAP
F807F8
F81FFE
F83FFE
F87F3E
F87C00
F8F800
F8F000
F8F000
FFFFF0
FFFFF0
FFFFF0
F8F000
F8F000
F8F000
F8F800
F8FC00
F87F0E
F83FFE
F81FFE
F80FFC
ENDCHAR
STARTCHAR 0465
ENCODING 1125
SWIDTH 792 0
DWIDTH 22 0
BBX 19 15 2 0
BITMAP
F03FE0
F07FE0
F0FFC0
F0F000
F1F000
F1F000
FFFF80
FFFF80
FFFF80
F1F000
F0F000
F0F820
F0FFE0
F07FE0
F01FE0
ENDCHAR
STARTCHAR 0466
ENCODING 1126
SWIDTH 720 0
DWIDTH 20 0
BBX 20 20 0 0
BITMAP
01F800
01F800
01FC00
03FC00
039C00
079E00
078E00
070F00
0FFF00
0FFF00
0FFF80
1EF780
1EF380
3CF3C0
3CF3C0
3CF1E0
78F1E0
78F1E0
78F0F0
F0F0F0
ENDCHAR
STARTCHAR 0467
ENCODING 1127
SWIDTH 612 0
DWIDTH 17 0
BBX 18 15 0 0
BITMAP
03F000
03F000
07F800
077800
0F3800
0F3C00
0FFC00
1FFE00
1FFE00
3DEE00
3DEF00
79E700
79E780
79E780
F1E3C0
ENDCHAR
STARTCHAR 0468
ENCODING 1128
SWIDTH 972 0
DWIDTH 27 0
BBX 26 20 2 0
BITMAP
F807C000
F807E000
F80FE000
F80FF000
F80EF000
F81E7000
F81C7800
F83C3800
FFFFFC00
FFFFFC00
FFFFFC00
F87BDE00
F8F3DE00
F8F3CE00
F8F3CF00
F9E3CF00
F9E3C780
F9E3C780
FBC3C780
FBC3C3C0
ENDCHAR
STARTCHAR 0469
ENCODING 1129
SWIDTH 900 0
DWIDTH 25 0
BBX 23 15 2 0
BITMAP
F01F80
F01F80
F01FC0
F03DC0
F039E0
F078E0
FFFFE0
FFFFF0
FFFFF0
F0EF78
F1EF78
F1EF3C
F3CF3C
F3CF1C
F78F1E
ENDCHAR
STARTCHAR 046A
ENCODING 1130
SWIDTH 792 0
DWIDTH 22 0
BBX 21 20 1 0
BITMAP
7FFFE0
7FFFE0
3FFFE0
1FFFC0
1E0780
0F0F00
079E00
03FE00
03FC00
0FFF00
1FFF80
1FFFC0
3CF3C0
3CF3E0
7CF1E0
78F1E0
78F1F0
F8F0F0
F0F0F0
F0F0F8
ENDCHAR
STARTCHAR 046B
ENCODING 1131
SWIDTH 612 0
DWIDTH 17 0
BBX 17 15 0 0
BITMAP
7FFF00
3FFF00
3FFE00
1E3C00
0F3800
07F800
07F800
1FFC00
1FFE00
3DFE00
39EF00
79EF00
79E700
71E780
F1E780
ENDCHAR
STARTCHAR 046C
ENCODING 1132
SWIDTH 1044 0
DWIDTH 29 0
BBX 27 20 2 0
BITMAP
F8FFFFC0
F8FFFFC0
F8FFFF80
F87FFF00
F83C1F00
F81E1E00
F81F3C00
F80F7800
FFFFF800
FFFFFE00
FFFFFF00
F87FFF00
F879EF80
F8F1E780
F8F1E780
F8F1E3C0
F9E1E3C0
F9E1E3C0
F9E1E1E0
FBC1E1E0
ENDCHAR
STARTCHAR 046D
ENCODING 1133
SWIDTH 864 0
DWIDTH 24 0
BBX 22 15 2 0
BITMAP
F1FFF8
F1FFF8
F0FFF0
F0F0E0
F079E0
F03FC0
FFFFC0
FFFFE0
FFFFF0
F1EF70
F1CF78
F1CF38
F3CF38
F38F3C
F38F1C
ENDCHAR
STARTCHAR 046E
ENCODING 1134
SWIDTH 612 0
DWIDTH 17 0
BBX 15 30 1 -6
BITMAP
383C
1C7C
0EE0
07C0
1FE0
7FF8
FFFC
787E
403E
001E
003C
007C
1FF8
1FE0
1FF8
01FC
003E
001E
001E
001E
007E
1FFC
7FF8
FFE0
F800
F000
F000
FFF8
7FF8
3FF8
ENDCHAR
STARTCHAR 046F
ENCODING 1135
SWIDTH 540 0
DWIDTH 15 0
BBX 14 25 0 -6
BITMAP
001C
1C7C
0EF4
0FE0
3FF0
3FF8
3FFC
203C
003C
00F8
0FF0
0FF0
0FFC
003C
003C
003C
1FFC
3FF8
7FF0
7800
F000
F000
7FF0
7FF0
1FF0
ENDCHAR
STARTCHAR 0470
ENCODING 1136
SWIDTH 864 0
DWIDTH 24 0
BBX 22 20 1 0
BITMAP
F0783C
F0783C
F0783C
F0783C
F0783C
F0783C
F0783C
F0783C
78783C
78787C
7F79F8
3FFFF8
1FFFF0
07FFC0
007800
007800
007800
007800
007800
007800
ENDCHAR
STARTCHAR 0471
ENCODING 1137
SWIDTH 828 0
DWIDTH 23 0
BBX 20 28 2 -7
BITMAP
00F000
00F000
00F000
00F000
00F000
00F000
F0F1E0
F0F1E0
F0F1E0
F0F0F0
F0F0F0
F0F0F0
F0F0F0
F0F0F0
F0F0F0
F0F0F0
F8F1E0
78F3E0
7FFFC0
3FFF80
0FFE00
00F000
00F000
00F000
00F000
00F000
00F000
00F000
ENDCHAR
STARTCHAR 0472
ENCODING 1138
SWIDTH 792 0
DWIDTH 22 0
BBX 18 20 2 0
BITMAP
07F800
1FFE00
3FFF00
7F3F80
7C0F80
F807C0
F003C0
F003C0
FFFFC0
FFFFC0
FFFFC0
FFFFC0
F003C0
F003C0
F807C0
7C0F80
7E1F80
3FFF00
1FFE00
07F800
ENDCHAR
STARTCHAR 0473
ENCODING 1139
SWIDTH 612 0
DWIDTH 17 0
BBX 15 15 1 0
BITMAP
0FF0
3FF8
7FFC
7C7C
783E
F81E
FFFE
FFFE
FFFE
F81E
783E
7C7C
3FFC
1FF8
0FE0
ENDCHAR
STARTCHAR 0474
ENCODING 1140
SWIDTH 684 0
DWIDTH 19 0
BBX 20 20 0 0
BITMAP
F001F0
F803F0
7807F0
7807F0
7C0780
3C0F00
3C0F00
3E0F00
1E1E00
1E1E00
0F1E00
0F3C00
0F3C00
073C00
07F800
07F800
03F800
03F000
03F000
01F000
ENDCHAR
STARTCHAR 0475
ENCODING 1141
SWIDTH 576 0
DWIDTH 16 0
BBX 17 15 0 0
BITMAP
F80F80
781F80
781F80
7C3E00
3C3C00
3C3C00
1E7800
1E7800
1E7800
0EF000
0FF000
0FE000
07E000
07E000
03C000
ENDCHAR
STARTCHAR 0476
ENCODING 1142
SWIDTH 684 0
DWIDTH 19 0
BBX 20 26 0 0
BITMAP
3DE000
1EF000
0E7800
073800
031C00
000000
F001F0
F803F0
7807F0
7807F0
7C0780
3C0F00
3C0F00
3E0F00
1E1E00
1E1E00
0F1E00
0F3C00
0F3C00
073C00
07F800
07F800
03F800
03F000
03F000
01F000
ENDCHAR
STARTCHAR 0477
ENCODING 1143
SWIDTH 576 0
DWIDTH 16 0
BBX 17 21 0 0
BITMAP
7BE000
3DE000
1CF000
0E3000
000000
000000
F80F80
781F80
781F80
7C3E00
3C3C00
3C3C00
1E7800
1E7800
1E7800
0EF000
0FF000
0FE000
07E000
07E000
03C000
ENDCHAR
STARTCHAR 0478
ENCODING 1144
SWIDTH 1296 0
DWIDTH 36 0
BBX 34 27 2 -7
BITMAP
07F0000000
1FFC000000
3FFE000000
7E3F000000
780F000000
F80F9F03C0
F0078F03C0
F0078F07C0
F0078F8780
F007878780
F007878F80
F00783CF00
F00783CF00
F00783DE00
F80F81FE00
780F01FE00
7E3F00FC00
3FFE00FC00
1FFC00FC00
0FF8007800
0000007800
000000F000
000001F000
00000FE000
00000FE000
00000FC000
00000F0000
ENDCHAR
STARTCHAR 0479
ENCODING 1145
SWIDTH 1152 0
DWIDTH 32 0
BBX 31 22 1 -7
BITMAP
0FF0F01E
3FF8F83E
7FFC783C
7C3C783C
783E7C7C
F81E3C78
F81E3C78
F01E1EF8
F81E1EF0
F83E1EF0
783E0EE0
7C7C0FE0
3FFC07E0
1FF807C0
0FE007C0
000007C0
00000780
00000F80
00007F00
00007F00
00007C00
00007000
ENDCHAR
STARTCHAR 047A
ENCODING 1146
SWIDTH 828 0
DWIDTH 23 0
BBX 20 23 2 -1
BITMAP
00E000
07FC00
1FFF00
3FFF80
7FFFC0
7C47C0
F803E0
F801E0
F001E0
F001F0
F001F0
F001F0
F001F0
F001E0
F001E0
F803E0
7C07E0
7FEFC0
3FFF80
1FFF00
07FC00
00F000
004000
ENDCHAR
STARTCHAR 047B
ENCODING 1147
SWIDTH 648 0
DWIDTH 18 0
BBX 17 17 1 -2
BITMAP
01C000
0FF800
1FFC00
3FFE00
7DDF00
780F00
F80F00
F80F80
F00F80
F80F80
F80F00
780F00
7DDF00
3FFE00
1FFC00
07F000
01C000
ENDCHAR
STARTCHAR 047C
ENCODING 1148
SWIDTH 1080 0
DWIDTH 30 0
BBX 27 30 2 0
BITMAP
00380000
007F0000
00FFE000
00E7E000
00EC2000
001E0000
000E0000
000E0000
001C0000
00100000
0FC0FC00
1FF1FF00
3FE1FF80
7EE0CF80
F80007C0
F00003C0
F00003C0
F00003C0
F00003E0
F00003E0
F01E03E0
F01E03E0
F01E03C0
F01E03C0
F81E07C0
7C1E07C0
7F7FBF80
3FFFFF00
1FFFFE00
0FE1FC00
ENDCHAR
STARTCHAR 047D
ENCODING 1149
SWIDTH 936 0
DWIDTH 26 0
BBX 23 25 2 0
BITMAP
03F800
03FF00
07BF00
070700
00F000
00F000
003000
007000
00C000
000000
1FC7F0
7F87F8
7F83FC
F8023C
F0003E
F0001E
F0001E
F0781E
F0781E
F0781E
F0783E
FCFC7C
7FFFFC
3FEFF8
1FC7F0
ENDCHAR
STARTCHAR 047E
ENCODING 1150
SWIDTH 936 0
DWIDTH 26 0
BBX 25 25 1 0
BITMAP
01FFC000
01FFC000
00888000
00000000
00000000
F03C0780
F03C0F80
F03C0F80
F03C0F80
F03C0F80
F83E0F80
F83E0F00
F83E0F00
783E0F00
787E0F00
7C7F0F00
3C7F1E00
3CFF1E00
3EEF9E00
1EE7BC00
1EE7BC00
0FE3FC00
0FC3F800
07C1F800
07C1F000
ENDCHAR
STARTCHAR 047F
ENCODING 1151
SWIDTH 864 0
DWIDTH 24 0
BBX 22 20 1 0
BITMAP
07FF80
03FF00
023300
000000
000000
F0783C
F0783C
F0783C
F0783C
F07C3C
F03C3C
787C78
787C78
78FE78
3CFE70
3DEEF0
1DCFE0
1F8FE0
0F87C0
0F03C0
ENDCHAR
STARTCHAR 0480
ENCODING 1152
SWIDTH 648 0
DWIDTH 18 0
BBX 16 27 2 -7
BITMAP
03FC
0FFF
3FFE
3FBE
7C02
F800
F800
F000
F000
F000
F000
F000
F000
F000
F800
7C00
7F0C
3FFC
1FFC
07FC
003C
003C
003C
003C
003C
003C
003C
ENDCHAR
STARTCHAR 0481
ENCODING 1153
SWIDTH 504 0
DWIDTH 14 0
BBX 12 22 1 -7
BITMAP
1FF0
3FF0
7FF0
7C10
7800
F800
F800
F000
F800
F800
7800
7C00
3FE0
3FE0
0FE0
01E0
01E0
01E0
01E0
01E0
01E0
01E0
ENDCHAR
STARTCHAR 0482
ENCODING 1154
SWIDTH 576 0
DWIDTH 16 0
BBX 14 17 1 1
BITMAP
0018
0038
0E30
07E0
03E0
00F0
01FC
018C
4384
F300
3E00
0F00
0F80
1DE0
1840
3000
1000
ENDCHAR
STARTCHAR 0483
ENCODING 1155
SWIDTH 0 0
DWIDTH 0 0
BBX 11 4 -13 16
BITMAP
00C0
FFE0
FFC0
E000
ENDCHAR
STARTCHAR 0484
ENCODING 1156
SWIDTH 0 0
DWIDTH 0 0
BBX 11 4 -13 17
BITMAP
07C0
7FE0
FFE0
F8E0
ENDCHAR
STARTCHAR 0485
ENCODING 1157
SWIDTH 0 0
DWIDTH 0 0
BBX 4 5 -10 17
BITMAP
70
F0
E0
60
70
ENDCHAR
STARTCHAR 0486
ENCODING 1158
SWIDTH 0 0
DWIDTH 0 0
BBX 4 5 -10 17
BITMAP
70
F0
70
30
E0
ENDCHAR
STARTCHAR 0488
ENCODING 1160
SWIDTH 972 0
DWIDTH 27 0
BBX 26 23 1 -4
BITMAP
003E0000
00220000
00000000
00000000
3E003E00
23002200
00000000
00000000
00000000
00000000
70000780
F80007C0
88000840
00000000
00000000
00000000
00000000
1E003C00
32003600
21002200
00000000
003E0000
00220000
ENDCHAR
STARTCHAR 0489
ENCODING 1161
SWIDTH 936 0
DWIDTH 26 0
BBX 25 25 1 -5
BITMAP
000C0000
00080000
00180000
08180000
08180C00
0C003800
06007000
04000000
00000000
00000000
00000000
C0000C00
F0000F80
30000180
00000000
00000000
00000000
00000000
02003000
0F003000
1C0C1800
100C1800
00180800
00180000
00100000
ENDCHAR
STARTCHAR 048A
ENCODING 1162
SWIDTH 900 0
DWIDTH 25 0
BBX 23 32 2 -6
BITMAP
1E0F00
1E0F00
0FFE00
07FC00
01C000
000000
F007C0
F007C0
F00FC0
F01FC0
F01FC0
F03DC0
F07DC0
F079C0
F0F9C0
F0F1C0
F1E1C0
F3E1C0
F3C1C0
F7C1C0
F781C0
FF01C0
FF01FE
FE01FE
FC01FC
FC01FC
00003C
00003C
000078
000078
0000F8
0000F8
ENDCHAR
STARTCHAR 048B
ENCODING 1163
SWIDTH 792 0
DWIDTH 22 0
BBX 20 27 2 -5
BITMAP
781E00
381C00
3C3C00
1FF800
0FF000
000000
000000
F03F00
F03F00
F07F00
F0FF00
F0FF00
F1EF00
F3EF00
F3CF00
F78F00
FF8F00
FF0F00
FE0F00
FE0FF0
FC0FF0
F80FE0
0000E0
0001E0
0001E0
0001C0
0003C0
ENDCHAR
STARTCHAR 048C
ENCODING 1164
SWIDTH 612 0
DWIDTH 17 0
BBX 15 20 1 0
BITMAP
7C00
7C00
FFC0
FFC0
FFC0
FFC0
7C00
7C00
7FF0
7FFC
7FFC
7C7E
7C1E
7C1E
7C1E
7C1E
7CFE
7FFC
7FF8
7FE0
ENDCHAR
STARTCHAR 048D
ENCODING 1165
SWIDTH 612 0
DWIDTH 17 0
BBX 16 21 0 0
BITMAP
3C00
3C00
3C00
FFE0
FFE0
FFE0
3C00
3C00
3C00
3C00
3C00
3C00
3FFC
3FFE
3FFF
3C0F
3C0F
3C1F
3FFF
3FFE
3FF8
ENDCHAR
STARTCHAR 048E
ENCODING 1166
SWIDTH 612 0
DWIDTH 17 0
BBX 14 20 2 0
BITMAP
FFC0
FFF0
FFF8
FFFC
F87C
F83C
F83C
F9BC
FBFC
FFFC
FFF8
FFF0
FFF0
F838
F800
F800
F800
F800
F800
F800
ENDCHAR
STARTCHAR 048F
ENCODING 1167
SWIDTH 612 0
DWIDTH 17 0
BBX 14 22 2 -7
BITMAP
F3F0
F7F8
FFF8
F87C
F83C
F03C
F03C
F03C
F0BC
F3FC
F9FC
FDFC
FFF8
FFF8
F3F8
F038
F010
F000
F000
F000
F000
F000
ENDCHAR
STARTCHAR 0490
ENCODING 1168
SWIDTH 576 0
DWIDTH 16 0
BBX 14 24 2 0
BITMAP
003C
003C
003C
003C
FFFC
FFFC
FFFC
FFFC
F800
F800
F800
F800
F800
F800
F800
F800
F800
F800
F800
F800
F800
F800
F800
F800
ENDCHAR
STARTCHAR 0491
ENCODING 1169
SWIDTH 504 0
DWIDTH 14 0
BBX 11 19 2 0
BITMAP
01E0
01E0
01E0
01E0
FFE0
FFE0
FFE0
F000
F000
F000
F000
F000
F000
F000
F000
F000
F000
F000
F000
ENDCHAR
STARTCHAR 0492
ENCODING 1170
SWIDTH 540 0
DWIDTH 15 0
BBX 14 20 1 0
BITMAP
7FFC
7FFC
7FFC
7FFC
7C00
7C00
7C00
7C00
FFE0
FFE0
FFE0
FFE0
7C00
7C00
7C00
7C00
7C00
7C00
7C00
7C00
ENDCHAR
STARTCHAR 0493
ENCODING 1171
SWIDTH 468 0
DWIDTH 13 0
BBX 13 15 0 0
BITMAP
3FF8
3FF8
3FF8
3C00
3C00
3C00
FFE0
FFE0
FFE0
3C00
3C00
3C00
3C00
3C00
3C00
ENDCHAR
STARTCHAR 0494
ENCODING 1172
SWIDTH 720 0
DWIDTH 20 0
BBX 17 27 2 -7
BITMAP
FFF800
FFF800
FFF800
FFF800
F80000
F80000
F80000
F80000
F80000
FFF000
FFFC00
FFFE00
FFFF00
F83F00
F80F00
F80F80
F80780
F80780
F80780
F80780
000F80
000F80
001F00
07FF00
07FE00
07FC00
03F000
ENDCHAR
STARTCHAR 0495
ENCODING 1173
SWIDTH 576 0
DWIDTH 16 0
BBX 14 22 2 -7
BITMAP
FFE0
FFE0
FFE0
F000
F000
F000
FF00
FFE0
FFF0
FFF8
F0F8
F078
F03C
F03C
F03C
003C
007C
0078
0FF8
0FF0
0FE0
0780
ENDCHAR
STARTCHAR 0496
ENCODING 1174
SWIDTH 1008 0
DWIDTH 28 0
BBX 28 26 0 -6
BITMAP
781E07C0
7C1E0780
3C1E0F00
1E1E1E00
1F1E1E00
0F1E3C00
079E7800
03DE7800
03DEF000
01FFE000
03FFF000
03DEF000
079E7800
0F9E7C00
0F1E3C00
1E1E1E00
3E1E1FF0
3C1E0FF0
7C1E07F0
F81E07F0
000000F0
000000F0
000000F0
000000F0
000000F0
000000F0
ENDCHAR
STARTCHAR 0497
ENCODING 1175
SWIDTH 936 0
DWIDTH 26 0
BBX 26 20 0 -5
BITMAP
783C1E00
3C3C3C00
1E3C7C00
1F3C7800
0F3CF000
07BDE000
03FDE000
03FFC000
07BDE000
0FBCF000
1F3CF800
1E3C7C00
3C3C3FC0
7C3C1FC0
F83C1FC0
000003C0
000003C0
000003C0
000003C0
000003C0
ENDCHAR
STARTCHAR 0498
ENCODING 1176
SWIDTH 648 0
DWIDTH 18 0
BBX 16 27 1 -7
BITMAP
0FF0
7FFC
7FFE
7C7E
201E
001E
001E
007C
1FF8
1FC0
1FF8
00FE
001E
000F
000F
001F
E03E
FFFE
FFFC
7FF0
0300
0180
01C0
01C0
07C0
07C0
0700
ENDCHAR
STARTCHAR 0499
ENCODING 1177
SWIDTH 540 0
DWIDTH 15 0
BBX 13 22 1 -7
BITMAP
7FE0
7FF0
7FF8
4078
0078
01F0
1FE0
1FE0
1FF8
0078
0078
C078
FFF8
FFF0
FFC0
0E00
0700
0380
0380
1F80
1F00
0C00
ENDCHAR
STARTCHAR 049A
ENCODING 1178
SWIDTH 756 0
DWIDTH 21 0
BBX 18 26 2 -6
BITMAP
F80F00
F81E00
F83E00
F87C00
F87800
F8F000
F9E000
FBE000
FBC000
FF8000
FFC000
FBC000
F9E000
F9F000
F8F800
F87800
F87FC0
F83FC0
F81FC0
F80FC0
0003C0
0003C0
0003C0
0003C0
0003C0
0003C0
ENDCHAR
STARTCHAR 049B
ENCODING 1179
SWIDTH 648 0
DWIDTH 18 0
BBX 16 20 2 -5
BITMAP
F03C
F078
F0F0
F1F0
F3E0
F3C0
F780
FF80
F7C0
F3E0
F1E0
F0F0
F0FF
F07F
F03F
000F
000F
000F
000F
000F
ENDCHAR
STARTCHAR 049C
ENCODING 1180
SWIDTH 648 0
DWIDTH 18 0
BBX 16 20 2 0
BITMAP
F80F
F81E
FB3E
FB7C
FB78
FBF0
FBE0
FBE0
FBC0
FF80
FFC0
FBC0
FBE0
FBF0
FBF8
FB78
FB7C
F83E
F81F
F80F
ENDCHAR
STARTCHAR 049D
ENCODING 1181
SWIDTH 612 0
DWIDTH 17 0
BBX 15 15 2 0
BITMAP
F03C
F678
F6F0
F7F0
F7E0
F7C0
F780
FF80
F7C0
F7E0
F7E0
F6F0
F6F8
F67C
F03E
ENDCHAR
STARTCHAR 049E
ENCODING 1182
SWIDTH 648 0
DWIDTH 18 0
BBX 17 20 1 0
BITMAP
780F00
781F00
FF1E00
FF3C00
FF7800
78F800
78F000
79E000
7BC000
7FC000
7BC000
7BE000
79F000
78F000
78F800
787C00
783E00
781E00
781F00
780F80
ENDCHAR
STARTCHAR 049F
ENCODING 1183
SWIDTH 612 0
DWIDTH 17 0
BBX 17 21 0 0
BITMAP
3C0000
3C0000
FFE000
FFE000
FFE000
3C0000
3C0F00
3C1E00
3C3C00
3C7C00
3CF800
3CF000
3DE000
3FE000
3DF000
3CF800
3C7800
3C3C00
3C3E00
3C1F00
3C0F80
ENDCHAR
STARTCHAR 04A0
ENCODING 1184
SWIDTH 720 0
DWIDTH 20 0
BBX 20 20 0 0
BITMAP
FF81F0
FF81E0
FF83C0
FF87C0
0F8780
0F8F00
0F9E00
0FBE00
0FBC00
0FF800
0FFC00
0FBC00
0FBE00
0F9F00
0F8F80
0F8780
0F87C0
0F83E0
0F81E0
0F81F0
ENDCHAR
STARTCHAR 04A1
ENCODING 1185
SWIDTH 684 0
DWIDTH 19 0
BBX 19 15 0 0
BITMAP
FF83C0
FF8780
FF8F80
078F00
079E00
07BC00
07F800
07F800
07BC00
07BE00
079F00
078F00
078780
0783C0
0783E0
ENDCHAR
STARTCHAR 04A2
ENCODING 1186
SWIDTH 828 0
DWIDTH 23 0
BBX 21 26 2 -6
BITMAP
F80780
F80780
F80780
F80780
F80780
F80780
F80780
F80780
FFFF80
FFFF80
FFFF80
F80780
F80780
F80780
F80780
F80780
F807F8
F807F8
F807F8
F807F8
000078
000078
000078
000078
000078
000078
ENDCHAR
STARTCHAR 04A3
ENCODING 1187
SWIDTH 720 0
DWIDTH 20 0
BBX 18 20 2 -5
BITMAP
F03C00
F03C00
F03C00
F03C00
F03C00
F03C00
FFFC00
FFFC00
FFFC00
F03C00
F03C00
F03C00
F03FC0
F03FC0
F03FC0
0003C0
0003C0
0003C0
0003C0
0003C0
ENDCHAR
STARTCHAR 04A4
ENCODING 1188
SWIDTH 828 0
DWIDTH 23 0
BBX 21 20 2 0
BITMAP
F807F8
F807F8
F807F8
F807F8
F80780
F80780
F80780
F80780
FFFF80
FFFF80
FFFF80
F80780
F80780
F80780
F80780
F80780
F80780
F80780
F80780
F80780
ENDCHAR
STARTCHAR 04A5
ENCODING 1189
SWIDTH 756 0
DWIDTH 21 0
BBX 19 15 2 0
BITMAP
F03FE0
F03FE0
F03FE0
F03C00
F03C00
F03C00
FFFC00
FFFC00
FFFC00
F03C00
F03C00
F03C00
F03C00
F03C00
F03C00
ENDCHAR
STARTCHAR 04A6
ENCODING 1190
SWIDTH 1116 0
DWIDTH 31 0
BBX 28 27 2 -7
BITMAP
FFFF0000
FFFF0000
FFFF0000
FFFF0000
F81F0000
F81F0000
F81F0000
F81F0000
F81F0000
F81FFE00
F81FFF80
F81FFFC0
F81FFFC0
F81F07E0
F81F01E0
F81F01F0
F81F00F0
F81F00F0
F81F00F0
F81F00F0
000001F0
000001E0
000003E0
0000FFE0
0000FFC0
0000FF80
00007E00
ENDCHAR
STARTCHAR 04A7
ENCODING 1191
SWIDTH 864 0
DWIDTH 24 0
BBX 22 22 2 -7
BITMAP
FFFC00
FFFC00
FFFC00
F07C00
F07C00
F07C00
F07F00
F07FE0
F07FF0
F07FF8
F07CF8
F07C78
F07C3C
F07C3C
F07C3C
00003C
00007C
000078
000FF8
000FF0
000FE0
000780
ENDCHAR
STARTCHAR 04A8
ENCODING 1192
SWIDTH 756 0
DWIDTH 21 0
BBX 19 21 2 -1
BITMAP
07F000
1FE000
3FE000
7E2000
780000
F83F00
F07F80
F0FFC0
F0F3C0
F0E3C0
F1E3C0
F0E3C0
F0E3C0
F0F3C0
F8F780
7C7F80
7E7F00
3FFE00
1FFFE0
07FFE0
0007E0
ENDCHAR
STARTCHAR 04A9
ENCODING 1193
SWIDTH 648 0
DWIDTH 18 0
BBX 16 16 1 -1
BITMAP
1FC0
3FC0
7FC0
7C38
78FE
F9FE
F9EF
F1C7
F1C7
F9CF
79EF
7CFE
3FFC
3FFF
0FFF
000F
ENDCHAR
STARTCHAR 04AA
ENCODING 1194
SWIDTH 612 0
DWIDTH 17 0
BBX 15 27 2 -7
BITMAP
07F8
1FFE
3FFC
7F3C
7C00
F800
F800
F000
F000
F000
F000
F000
F000
F000
F800
7C00
7E1C
3FFC
1FFC
0FF8
01C0
00E0
00E0
00E0
03E0
03E0
0380
ENDCHAR
STARTCHAR 04AB
ENCODING 1195
SWIDTH 504 0
DWIDTH 14 0
BBX 12 22 1 -7
BITMAP
0FF0
3FF0
7FF0
7C20
7800
F800
F800
F000
F800
F800
7800
7C30
7FF0
3FF0
0FE0
0300
01C0
01C0
01C0
07C0
07C0
0700
ENDCHAR
STARTCHAR 04AC
ENCODING 1196
SWIDTH 576 0
DWIDTH 16 0
BBX 15 26 1 -6
BITMAP
FFFE
FFFE
FFFE
FFFE
0780
0780
0780
0780
0780
0780
0780
0780
0780
0780
0780
0780
07F8
07F8
07F8
07F8
0078
0078
0078
0078
0078
0078
ENDCHAR
STARTCHAR 04AD
ENCODING 1197
SWIDTH 540 0
DWIDTH 15 0
BBX 14 20 1 -5
BITMAP
FFFC
FFFC
FFFC
0780
0780
0780
0780
0780
0780
0780
0780
0780
07F0
07F0
07F0
0070
0070
0070
0070
0070
ENDCHAR
STARTCHAR 04AE
ENCODING 1198
SWIDTH 612 0
DWIDTH 17 0
BBX 17 20 0 0
BITMAP
F80780
780F80
7C0F00
3C1F00
3E1E00
1E3C00
1F3C00
0F7800
0FF800
07F000
03F000
03E000
01E000
01E000
01E000
01E000
01E000
01E000
01E000
01E000
ENDCHAR
STARTCHAR 04AF
ENCODING 1199
SWIDTH 540 0
DWIDTH 15 0
BBX 16 22 0 -7
BITMAP
F81F
781E
783E
7C3E
3C3C
3E7C
1E78
1E78
1EF8
0FF0
0FF0
07E0
07E0
07E0
03C0
03C0
03C0
03C0
03C0
03C0
03C0
03C0
ENDCHAR
STARTCHAR 04B0
ENCODING 1200
SWIDTH 612 0
DWIDTH 17 0
BBX 17 20 0 0
BITMAP
F80780
780F80
7C0F00
3C1F00
3E1E00
1E3C00
1F3C00
0F7800
0FF800
07F000
03F000
03E000
01E000
3FFE00
3FFE00
3FFE00
01E000
01E000
01E000
01E000
ENDCHAR
STARTCHAR 04B1
ENCODING 1201
SWIDTH 540 0
DWIDTH 15 0
BBX 16 22 0 -7
BITMAP
F81F
781E
783E
7C3E
3C3C
3E7C
1E78
1E78
1EF8
0FF0
0FF0
07E0
07E0
07E0
03C0
3FFC
3FFC
3FFC
03C0
03C0
03C0
03C0
ENDCHAR
STARTCHAR 04B2
ENCODING 1202
SWIDTH 720 0
DWIDTH 20 0
BBX 20 26 0 -6
BITMAP
7807C0
7C0780
3C0F80
1E0F00
1F1E00
0F3E00
0FBC00
07F800
03F800
03F000
03F000
07F800
07F800
0FBC00
0F3E00
1E1F00
3E0FF0
3C0FF0
7807F0
F807F0
0000F0
0000F0
0000F0
0000F0
0000F0
0000F0
ENDCHAR
STARTCHAR 04B3
ENCODING 1203
SWIDTH 612 0
DWIDTH 17 0
BBX 17 20 0 -5
BITMAP
7C1E00
7C3E00
3E7C00
1E7800
1FF800
0FF000
07E000
07E000
0FF000
0FF000
1FF800
3E7C00
3C3F80
7C3F80
F81F80
000380
000380
000380
000380
000380
ENDCHAR
STARTCHAR 04B4
ENCODING 1204
SWIDTH 900 0
DWIDTH 25 0
BBX 24 26 1 -6
BITMAP
FFFCF0
FFFCF0
FFFCF0
FFFCF0
0780F0
0780F0
0780F0
0780F0
0780F0
0780F0
0780F0
0780F0
0780F0
0780F0
0780F0
0780F0
07FFFF
07FFFF
07FFFF
07FFFF
00000F
00000F
00000F
00000F
00000F
00000F
ENDCHAR
STARTCHAR 04B5
ENCODING 1205
SWIDTH 756 0
DWIDTH 21 0
BBX 21 20 1 -5
BITMAP
FFE780
FFE780
FFE780
1E0780
1E0780
1E0780
1E0780
1E0780
1E0780
1E0780
1E0780
1E0780
1FFFF8
1FFFF8
1FFFF8
000078
000078
000078
000078
000078
ENDCHAR
STARTCHAR 04B6
ENCODING 1206
SWIDTH 792 0
DWIDTH 22 0
BBX 21 26 1 -6
BITMAP
F80780
F80780
F80780
F80780
F80780
F80780
F80780
F80780
F80780
7C1F80
7FFF80
7FFF80
3FF780
020780
000780
000780
0007F8
0007F8
0007F8
0007F8
000078
000078
000078
000078
000078
000078
ENDCHAR
STARTCHAR 04B7
ENCODING 1207
SWIDTH 720 0
DWIDTH 20 0
BBX 18 20 2 -5
BITMAP
F03C00
F03C00
F03C00
F03C00
F03C00
F03C00
F03C00
FFFC00
FFFC00
3FBC00
003C00
003C00
003FC0
003FC0
003FC0
0003C0
0003C0
0003C0
0003C0
0003C0
ENDCHAR
STARTCHAR 04B8
ENCODING 1208
SWIDTH 720 0
DWIDTH 20 0
BBX 17 20 1 0
BITMAP
F80780
F80780
F80780
F80780
F80780
F80780
F98780
F98780
F98780
7D9F80
7FFF80
7FFF80
1FF780
018780
018780
018780
018780
018780
000780
000780
ENDCHAR
STARTCHAR 04B9
ENCODING 1209
SWIDTH 648 0
DWIDTH 18 0
BBX 14 15 2 0
BITMAP
F03C
F03C
F03C
F03C
F33C
F33C
F33C
FFFC
FFFC
3FBC
033C
033C
033C
003C
003C
ENDCHAR
STARTCHAR 04BA
ENCODING 1210
SWIDTH 720 0
DWIDTH 20 0
BBX 17 20 2 0
BITMAP
F80000
F80000
F80000
F80000
F80000
F80000
F80000
FBFE00
FFFF00
FFFF00
FE1F80
F80F80
F80F80
F80780
F80780
F80780
F80780
F80780
F80780
F80780
ENDCHAR
STARTCHAR 04BB
ENCODING 1211
SWIDTH 648 0
DWIDTH 18 0
BBX 14 21 2 0
BITMAP
F000
F000
F000
F000
F000
F000
F7F0
F7F8
FFFC
FC7C
F83C
F83C
F03C
F03C
F03C
F03C
F03C
F03C
F03C
F03C
F03C
ENDCHAR
STARTCHAR 04BC
ENCODING 1212
SWIDTH 936 0
DWIDTH 26 0
BBX 24 20 0 0
BITMAP
001FE0
007FF8
00FFFC
01FCFC
03E01E
73C01E
F3C00F
F7C00F
FFFFFF
FFFFFF
7FFFFF
07C000
07C000
03C000
03C000
03E006
01F87E
00FFFE
007FFE
001FF8
ENDCHAR
STARTCHAR 04BD
ENCODING 1213
SWIDTH 684 0
DWIDTH 19 0
BBX 19 15 0 0
BITMAP
00FF00
03FF80
03FFC0
E783C0
E781C0
F781E0
FFFFE0
7FFFE0
0F8000
078000
078000
07C040
03FFC0
01FFC0
00FF80
ENDCHAR
STARTCHAR 04BE
ENCODING 1214
SWIDTH 936 0
DWIDTH 26 0
BBX 24 26 0 -6
BITMAP
001FE0
007FF8
00FFFC
01FCFC
03E01E
73C01E
F3C00F
F7C00F
FFFFFF
FFFFFF
7FFFFF
07C000
07C000
03C000
03C000
03E006
01F87E
00FFFE
007FFE
001FF8
000780
000780
000780
000780
000780
000780
ENDCHAR
STARTCHAR 04BF
ENCODING 1215
SWIDTH 684 0
DWIDTH 19 0
BBX 19 20 0 -5
BITMAP
00FF00
03FF80
03FFC0
E783C0
E781C0
F781E0
FFFFE0
7FFFE0
0F8000
078000
078000
07C040
03FFC0
01FFC0
00FF80
003C00
003C00
003C00
003C00
003C00
ENDCHAR
STARTCHAR 04C0
ENCODING 1216
SWIDTH 324 0
DWIDTH 9 0
BBX 5 20 2 0
BITMAP
F8
F8
F8
F8
F8
F8
F8
F8
F8
F8
F8
F8
F8
F8
F8
F8
F8
F8
F8
F8
ENDCHAR
STARTCHAR 04C1
ENCODING 1217
SWIDTH 936 0
DWIDTH 26 0
BBX 26 26 0 0
BITMAP
01C0F000
01E1E000
01FFE000
007FC000
000C0000
00000000
781E07C0
7C1E0780
3C1E0F00
1E1E1E00
1F1E1E00
0F1E3C00
079E7800
03DE7800
03DEF000
01FFE000
03FFF000
03DEF000
079E7800
0F9E7C00
0F1E3C00
1E1E1E00
3E1E1F00
3C1E0F00
7C1E0780
F81E07C0
ENDCHAR
STARTCHAR 04C2
ENCODING 1218
SWIDTH 864 0
DWIDTH 24 0
BBX 24 22 0 0
BITMAP
0381E0
03C1E0
03E3C0
01FF80
00FF00
000000
000000
783C1E
3C3C3C
1E3C7C
1F3C78
0F3CF0
07BDE0
03FDE0
03FFC0
07BDE0
0FBCF0
1F3CF8
1E3C7C
3C3C3C
7C3C1E
F83C1F
ENDCHAR
STARTCHAR 04C3
ENCODING 1219
SWIDTH 756 0
DWIDTH 21 0
BBX 18 27 2 -7
BITMAP
F80F00
F81F00
F83E00
F87C00
F87800
F8F000
F9E000
FBE000
FBC000
FF8000
FFFC00
FFFE00
FFFF00
F81F80
F80F80
F80780
F807C0
F803C0
F803C0
F807C0
0007C0
000780
000F80
03FF00
03FF00
03FE00
03F800
ENDCHAR
STARTCHAR 04C4
ENCODING 1220
SWIDTH 648 0
DWIDTH 18 0
BBX 15 22 2 -7
BITMAP
F07E
F078
F0F0
F1F0
F3E0
F7C0
FF80
FFF0
FFF8
FFFC
F07C
F03E
F01E
F01E
F01E
001E
001E
003C
07FC
07F8
07F0
03C0
ENDCHAR
STARTCHAR 04C5
ENCODING 1221
SWIDTH 828 0
DWIDTH 23 0
BBX 23 26 0 -6
BITMAP
03FFC0
07FFC0
07FFC0
07FFC0
0783C0
0783C0
0783C0
0783C0
0F83C0
0F03C0
0F03C0
0F03C0
0F03C0
0F03C0
1F03C0
1E03C0
3E03FE
FE03FC
FC03FC
F803FC
00003C
000038
000078
000078
0000F8
0000F0
ENDCHAR
STARTCHAR 04C6
ENCODING 1222
SWIDTH 720 0
DWIDTH 20 0
BBX 20 20 0 -5
BITMAP
0FFF00
0FFF00
0FFF00
0F0F00
0F0F00
0F0F00
0E0F00
1E0F00
1E0F00
1E0F00
1E0F00
3C0F00
FC0FF0
FC0FE0
F80FE0
0000E0
0001E0
0001E0
0001C0
0003C0
ENDCHAR
STARTCHAR 04C7
ENCODING 1223
SWIDTH 756 0
DWIDTH 21 0
BBX 17 27 2 -7
BITMAP
F80780
F80780
F80780
F80780
F80780
F80780
F80780
F80780
FFFF80
FFFF80
FFFF80
F80780
F80780
F80780
F80780
F80780
F80780
F80780
F80780
F80F80
000F80
000F00
001F00
07FF00
07FE00
07FC00
03F000
ENDCHAR
STARTCHAR 04C8
ENCODING 1224
SWIDTH 648 0
DWIDTH 18 0
BBX 14 22 2 -7
BITMAP
F03C
F03C
F03C
F03C
F03C
F03C
FFFC
FFFC
FFFC
F03C
F03C
F03C
F03C
F03C
F03C
003C
003C
007C
0FF8
0FF8
0FF0
07C0
ENDCHAR
STARTCHAR 04C9
ENCODING 1225
SWIDTH 828 0
DWIDTH 23 0
BBX 21 26 2 -6
BITMAP
F80780
F80780
F80780
F80780
F80780
F80780
F80780
F80780
FFFF80
FFFF80
FFFF80
F80780
F80780
F80780
F80780
F80780
F807F8
F807F8
F807F8
F807F0
000070
0000F0
0000F0
0001E0
0001E0
0003E0
ENDCHAR
STARTCHAR 04CA
ENCODING 1226
SWIDTH 720 0
DWIDTH 20 0
BBX 18 20 2 -5
BITMAP
F03C00
F03C00
F03C00
F03C00
F03C00
F03C00
FFFC00
FFFC00
FFFC00
F03C00
F03C00
F03C00
F03FC0
F03FC0
F03FC0
000380
000380
000780
000780
000780
ENDCHAR
STARTCHAR 04CB
ENCODING 1227
SWIDTH 720 0
DWIDTH 20 0
BBX 17 26 1 -6
BITMAP
F80780
F80780
F80780
F80780
F80780
F80780
F80780
F80780
F80780
7C1F80
7FFF80
7FFF80
3FF780
020780
000780
000780
007F80
007F80
007F80
007F80
007800
007800
007800
007800
007800
007800
ENDCHAR
STARTCHAR 04CC
ENCODING 1228
SWIDTH 648 0
DWIDTH 18 0
BBX 14 20 2 -5
BITMAP
F03C
F03C
F03C
F03C
F03C
F03C
F03C
FFFC
FFFC
3FBC
003C
003C
01FC
01FC
01FC
01E0
01E0
01E0
01E0
01E0
ENDCHAR
STARTCHAR 04CD
ENCODING 1229
SWIDTH 1008 0
DWIDTH 28 0
BBX 26 26 2 -6
BITMAP
FC00FC00
FE00FC00
FE01FC00
FE01FC00
FF01FC00
FF03FC00
F703BC00
F703BC00
F787BC00
F3873C00
F3873C00
F3CF3C00
F1CE3C00
F1CE3C00
F1FE3C00
F0FC3C00
F0FC3FC0
F0FC3FC0
F0F83FC0
F0783F80
00000780
00000780
00000780
00000F00
00000F00
00001F00
ENDCHAR
STARTCHAR 04CE
ENCODING 1230
SWIDTH 900 0
DWIDTH 25 0
BBX 23 20 2 -5
BITMAP
FC07E0
FE07E0
FE07E0
FE0EE0
FF0FE0
F70FE0
F71DE0
F79DE0
F3BDE0
F3F9E0
F1F9E0
F1F9E0
F1F1FE
F0F1FE
F0F1FE
00001E
00001C
00003C
00003C
00003C
ENDCHAR
STARTCHAR 04CF
ENCODING 1231
SWIDTH 324 0
DWIDTH 9 0
BBX 5 20 2 0
BITMAP
F8
F8
F8
F8
F8
F8
F8
F8
F8
F8
F8
F8
F8
F8
F8
F8
F8
F8
F8
F8
ENDCHAR
STARTCHAR 04D0
ENCODING 1232
SWIDTH 684 0
DWIDTH 19 0
BBX 19 26 0 0
BITMAP
1E0F00
1E0F00
0FFE00
07FC00
004000
000000
01F000
03F800
03F800
03F800
07BC00
07BC00
079C00
0F1E00
0F1E00
0F1E00
1E0F00
1E0F00
1FFF80
3FFF80
3FFF80
3C07C0
7C03C0
7803C0
7803E0
F803E0
ENDCHAR
STARTCHAR 04D1
ENCODING 1233
SWIDTH 576 0
DWIDTH 16 0
BBX 14 22 1 0
BITMAP
783C
783C
7C78
3FF8
1FE0
0000
0000
3FF0
3FF8
3FF8
007C
003C
003C
1FFC
7FFC
7C3C
F83C
F07C
F87C
FFFC
7FBC
3F1C
ENDCHAR
STARTCHAR 04D2
ENCODING 1234
SWIDTH 684 0
DWIDTH 19 0
BBX 19 25 0 1
BITMAP
07BC00
07BC00
071C00
000000
000000
01F000
03F800
03F800
03F800
07BC00
07BC00
079C00
0F1E00
0F1E00
0F1E00
1E0F00
1E0F00
1FFF80
3FFF80
3FFF80
3C07C0
7C03C0
7803C0
7803E0
F803E0
ENDCHAR
STARTCHAR 04D3
ENCODING 1235
SWIDTH 576 0
DWIDTH 16 0
BBX 14 21 1 0
BITMAP
1C60
1CF0
1CF0
0860
0000
0000
3FF0
3FF8
3FF8
007C
003C
003C
1FFC
7FFC
7C3C
F83C
F07C
F87C
FFFC
7FBC
3F1C
ENDCHAR
STARTCHAR 04D4
ENCODING 1236
SWIDTH 936 0
DWIDTH 26 0
BBX 25 20 0 0
BITMAP
007FFF80
00FFFF80
00FFFF80
01FFFF80
01E78000
03E78000
03C78000
03C78000
0787FF00
0787FF00
0F07FF00
0F078000
1FFF8000
1FFF8000
3FFF8000
3C078000
3C078000
7807FF80
7807FF80
F007FF80
ENDCHAR
STARTCHAR 04D5
ENCODING 1237
SWIDTH 900 0
DWIDTH 25 0
BBX 23 15 1 0
BITMAP
3FE7F0
3FFFFC
3FFFFC
007C1E
007C1E
007C1E
1FFFFE
7FFFFE
7C7800
F87C00
F07C00
F8FE04
FFFFFC
7FCFFC
3F87FC
ENDCHAR
STARTCHAR 04D6
ENCODING 1238
SWIDTH 540 0
DWIDTH 15 0
BBX 13 26 2 0
BITMAP
F078
F078
7FF0
3FE0
0200
0000
FFF0
FFF0
FFF0
FFF0
F800
F800
F800
F800
FFE0
FFE0
FFE0
F800
F800
F800
F800
F800
F800
FFF0
FFF0
FFF0
ENDCHAR
STARTCHAR 04D7
ENCODING 1239
SWIDTH 576 0
DWIDTH 16 0
BBX 14 22 1 0
BITMAP
703C
783C
7C78
3FF8
1FE0
0000
0000
0FE0
3FF8
7FF8
783C
783C
F83C
FFFC
FFFC
F000
F800
7800
7C08
3FF8
1FF8
0FF8
ENDCHAR
STARTCHAR 04D8
ENCODING 1240
SWIDTH 792 0
DWIDTH 22 0
BBX 19 20 2 0
BITMAP
0FF800
3FFE00
7FFF00
7F3F80
6007C0
0003C0
0003E0
0001E0
0001E0
FFFFE0
FFFFE0
FFFFE0
F801E0
7803E0
7803C0
7C07C0
3F1F80
3FFF80
0FFF00
07FC00
ENDCHAR
STARTCHAR 04D9
ENCODING 1241
SWIDTH 576 0
DWIDTH 16 0
BBX 14 15 1 0
BITMAP
7FE0
7FF0
7FF8
4078
003C
003C
FFFC
FFFC
FFFC
F03C
F03C
7878
7FF8
3FF0
1FE0
ENDCHAR
STARTCHAR 04DA
ENCODING 1242
SWIDTH 792 0
DWIDTH 22 0
BBX 19 26 2 0
BITMAP
020000
073C00
07BC00
071C00
000000
000000
0FF800
3FFE00
7FFF00
7F3F80
6007C0
0003C0
0003E0
0001E0
0001E0
FFFFE0
FFFFE0
FFFFE0
F801E0
7803E0
7803C0
7C07C0
3F1F80
3FFF80
0FFF00
07FC00
ENDCHAR
STARTCHAR 04DB
ENCODING 1243
SWIDTH 576 0
DWIDTH 16 0
BBX 14 21 1 0
BITMAP
1C60
1CF0
1CF0
0860
0000
0000
7FE0
7FF0
7FF8
4078
003C
003C
FFFC
FFFC
FFFC
F03C
F03C
7878
7FF8
3FF0
1FE0
ENDCHAR
STARTCHAR 04DC
ENCODING 1244
SWIDTH 936 0
DWIDTH 26 0
BBX 26 26 0 0
BITMAP
00200000
0073C000
00F3C000
00738000
00000000
00000000
781E07C0
7C1E0780
3C1E0F00
1E1E1E00
1F1E1E00
0F1E3C00
079E7800
03DE7800
03DEF000
01FFE000
03FFF000
03DEF000
079E7800
0F9E7C00
0F1E3C00
1E1E1E00
3E1E1F00
3C1E0F00
7C1E0780
F81E07C0
ENDCHAR
STARTCHAR 04DD
ENCODING 1245
SWIDTH 864 0
DWIDTH 24 0
BBX 24 21 0 0
BITMAP
00C300
01E780
01E780
004300
000000
000000
783C1E
3C3C3C
1E3C7C
1F3C78
0F3CF0
07BDE0
03FDE0
03FFC0
07BDE0
0FBCF0
1F3CF8
1E3C7C
3C3C3C
7C3C1E
F83C1F
ENDCHAR
STARTCHAR 04DE
ENCODING 1246
SWIDTH 648 0
DWIDTH 18 0
BBX 16 25 1 1
BITMAP
1E78
1E78
0E70
0000
0000
0FF0
7FFC
7FFE
7C7E
201E
001E
001E
007C
1FF8
1FC0
1FF8
00FE
001E
000F
000F
001F
E03E
FFFE
FFFC
7FF0
ENDCHAR
STARTCHAR 04DF
ENCODING 1247
SWIDTH 540 0
DWIDTH 15 0
BBX 13 21 1 0
BITMAP
18E0
3CE0
3CE0
1860
0000
0000
7FE0
7FF0
7FF8
4078
0078
01F0
1FE0
1FE0
1FF8
0078
0078
C078
FFF8
FFF0
FFC0
ENDCHAR
STARTCHAR 04E0
ENCODING 1248
SWIDTH 576 0
DWIDTH 16 0
BBX 14 20 1 0
BITMAP
FFF8
FFF8
FFF8
FFF8
01F0
03E0
07C0
0F80
1F00
1FF0
1FF8
03FC
003C
003C
003C
003C
C0FC
FFF8
FFF0
FFE0
ENDCHAR
STARTCHAR 04E1
ENCODING 1249
SWIDTH 576 0
DWIDTH 16 0
BBX 14 22 1 -7
BITMAP
FFF8
FFF8
FFF8
00F0
01E0
03C0
0780
0F00
1F80
1FF0
1FF8
01F8
007C
003C
003C
003C
007C
807C
FFF8
FFF0
FFE0
0F00
ENDCHAR
STARTCHAR 04E2
ENCODING 1250
SWIDTH 792 0
DWIDTH 22 0
BBX 18 24 2 0
BITMAP
07FC00
07FC00
07FC00
000000
F007C0
F007C0
F00FC0
F01FC0
F01FC0
F03DC0
F07DC0
F079C0
F0F9C0
F0F1C0
F1E1C0
F3E1C0
F3C1C0
F7C1C0
F781C0
FF01C0
FF01C0
FE01C0
FC01C0
FC01C0
ENDCHAR
STARTCHAR 04E3
ENCODING 1251
SWIDTH 720 0
DWIDTH 20 0
BBX 16 20 2 0
BITMAP
1FF8
1FF8
1FF8
0000
0000
F03F
F03F
F07F
F0FF
F0FF
F1EF
F3EF
F3CF
F78F
FF8F
FF0F
FE0F
FE0F
FC0F
F80F
ENDCHAR
STARTCHAR 04E4
ENCODING 1252
SWIDTH 792 0
DWIDTH 22 0
BBX 18 26 2 0
BITMAP
020800
079C00
079C00
031C00
000000
000000
F007C0
F007C0
F00FC0
F01FC0
F01FC0
F03DC0
F07DC0
F079C0
F0F9C0
F0F1C0
F1E1C0
F3E1C0
F3C1C0
F7C1C0
F781C0
FF01C0
FF01C0
FE01C0
FC01C0
FC01C0
ENDCHAR
STARTCHAR 04E5
ENCODING 1253
SWIDTH 720 0
DWIDTH 20 0
BBX 16 21 2 0
BITMAP
0E70
1E78
1E78
0C20
0000
0000
F03F
F03F
F07F
F0FF
F0FF
F1EF
F3EF
F3CF
F78F
FF8F
FF0F
FE0F
FE0F
FC0F
F80F
ENDCHAR
STARTCHAR 04E6
ENCODING 1254
SWIDTH 792 0
DWIDTH 22 0
BBX 18 25 2 1
BITMAP
073C00
0F3C00
073800
000000
000000
07F800
1FFE00
3FFF00
7F3F80
7C0F80
F807C0
F803C0
F003C0
F003C0
F003C0
F003C0
F003C0
F003C0
F003C0
F807C0
7C0F80
7E1F80
3FFF00
1FFE00
07F800
ENDCHAR
STARTCHAR 04E7
ENCODING 1255
SWIDTH 612 0
DWIDTH 17 0
BBX 15 21 1 0
BITMAP
0C70
1EF0
1EF0
0C20
0000
0000
0FF0
3FF8
7FFC
7C3C
783E
F81E
F81E
F01E
F81E
F83E
783E
7C7C
3FFC
1FF8
0FE0
ENDCHAR
STARTCHAR 04E8
ENCODING 1256
SWIDTH 792 0
DWIDTH 22 0
BBX 18 20 2 0
BITMAP
07F800
1FFE00
3FFF00
7F3F80
7C0F80
F807C0
F003C0
F003C0
FFFFC0
FFFFC0
FFFFC0
FFFFC0
F003C0
F003C0
F807C0
7C0F80
7E1F80
3FFF00
1FFE00
07F800
ENDCHAR
STARTCHAR 04E9
ENCODING 1257
SWIDTH 612 0
DWIDTH 17 0
BBX 15 15 1 0
BITMAP
0FF0
3FF8
7FFC
7C7C
783E
F81E
FFFE
FFFE
FFFE
F81E
783E
7C7C
3FFC
1FF8
0FE0
ENDCHAR
STARTCHAR 04EA
ENCODING 1258
SWIDTH 792 0
DWIDTH 22 0
BBX 18 25 2 0
BITMAP
073C00
0F3C00
073800
000000
000000
07F800
1FFE00
3FFF00
7F3F80
7C0F80
F807C0
F003C0
F003C0
FFFFC0
FFFFC0
FFFFC0
FFFFC0
F003C0
F003C0
F807C0
7C0F80
7E1F80
3FFF00
1FFE00
07F800
ENDCHAR
STARTCHAR 04EB
ENCODING 1259
SWIDTH 612 0
DWIDTH 17 0
BBX 15 21 1 0
BITMAP
0C70
1EF0
1EF0
0C20
0000
0000
0FF0
3FF8
7FFC
7C7C
783E
F81E
FFFE
FFFE
FFFE
F81E
783E
7C7C
3FFC
1FF8
0FE0
ENDCHAR
STARTCHAR 04EC
ENCODING 1260
SWIDTH 648 0
DWIDTH 18 0
BBX 16 25 1 0
BITMAP
1E70
1E78
0E70
0000
0000
3FC0
FFF0
FFF8
7DFC
403E
001E
001E
001F
1FFF
1FFF
1FFF
1FFF
001F
001E
001E
003E
E0FC
FFF8
FFF0
7FE0
ENDCHAR
STARTCHAR 04ED
ENCODING 1261
SWIDTH 504 0
DWIDTH 14 0
BBX 12 21 1 0
BITMAP
39C0
79E0
79E0
3080
0000
0000
FF80
FFC0
7FE0
01E0
01F0
00F0
3FF0
3FF0
3FF0
00F0
01F0
81E0
FFE0
FFC0
FF00
ENDCHAR
STARTCHAR 04EE
ENCODING 1262
SWIDTH 648 0
DWIDTH 18 0
BBX 18 24 0 0
BITMAP
07FC00
07FC00
07FC00
000000
F803C0
7803C0
7C0780
3C0780
3E0F80
1E0F00
1E1F00
0F1E00
0F1E00
07BC00
07BC00
03F800
03F800
01F800
01F000
01F000
47E000
7FC000
7FC000
7F0000
ENDCHAR
STARTCHAR 04EF
ENCODING 1263
SWIDTH 540 0
DWIDTH 15 0
BBX 16 27 0 -7
BITMAP
1FF8
1FF8
1FF8
0000
0000
F81F
781E
783E
7C3C
3C3C
3C7C
1E78
1E78
1E78
0FF0
0FF0
07E0
07E0
07E0
03C0
03C0
07C0
0780
7F80
7F00
7E00
7800
ENDCHAR
STARTCHAR 04F0
ENCODING 1264
SWIDTH 648 0
DWIDTH 18 0
BBX 18 26 0 0
BITMAP
020000
073C00
07BC00
071C00
000000
000000
F803C0
7803C0
7C0780
3C0780
3E0F80
1E0F00
1E1F00
0F1E00
0F1E00
07BC00
07BC00
03F800
03F800
01F800
01F000
01F000
47E000
7FC000
7FC000
7F0000
ENDCHAR
STARTCHAR 04F1
ENCODING 1265
SWIDTH 540 0
DWIDTH 15 0
BBX 16 28 0 -7
BITMAP
0C70
1E78
1E70
0C20
0000
0000
F81F
781E
783E
7C3C
3C3C
3C7C
1E78
1E78
1E78
0FF0
0FF0
07E0
07E0
07E0
03C0
03C0
07C0
0780
7F80
7F00
7E00
7800
ENDCHAR
STARTCHAR 04F2
ENCODING 1266
SWIDTH 648 0
DWIDTH 18 0
BBX 18 26 0 0
BITMAP
00F780
01E780
01CE00
039C00
071800
000000
F803C0
7803C0
7C0780
3C0780
3E0F80
1E0F00
1E1F00
0F1E00
0F1E00
07BC00
07BC00
03F800
03F800
01F800
01F000
01F000
47E000
7FC000
7FC000
7F0000
ENDCHAR
STARTCHAR 04F3
ENCODING 1267
SWIDTH 540 0
DWIDTH 15 0
BBX 16 28 0 -7
BITMAP
03CF
079E
073C
0E30
0000
0000
F81F
781E
783E
7C3C
3C3C
3C7C
1E78
1E78
1E78
0FF0
0FF0
07E0
07E0
07E0
03C0
03C0
07C0
0780
7F80
7F00
7E00
7800
ENDCHAR
STARTCHAR 04F4
ENCODING 1268
SWIDTH 720 0
DWIDTH 20 0
BBX 17 25 1 1
BITMAP
0F7800
0F7800
0E3800
000000
000000
F80780
F80780
F80780
F80780
F80780
F80780
F80780
F80780
F80780
7C1F80
7FFF80
7FFF80
3FF780
020780
000780
000780
000780
000780
000780
000780
ENDCHAR
STARTCHAR 04F5
ENCODING 1269
SWIDTH 648 0
DWIDTH 18 0
BBX 14 21 2 0
BITMAP
18E0
3CF0
3CE0
1840
0000
0000
F03C
F03C
F03C
F03C
F03C
F03C
F03C
FFFC
FFFC
3FBC
003C
003C
003C
003C
003C
ENDCHAR
STARTCHAR 04F6
ENCODING 1270
SWIDTH 540 0
DWIDTH 15 0
BBX 13 26 2 -6
BITMAP
FFF8
FFF8
FFF8
FFF8
F800
F800
F800
F800
F800
F800
F800
F800
F800
F800
F800
F800
FF80
FF80
FF80
FF80
0780
0780
0780
0780
0780
0780
ENDCHAR
STARTCHAR 04F7
ENCODING 1271
SWIDTH 468 0
DWIDTH 13 0
BBX 11 20 2 -5
BITMAP
FFE0
FFE0
FFE0
F000
F000
F000
F000
F000
F000
F000
F000
F000
FF00
FF00
FF00
0F00
0F00
0F00
0F00
0F00
ENDCHAR
STARTCHAR 04F8
ENCODING 1272
SWIDTH 900 0
DWIDTH 25 0
BBX 21 25 2 1
BITMAP
03DE00
03DE00
038E00
000000
000000
F800F8
F800F8
F800F8
F800F8
F800F8
F800F8
F800F8
F800F8
FFC0F8
FFF0F8
FFF8F8
F8FCF8
F83CF8
F83CF8
F83CF8
F87CF8
FBFCF8
FFF8F8
FFF0F8
FFC0F8
ENDCHAR
STARTCHAR 04F9
ENCODING 1273
SWIDTH 828 0
DWIDTH 23 0
BBX 19 21 2 0
BITMAP
031C00
079C00
079C00
030800
000000
000000
F001E0
F001E0
F001E0
F001E0
F001E0
F001E0
FFE1E0
FFF1E0
FFF9E0
F079E0
F079E0
F0F9E0
FFF9E0
FFF1E0
FFC1E0
ENDCHAR
STARTCHAR 04FA
ENCODING 1274
SWIDTH 540 0
DWIDTH 15 0
BBX 14 27 1 -7
BITMAP
7FFC
7FFC
7FFC
7FFC
7C00
7C00
7C00
7C00
FFE0
FFE0
FFE0
FFE0
7C00
7C00
7C00
7C00
7C00
7FC0
7FC0
7FC0
03C0
03C0
07C0
3F80
3F80
3F00
1E00
ENDCHAR
STARTCHAR 04FB
ENCODING 1275
SWIDTH 468 0
DWIDTH 13 0
BBX 13 21 0 -6
BITMAP
3FF8
3FF8
3FF8
3C00
3C00
3C00
FFE0
FFE0
FFE0
3C00
3C00
3C00
3FC0
3FC0
3FC0
03C0
03C0
0380
1F80
1F80
1F00
ENDCHAR
STARTCHAR 04FC
ENCODING 1276
SWIDTH 720 0
DWIDTH 20 0
BBX 20 27 0 -7
BITMAP
7807C0
7C0780
3C0F80
1E0F00
1F1E00
0F3E00
0FBC00
07F800
03F800
03F000
03F000
07F800
07F800
0FBC00
0F3E00
1E1F00
3E0F00
3C0FF0
7807F0
F807F0
0000F0
0000F0
0001F0
000FF0
000FE0
000FC0
000780
ENDCHAR
STARTCHAR 04FD
ENCODING 1277
SWIDTH 612 0
DWIDTH 17 0
BBX 17 21 0 -6
BITMAP
7C1E00
7C3E00
3E7C00
1E7800
1FF800
0FF000
07E000
07E000
0FF000
0FF000
1FF800
3E7C00
3C3F80
7C3F80
F81F80
000380
000380
000780
001F80
001F00
001F00
ENDCHAR
STARTCHAR 04FE
ENCODING 1278
SWIDTH 648 0
DWIDTH 18 0
BBX 18 20 0 0
BITMAP
7807C0
7C0780
3C0F80
1E0F00
1F1E00
0F3E00
0FBC00
07F800
3FFF80
3FFF80
3FFF80
3FFF80
07FC00
0FBC00
0F3E00
1E1F00
3E0F00
3C0F80
7807C0
F807C0
ENDCHAR
STARTCHAR 04FF
ENCODING 1279
SWIDTH 576 0
DWIDTH 16 0
BBX 16 15 0 0
BITMAP
7C1E
7C3E
3E7C
1E78
1FF8
0FF0
7FFE
7FFE
7FFE
0FF0
1FF8
3E7C
3C3C
7C3E
F81F
ENDCHAR
STARTCHAR 0500
ENCODING 1280
SWIDTH 612 0
DWIDTH 17 0
BBX 14 20 1 0
BITMAP
003C
003C
003C
003C
003C
003C
003C
003C
0FFC
3FFC
7FFC
7C3C
F83C
F83C
F83C
F83C
7F3C
7FFC
3FFC
0FFC
ENDCHAR
STARTCHAR 0501
ENCODING 1281
SWIDTH 612 0
DWIDTH 17 0
BBX 14 21 1 0
BITMAP
003C
003C
003C
003C
003C
003C
1FBC
3FDC
7FFC
7C7C
F83C
F83C
F01C
F01C
F01C
F83C
783C
7C7C
7FFC
3FDC
1F9C
ENDCHAR
STARTCHAR 0502
ENCODING 1282
SWIDTH 900 0
DWIDTH 25 0
BBX 22 20 1 0
BITMAP
007C00
007C00
007C00
007C00
007C00
007C00
007C00
007C00
0FFC3C
3FFC3C
7FFC3C
7C7C3C
F87C3C
F87C3C
F87C3C
F87C3C
7CFE7C
7FFFFC
3FFFF8
1FC7F0
ENDCHAR
STARTCHAR 0503
ENCODING 1283
SWIDTH 900 0
DWIDTH 25 0
BBX 23 21 1 0
BITMAP
003C00
003C00
003C00
003C00
003C00
003C00
1FBC00
3FFC00
7FFC00
7C7C00
F83C00
F83C3E
F03C3E
F03C3E
F03C3E
F83C3E
783C3E
7C7E7C
7FFFFC
3FFFF8
0FC7F0
ENDCHAR
STARTCHAR 0504
ENCODING 1284
SWIDTH 900 0
DWIDTH 25 0
BBX 22 20 1 0
BITMAP
3FC000
FFE000
FFF000
71F800
40F800
007800
00F000
00F000
3FE03C
3F803C
3FE03C
03F03C
00F83C
00783C
00783C
00783C
007C7C
003FF8
001FF8
000FE0
ENDCHAR
STARTCHAR 0505
ENCODING 1285
SWIDTH 864 0
DWIDTH 24 0
BBX 21 15 1 0
BITMAP
FFC000
FFE000
7FF000
00F000
00F000
03F078
3FC078
3FE078
3FF078
00F078
00F878
00F8F8
007FF8
007FF0
001FE0
ENDCHAR
STARTCHAR 0506
ENCODING 1286
SWIDTH 684 0
DWIDTH 19 0
BBX 18 26 1 -6
BITMAP
3FC000
FFF000
FFF800
78F800
407800
007800
007800
00F000
3FE000
3F8000
3FF000
03F800
007C00
003C00
003C00
003C00
003FC0
003FC0
003FC0
003FC0
0003C0
0003C0
0003C0
0003C0
0003C0
0003C0
ENDCHAR
STARTCHAR 0507
ENCODING 1287
SWIDTH 648 0
DWIDTH 18 0
BBX 17 20 1 -5
BITMAP
7FE000
FFF000
7FF800
407800
007800
03F000
1FE000
1FE000
1FF800
007800
007800
007800
007F80
007F80
007F80
000780
000780
000780
000780
000780
ENDCHAR
STARTCHAR 0508
ENCODING 1288
SWIDTH 1008 0
DWIDTH 28 0
BBX 26 20 0 0
BITMAP
03FFC000
07FFC000
07FFC000
07FFC000
0787C000
0787C000
0787C000
0787C000
0F87C3C0
0F07C3C0
0F07C3C0
0F07C3C0
0F07C3C0
0F07C3C0
1F07C3C0
1E07C3C0
3E03E7C0
FE03FFC0
FC01FF80
F800FF00
ENDCHAR
STARTCHAR 0509
ENCODING 1289
SWIDTH 900 0
DWIDTH 25 0
BBX 24 15 0 0
BITMAP
0FFE00
0FFE00
0FFE00
0F1E00
0F1E00
0F1E0F
0E1E0F
1E1E0F
1E1E0F
1E1E0F
1E1E0F
3C1F1F
FC0FFE
FC0FFE
F803F8
ENDCHAR
STARTCHAR 050A
ENCODING 1290
SWIDTH 1008 0
DWIDTH 28 0
BBX 25 20 2 0
BITMAP
F80F0000
F80F0000
F80F0000
F80F0000
F80F0000
F80F0000
F80F0000
F80F0000
FFFF0F80
FFFF0F80
FFFF0F80
F80F0F80
F80F0F80
F80F0F80
F80F0F80
F80F0F80
F80F8F00
F80FFF00
F807FE00
F803FC00
ENDCHAR
STARTCHAR 050B
ENCODING 1291
SWIDTH 936 0
DWIDTH 26 0
BBX 22 15 2 0
BITMAP
F03C00
F03C00
F03C00
F03C00
F03C00
F03C3C
FFFC3C
FFFC3C
FFFC3C
F03C3C
F03C3C
F03E7C
F03FFC
F01FF8
F00FF0
ENDCHAR
STARTCHAR 050C
ENCODING 1292
SWIDTH 792 0
DWIDTH 22 0
BBX 19 20 2 0
BITMAP
03FC00
0FFF00
3FFF00
3F3F00
7C0200
F80000
F80000
F00000
F00000
F07FE0
F07FE0
F07FE0
F003E0
F803C0
F803C0
7C07C0
7F0F80
3FFF80
1FFF00
07FC00
ENDCHAR
STARTCHAR 050D
ENCODING 1293
SWIDTH 648 0
DWIDTH 18 0
BBX 16 15 1 0
BITMAP
0FFC
1FFC
3FFC
7C08
7800
F800
F8FF
F0FF
F0FF
F80F
780F
7C3E
3FFE
1FFC
0FF0
ENDCHAR
STARTCHAR 050E
ENCODING 1294
SWIDTH 756 0
DWIDTH 21 0
BBX 18 20 1 0
BITMAP
FFFE00
FFFE00
FFFE00
FFFE00
078000
078000
078000
078000
0783C0
0783C0
0783C0
0783C0
0783C0
0783C0
0783C0
0787C0
07C7C0
07FF80
03FF80
01FE00
ENDCHAR
STARTCHAR 050F
ENCODING 1295
SWIDTH 720 0
DWIDTH 20 0
BBX 17 15 1 0
BITMAP
FFFC00
FFFC00
FFFC00
078000
078000
078780
078780
078780
078780
078780
078780
07CF80
07FF80
03FF00
01FE00
ENDCHAR
STARTCHAR 0510
ENCODING 1296
SWIDTH 648 0
DWIDTH 18 0
BBX 16 20 1 0
BITMAP
0FF8
1FFE
3FFE
7E7E
7804
7800
7800
3E00
1FF8
07F8
3FF8
7F00
7800
F000
F000
F801
7E0F
7FFF
3FFF
0FFE
ENDCHAR
STARTCHAR 0511
ENCODING 1297
SWIDTH 540 0
DWIDTH 15 0
BBX 13 15 1 0
BITMAP
1FF8
7FF8
7FF8
7800
7800
7E00
3FC0
1FC0
7FC0
F000
F000
F808
FFF8
7FF8
1FF8
ENDCHAR
STARTCHAR 0512
ENCODING 1298
SWIDTH 792 0
DWIDTH 22 0
BBX 22 27 0 -7
BITMAP
03FFC0
07FFC0
07FFC0
07FFC0
0783C0
0783C0
0783C0
0783C0
0F83C0
0F03C0
0F03C0
0F03C0
0F03C0
0F03C0
1F03C0
1E03C0
3E03C0
FE03FC
FC03FC
F803FC
00003C
00003C
00003C
0001FC
0001FC
0001F8
0000E0
ENDCHAR
STARTCHAR 0513
ENCODING 1299
SWIDTH 720 0
DWIDTH 20 0
BBX 19 21 0 -6
BITMAP
0FFF00
0FFF00
0FFF00
0F0F00
0F0F00
0F0F00
0E0F00
1E0F00
1E0F00
1E0F00
1E0F00
3C0F00
FC0FE0
FC0FE0
F80FE0
0000E0
0000E0
0000E0
0007E0
0007E0
0007C0
ENDCHAR
STARTCHAR 05B0
ENCODING 1456
SWIDTH 0 0
DWIDTH 0 0
BBX 2 6 -1 -7
BITMAP
C0
C0
00
00
C0
C0
ENDCHAR
STARTCHAR 05B1
ENCODING 1457
SWIDTH 0 0
DWIDTH 0 0
BBX 10 5 -5 -6
BITMAP
CCC0
4C80
0000
30C0
30C0
ENDCHAR
STARTCHAR 05B2
ENCODING 1458
SWIDTH 0 0
DWIDTH 0 0
BBX 8 5 -4 -6
BITMAP
FB
01
00
03
03
ENDCHAR
STARTCHAR 05B3
ENCODING 1459
SWIDTH 0 0
DWIDTH 0 0
BBX 8 5 -4 -6
BITMAP
FB
21
20
23
03
ENDCHAR
STARTCHAR 05B4
ENCODING 1460
SWIDTH 0 0
DWIDTH 0 0
BBX 2 1 -1 -3
BITMAP
C0
ENDCHAR
STARTCHAR 05B5
ENCODING 1461
SWIDTH 0 0
DWIDTH 0 0
BBX 6 2 -3 -3
BITMAP
CC
CC
ENDCHAR
STARTCHAR 05B6
ENCODING 1462
SWIDTH 0 0
DWIDTH 0 0
BBX 6 6 -3 -7
BITMAP
08
CC
CC
00
30
30
ENDCHAR
STARTCHAR 05B7
ENCODING 1463
SWIDTH 0 0
DWIDTH 0 0
BBX 6 1 -3 -3
BITMAP
FC
ENDCHAR
STARTCHAR 05B8
ENCODING 1464
SWIDTH 0 0
DWIDTH 0 0
BBX 6 4 -3 -6
BITMAP
FC
30
30
30
ENDCHAR
STARTCHAR 05B9
ENCODING 1465
SWIDTH 0 0
DWIDTH 0 0
BBX 2 2 -1 19
BITMAP
C0
C0
ENDCHAR
STARTCHAR 05BA
ENCODING 1466
SWIDTH 0 0
DWIDTH 0 0
BBX 2 2 -1 19
BITMAP
C0
C0
ENDCHAR
STARTCHAR 05BB
ENCODING 1467
SWIDTH 0 0
DWIDTH 0 0
BBX 6 6 -3 -8
BITMAP
C0
80
30
30
0C
0C
ENDCHAR
STARTCHAR 05BC
ENCODING 1468
SWIDTH 0 0
DWIDTH 0 0
BBX 2 2 -1 8
BITMAP
C0
40
ENDCHAR
STARTCHAR 05BD
ENCODING 1469
SWIDTH 0 0
DWIDTH 0 0
BBX 2 5 -1 -7
BITMAP
C0
C0
C0
C0
C0
ENDCHAR
STARTCHAR 05BE
ENCODING 1470
SWIDTH 288 0
DWIDTH 8 0
BBX 7 4 1 14
BITMAP
FE
FE
FE
FE
ENDCHAR
STARTCHAR 05C1
ENCODING 1473
SWIDTH 0 0
DWIDTH 0 0
BBX 2 2 -1 19
BITMAP
C0
C0
ENDCHAR
STARTCHAR 05C2
ENCODING 1474
SWIDTH 0 0
DWIDTH 0 0
BBX 2 2 -1 19
BITMAP
C0
C0
ENDCHAR
STARTCHAR 05C7
ENCODING 1479
SWIDTH 0 0
DWIDTH 0 0
BBX 6 4 -3 -5
BITMAP
FC
FC
30
30
ENDCHAR
STARTCHAR 05D0
ENCODING 1488
SWIDTH 648 0
DWIDTH 18 0
BBX 15 18 1 0
BITMAP
F81E
781E
3C1E
3E1E
1E1E
1F1E
0F1E
3F9E
7FDE
7BFE
79FC
79F8
78F0
78F8
7878
783C
783E
781E
ENDCHAR
STARTCHAR 05D1
ENCODING 1489
SWIDTH 576 0
DWIDTH 16 0
BBX 14 18 1 0
BITMAP
FF80
FFE0
FFF0
E3F0
00F0
00F0
00F0
00F0
00F0
00F0
00F0
00F0
00F0
00F0
00F0
FFFC
FFFC
FFFC
ENDCHAR
STARTCHAR 05D2
ENCODING 1490
SWIDTH 432 0
DWIDTH 12 0
BBX 10 18 1 0
BITMAP
3E00
3F80
3F80
37C0
03C0
03C0
03C0
03C0
03C0
03C0
03C0
03C0
07C0
07C0
BFC0
FFC0
FBC0
F1C0
ENDCHAR
STARTCHAR 05D3
ENCODING 1491
SWIDTH 540 0
DWIDTH 15 0
BBX 14 18 1 0
BITMAP
FFFC
FFFC
FFFC
FFF8
00F0
01E0
01E0
01E0
01E0
01E0
01E0
01E0
01E0
01E0
01E0
01E0
01E0
01E0
ENDCHAR
STARTCHAR 05D4
ENCODING 1492
SWIDTH 648 0
DWIDTH 18 0
BBX 14 18 2 0
BITMAP
7FC0
FFF0
FFF8
F0FC
003C
003C
003C
003C
F03C
F03C
F03C
F03C
F03C
F03C
F03C
F03C
F03C
F03C
ENDCHAR
STARTCHAR 05D5
ENCODING 1493
SWIDTH 288 0
DWIDTH 8 0
BBX 4 18 2 0
BITMAP
F0
F0
F0
F0
F0
F0
F0
F0
F0
F0
F0
F0
F0
F0
F0
F0
F0
F0
ENDCHAR
STARTCHAR 05D6
ENCODING 1494
SWIDTH 324 0
DWIDTH 9 0
BBX 7 18 2 0
BITMAP
FE
FE
FE
FE
3C
38
78
78
78
78
78
78
78
78
78
78
78
78
ENDCHAR
STARTCHAR 05D7
ENCODING 1495
SWIDTH 648 0
DWIDTH 18 0
BBX 14 18 2 0
BITMAP
7FC0
FFF8
FFF8
F0FC
F03C
F03C
F03C
F03C
F03C
F03C
F03C
F03C
F03C
F03C
F03C
F03C
F03C
F03C
ENDCHAR
STARTCHAR 05D8
ENCODING 1496
SWIDTH 648 0
DWIDTH 18 0
BBX 15 18 2 0
BITMAP
F1E0
F1F8
F1F8
F0FC
F03C
F03E
F03E
F01E
F01E
F01E
F01E
F03E
F83C
783C
7C7C
3FF8
3FF0
0FE0
ENDCHAR
STARTCHAR 05D9
ENCODING 1497
SWIDTH 288 0
DWIDTH 8 0
BBX 4 12 2 6
BITMAP
F0
F0
F0
F0
F0
F0
F0
F0
F0
F0
E0
C0
ENDCHAR
STARTCHAR 05DA
ENCODING 1498
SWIDTH 504 0
DWIDTH 14 0
BBX 12 25 1 -7
BITMAP
FE00
FF80
FFC0
CFE0
01E0
01E0
00F0
00F0
00F0
00F0
00F0
00F0
00F0
00F0
00F0
00F0
00F0
00F0
00F0
00F0
00F0
00F0
00F0
00F0
00F0
ENDCHAR
STARTCHAR 05DB
ENCODING 1499
SWIDTH 504 0
DWIDTH 14 0
BBX 12 18 1 0
BITMAP
FE00
FF80
FFC0
C7E0
01F0
00F0
00F0
00F0
00F0
00F0
00F0
00F0
00F0
01F0
03E0
FFE0
FFC0
FF00
ENDCHAR
STARTCHAR 05DC
ENCODING 1500
SWIDTH 540 0
DWIDTH 15 0
BBX 13 21 1 0
BITMAP
F000
F000
F000
FFF8
FFF8
FFF8
FFF8
0078
00F0
00F0
00F0
01F0
01E0
01E0
01E0
03C0
03C0
03C0
03C0
03C0
0780
ENDCHAR
STARTCHAR 05DD
ENCODING 1501
SWIDTH 648 0
DWIDTH 18 0
BBX 14 18 2 0
BITMAP
7FC0
FFF0
FFF8
F0FC
F03C
F03C
F03C
F03C
F03C
F03C
F03C
F03C
F03C
F03C
F03C
FFFC
FFFC
FFFC
ENDCHAR
STARTCHAR 05DE
ENCODING 1502
SWIDTH 684 0
DWIDTH 19 0
BBX 16 18 1 0
BITMAP
70F0
7BFC
7FFE
7FFE
3C1E
3C1F
781F
781F
781F
781F
781F
781F
781F
781F
781F
78FF
78FF
F0FF
ENDCHAR
STARTCHAR 05DF
ENCODING 1503
SWIDTH 288 0
DWIDTH 8 0
BBX 5 25 1 -7
BITMAP
F0
F0
78
78
78
78
78
78
78
78
78
78
78
78
78
78
78
78
78
78
78
78
78
78
78
ENDCHAR
STARTCHAR 05E0
ENCODING 1504
SWIDTH 396 0
DWIDTH 11 0
BBX 9 18 1 0
BITMAP
7C00
7F00
7F80
6F80
0780
0780
0780
0780
0780
0780
0780
0780
0780
0780
0780
FF80
FF80
FF80
ENDCHAR
STARTCHAR 05E1
ENCODING 1505
SWIDTH 612 0
DWIDTH 17 0
BBX 15 18 1 0
BITMAP
FFC0
FFF0
FFF8
FCFC
783C
783E
781E
F81E
F01E
F01E
F01E
F81E
783E
783C
7C7C
3FF8
1FF0
0FE0
ENDCHAR
STARTCHAR 05E2
ENCODING 1506
SWIDTH 612 0
DWIDTH 17 0
BBX 15 19 1 -1
BITMAP
781E
781E
781E
7C1E
3C1E
3C1E
3C1E
1E1E
1E1E
1E3E
1E3C
0F3C
0F78
0FF8
0FF0
FFE0
FFC0
FF00
C000
ENDCHAR
STARTCHAR 05E3
ENCODING 1507
SWIDTH 612 0
DWIDTH 17 0
BBX 15 25 1 -7
BITMAP
07C0
3FF0
7FF8
7FF8
F83C
F03C
F03C
F03E
F83E
7E3E
7E3E
3E3E
003E
003E
003E
003E
003E
003E
003E
003E
003E
003E
003E
003E
003E
ENDCHAR
STARTCHAR 05E4
ENCODING 1508
SWIDTH 612 0
DWIDTH 17 0
BBX 15 18 1 0
BITMAP
07C0
1FF0
3FF8
7FFC
783C
F83C
F03E
F81E
781E
7E1E
3E1E
1E1E
003E
003C
007C
3FFC
3FF8
3FE0
ENDCHAR
STARTCHAR 05E5
ENCODING 1509
SWIDTH 540 0
DWIDTH 15 0
BBX 14 25 0 -7
BITMAP
F83C
783C
783C
7C3C
3C3C
3C3C
3E3C
1E3C
1E7C
0FF8
0FF8
0FE0
0F00
0F00
0F00
0F00
0F00
0F00
0F00
0F00
0F00
0F00
0F00
0F00
0F00
ENDCHAR
STARTCHAR 05E6
ENCODING 1510
SWIDTH 612 0
DWIDTH 17 0
BBX 15 18 1 0
BITMAP
F01E
781E
7C1E
3C1E
3E3C
1E3C
0F3C
0FFC
07F8
03F8
03F0
01F0
00F0
0078
007C
FFFE
FFFE
FFFE
ENDCHAR
STARTCHAR 05E7
ENCODING 1511
SWIDTH 612 0
DWIDTH 17 0
BBX 15 25 2 -7
BITMAP
FFFE
FFFE
FFFE
FFFE
001E
003E
003C
F03C
F078
F078
F078
F0F0
F0F0
F0F0
F0F0
F1E0
F1E0
F1E0
F000
F000
F000
F000
F000
F000
F000
ENDCHAR
STARTCHAR 05E8
ENCODING 1512
SWIDTH 504 0
DWIDTH 14 0
BBX 12 18 1 0
BITMAP
FF00
FFC0
FFE0
C7E0
01F0
00F0
00F0
00F0
00F0
00F0
00F0
00F0
00F0
00F0
00F0
00F0
00F0
00F0
ENDCHAR
STARTCHAR 05E9
ENCODING 1513
SWIDTH 756 0
DWIDTH 21 0
BBX 19 18 1 0
BITMAP
F0F1E0
F0F1E0
78F1E0
78F1E0
78F1E0
78F1E0
79E1E0
79E1E0
79E1E0
7FE3C0
7FC3C0
7F83C0
7807C0
780F80
3C1F80
3FFF00
3FFC00
3FF000
ENDCHAR
STARTCHAR 05EA
ENCODING 1514
SWIDTH 684 0
DWIDTH 19 0
BBX 16 18 1 0
BITMAP
3FF0
7FFC
7FFE
7E7F
1E0F
1E0F
1E0F
1E0F
1E0F
1E0F
1E0F
1E0F
1E0F
1E0F
3E0F
FE0F
FC0F
F80F
ENDCHAR
STARTCHAR 1E00
ENCODING 7680
SWIDTH 684 0
DWIDTH 19 0
BBX 19 28 0 -8
BITMAP
01F000
03F800
03F800
03F800
07BC00
07BC00
079C00
0F1E00
0F1E00
0F1E00
1E0F00
1E0F00
1FFF80
3FFF80
3FFF80
3C07C0
7C03C0
7803C0
7803E0
F803E0
000000
000000
01F000
03F800
031800
031800
01F800
01F000
ENDCHAR
STARTCHAR 1E01
ENCODING 7681
SWIDTH 576 0
DWIDTH 16 0
BBX 14 23 1 -8
BITMAP
3FF0
3FF8
3FF8
007C
003C
003C
1FFC
7FFC
7C3C
F83C
F07C
F87C
FFFC
7FBC
3F1C
0000
0000
0780
0FC0
0CC0
0CC0
0FC0
0780
ENDCHAR
STARTCHAR 1E3E
ENCODING 7742
SWIDTH 936 0
DWIDTH 26 0
BBX 22 26 2 0
BITMAP
001F00
001E00
003C00
007800
006000
000000
FC00FC
FE00FC
FE01FC
FE01FC
FF01FC
FF03FC
F703BC
F703BC
F787BC
F3873C
F3873C
F3CF3C
F1CE3C
F1CE3C
F1FE3C
F0FC3C
F0FC3C
F0FC3C
F0F83C
F0783C
ENDCHAR
STARTCHAR 1E3F
ENCODING 7743
SWIDTH 972 0
DWIDTH 27 0
BBX 23 21 2 0
BITMAP
000F80
001F00
003C00
003800
000000
000000
F7F1F8
FFFBFC
FFFFFE
F87E3E
F87C1E
F83C1E
F03C1E
F03C1E
F03C1E
F03C1E
F03C1E
F03C1E
F03C1E
F03C1E
F03C1E
ENDCHAR
STARTCHAR 1E80
ENCODING 7808
SWIDTH 936 0
DWIDTH 26 0
BBX 27 26 0 0
BITMAP
00F80000
007C0000
001E0000
000E0000
00070000
00000000
F01F01E0
F01F03E0
781F03C0
781F03C0
783F83C0
783F87C0
3C3B8780
3C3B8780
3C7BC780
3C7BC780
1E71CF00
1EF1CF00
1EF1EF00
1EF1EE00
0EE0FE00
0FE0FE00
0FE0FE00
0FC0FC00
07C07C00
07C07C00
ENDCHAR
STARTCHAR 1E81
ENCODING 7809
SWIDTH 828 0
DWIDTH 23 0
BBX 23 21 0 0
BITMAP
01F000
00F800
007800
001C00
000000
000000
F87C1E
787E1E
787E1E
787E3C
3CEE3C
3CEF3C
3CE73C
3CE778
1FE778
1FC778
1FC3F0
0FC3F0
0FC3F0
0F83F0
0F81E0
ENDCHAR
STARTCHAR 1E82
ENCODING 7810
SWIDTH 936 0
DWIDTH 26 0
BBX 27 26 0 0
BITMAP
0003E000
00078000
000F0000
001E0000
001C0000
00000000
F01F01E0
F01F03E0
781F03C0
781F03C0
783F83C0
783F87C0
3C3B8780
3C3B8780
3C7BC780
3C7BC780
1E71CF00
1EF1CF00
1EF1EF00
1EF1EE00
0EE0FE00
0FE0FE00
0FE0FE00
0FC0FC00
07C07C00
07C07C00
ENDCHAR
STARTCHAR 1E83
ENCODING 7811
SWIDTH 828 0
DWIDTH 23 0
BBX 23 21 0 0
BITMAP
000F80
001F00
003C00
003800
000000
000000
F87C1E
787E1E
787E1E
787E3C
3CEE3C
3CEF3C
3CE73C
3CE778
1FE778
1FC778
1FC3F0
0FC3F0
0FC3F0
0F83F0
0F81E0
ENDCHAR
STARTCHAR 1E84
ENCODING 7812
SWIDTH 936 0
DWIDTH 26 0
BBX 27 26 0 0
BITMAP
00200000
0073C000
007BC000
0071C000
00000000
00000000
F01F01E0
F01F03E0
781F03C0
781F03C0
783F83C0
783F87C0
3C3B8780
3C3B8780
3C7BC780
3C7BC780
1E71CF00
1EF1CF00
1EF1EF00
1EF1EE00
0EE0FE00
0FE0FE00
0FE0FE00
0FC0FC00
07C07C00
07C07C00
ENDCHAR
STARTCHAR 1E85
ENCODING 7813
SWIDTH 828 0
DWIDTH 23 0
BBX 23 21 0 0
BITMAP
00C700
01E780
01E700
00C200
000000
000000
F87C1E
787E1E
787E1E
787E3C
3CEE3C
3CEF3C
3CE73C
3CE778
1FE778
1FC778
1FC3F0
0FC3F0
0FC3F0
0F83F0
0F81E0
ENDCHAR
STARTCHAR 1E9E
ENCODING 7838
SWIDTH 756 0
DWIDTH 21 0
BBX 18 20 2 0
BITMAP
07F000
1FFC00
3FFE00
7F7F00
780F00
780F00
F81E00
F83C00
F87C00
F87F00
F87F80
F80FC0
F803C0
F803C0
F803C0
F803C0
FB07C0
FBFF80
FBFF80
F9FE00
ENDCHAR
STARTCHAR 1EA0
ENCODING 7840
SWIDTH 684 0
DWIDTH 19 0
BBX 19 26 0 -6
BITMAP
01F000
03F800
03F800
03F800
07BC00
07BC00
079C00
0F1E00
0F1E00
0F1E00
1E0F00
1E0F00
1FFF80
3FFF80
3FFF80
3C07C0
7C03C0
7803C0
7803E0
F803E0
000000
000000
00E000
01F000
01F000
00E000
ENDCHAR
STARTCHAR 1EA1
ENCODING 7841
SWIDTH 576 0
DWIDTH 16 0
BBX 14 21 1 -6
BITMAP
3FF0
3FF8
3FF8
007C
003C
003C
1FFC
7FFC
7C3C
F83C
F07C
F87C
FFFC
7FBC
3F1C
0000
0000
0780
07C0
07C0
0380
ENDCHAR
STARTCHAR 1EA2
ENCODING 7842
SWIDTH 684 0
DWIDTH 19 0
BBX 19 28 0 0
BITMAP
00E000
01F000
01F800
003800
007800
00F000
00E000
000000
01F000
03F800
03F800
03F800
07BC00
07BC00
079C00
0F1E00
0F1E00
0F1E00
1E0F00
1E0F00
1FFF80
3FFF80
3FFF80
3C07C0
7C03C0
7803C0
7803E0
F803E0
ENDCHAR
STARTCHAR 1EA3
ENCODING 7843
SWIDTH 576 0
DWIDTH 16 0
BBX 14 23 1 0
BITMAP
07C0
07E0
01E0
00E0
03C0
0380
0000
0000
3FF0
3FF8
3FF8
007C
003C
003C
1FFC
7FFC
7C3C
F83C
F07C
F87C
FFFC
7FBC
3F1C
ENDCHAR
STARTCHAR 1EA4
ENCODING 7844
SWIDTH 684 0
DWIDTH 19 0
BBX 19 27 0 0
BITMAP
0001C0
01F380
01F300
03B800
071C00
060E00
000000
01F000
03F800
03F800
03F800
07BC00
07BC00
079C00
0F1E00
0F1E00
0F1E00
1E0F00
1E0F00
1FFF80
3FFF80
3FFF80
3C07C0
7C03C0
7803C0
7803E0
F803E0
ENDCHAR
STARTCHAR 1EA5
ENCODING 7845
SWIDTH 576 0
DWIDTH 16 0
BBX 16 23 1 0
BITMAP
0007
000F
07CE
0FF8
1EE0
1870
0000
0000
3FF0
3FF8
3FF8
007C
003C
003C
1FFC
7FFC
7C3C
F83C
F07C
F87C
FFFC
7FBC
3F1C
ENDCHAR
STARTCHAR 1EA6
ENCODING 7846
SWIDTH 684 0
DWIDTH 19 0
BBX 19 27 0 0
BITMAP
700000
39F000
1DF000
03B800
071C00
060E00
000000
01F000
03F800
03F800
03F800
07BC00
07BC00
079C00
0F1E00
0F1E00
0F1E00
1E0F00
1E0F00
1FFF80
3FFF80
3FFF80
3C07C0
7C03C0
7803C0
7803E0
F803E0
ENDCHAR
STARTCHAR 1EA7
ENCODING 7847
SWIDTH 576 0
DWIDTH 16 0
BBX 16 23 -1 0
BITMAP
F000
7000
39F0
1FF8
07B8
061C
0000
0000
0FFC
0FFE
0FFE
001F
000F
000F
07FF
1FFF
1F0F
3E0F
3C1F
3E1F
3FFF
1FEF
0FC7
ENDCHAR
STARTCHAR 1EA8
ENCODING 7848
SWIDTH 684 0
DWIDTH 19 0
BBX 19 29 0 0
BITMAP
000700
000780
000180
01F380
01F300
03B800
071C00
060E00
000000
01F000
03F800
03F800
03F800
07BC00
07BC00
079C00
0F1E00
0F1E00
0F1E00
1E0F00
1E0F00
1FFF80
3FFF80
3FFF80
3C07C0
7C03C0
7803C0
7803E0
F803E0
ENDCHAR
STARTCHAR 1EA9
ENCODING 7849
SWIDTH 576 0
DWIDTH 16 0
BBX 15 24 1 0
BITMAP
001E
001E
0006
07CC
0FE8
1EE0
1870
0000
0000
3FF0
3FF8
3FF8
007C
003C
003C
1FFC
7FFC
7C3C
F83C
F07C
F87C
FFFC
7FBC
3F1C
ENDCHAR
STARTCHAR 1EAA
ENCODING 7850
SWIDTH 684 0
DWIDTH 19 0
BBX 19 29 0 0
BITMAP
03C400
07FC00
063800
000000
01F000
03F800
071C00
060600
000000
01F000
03F800
03F800
03F800
07BC00
07BC00
079C00
0F1E00
0F1E00
0F1E00
1E0F00
1E0F00
1FFF80
3FFF80
3FFF80
3C07C0
7C03C0
7803C0
7803E0
F803E0
ENDCHAR
STARTCHAR 1EAB
ENCODING 7851
SWIDTH 576 0
DWIDTH 16 0
BBX 14 25 1 0
BITMAP
0E10
1FF0
1BF0
3000
0780
07C0
0EE0
1870
0000
0000
3FF0
3FF8
3FF8
007C
003C
003C
1FFC
7FFC
7C3C
F83C
F07C
F87C
FFFC
7FBC
3F1C
ENDCHAR
STARTCHAR 1EAC
ENCODING 7852
SWIDTH 684 0
DWIDTH 19 0
BBX 19 32 0 -6
BITMAP
01F000
03F800
07BC00
0F1E00
0C0700
000000
01F000
03F800
03F800
03F800
07BC00
07BC00
079C00
0F1E00
0F1E00
0F1E00
1E0F00
1E0F00
1FFF80
3FFF80
3FFF80
3C07C0
7C03C0
7803C0
7803E0
F803E0
000000
000000
00E000
01F000
01F000
00E000
ENDCHAR
STARTCHAR 1EAD
ENCODING 7853
SWIDTH 576 0
DWIDTH 16 0
BBX 14 27 1 -6
BITMAP
0FC0
0FE0
1EF0
3878
0000
0000
3FF0
3FF8
3FF8
007C
003C
003C
1FFC
7FFC
7C3C
F83C
F07C
F87C
FFFC
7FBC
3F1C
0000
0000
0780
0780
0780
0300
ENDCHAR
STARTCHAR 1EAE
ENCODING 7854
SWIDTH 684 0
DWIDTH 19 0
BBX 19 28 0 0
BITMAP
003800
007000
06EC00
060C00
07FC00
03F800
004000
000000
01F000
03F800
03F800
03F800
07BC00
07BC00
079C00
0F1E00
0F1E00
0F1E00
1E0F00
1E0F00
1FFF80
3FFF80
3FFF80
3C07C0
7C03C0
7803C0
7803E0
F803E0
ENDCHAR
STARTCHAR 1EAF
ENCODING 7855
SWIDTH 576 0
DWIDTH 16 0
BBX 14 23 1 0
BITMAP
01C0
0380
1B30
1C70
1FE0
0FC0
0000
0000
3FF0
3FF8
3FF8
007C
003C
003C
1FFC
7FFC
7C3C
F83C
F07C
F87C
FFFC
7FBC
3F1C
ENDCHAR
STARTCHAR 1EB0
ENCODING 7856
SWIDTH 684 0
DWIDTH 19 0
BBX 19 28 0 0
BITMAP
01C000
01C000
06EC00
060C00
07FC00
03F800
004000
000000
01F000
03F800
03F800
03F800
07BC00
07BC00
079C00
0F1E00
0F1E00
0F1E00
1E0F00
1E0F00
1FFF80
3FFF80
3FFF80
3C07C0
7C03C0
7803C0
7803E0
F803E0
ENDCHAR
STARTCHAR 1EB1
ENCODING 7857
SWIDTH 576 0
DWIDTH 16 0
BBX 14 23 1 0
BITMAP
0700
0300
19B0
1C70
1FE0
0FC0
0000
0000
3FF0
3FF8
3FF8
007C
003C
003C
1FFC
7FFC
7C3C
F83C
F07C
F87C
FFFC
7FBC
3F1C
ENDCHAR
STARTCHAR 1EB2
ENCODING 7858
SWIDTH 684 0
DWIDTH 19 0
BBX 19 29 0 0
BITMAP
00E000
007000
007000
066C00
060C00
07FC00
03F800
004000
000000
01F000
03F800
03F800
03F800
07BC00
07BC00
079C00
0F1E00
0F1E00
0F1E00
1E0F00
1E0F00
1FFF80
3FFF80
3FFF80
3C07C0
7C03C0
7803C0
7803E0
F803E0
ENDCHAR
STARTCHAR 1EB3
ENCODING 7859
SWIDTH 576 0
DWIDTH 16 0
BBX 14 24 1 0
BITMAP
0380
0080
0380
1B30
1C70
1FE0
0FC0
0000
0000
3FF0
3FF8
3FF8
007C
003C
003C
1FFC
7FFC
7C3C
F83C
F07C
F87C
FFFC
7FBC
3F1C
ENDCHAR
STARTCHAR 1EB4
ENCODING 7860
SWIDTH 684 0
DWIDTH 19 0
BBX 19 29 0 0
BITMAP
03C600
07FC00
063800
000000
060C00
07FC00
03F800
004000
000000
01F000
03F800
03F800
03F800
07BC00
07BC00
079C00
0F1E00
0F1E00
0F1E00
1E0F00
1E0F00
1FFF80
3FFF80
3FFF80
3C07C0
7C03C0
7803C0
7803E0
F803E0
ENDCHAR
STARTCHAR 1EB5
ENCODING 7861
SWIDTH 576 0
DWIDTH 16 0
BBX 14 25 1 0
BITMAP
0E10
1FF0
1BF0
1000
3830
1C70
1FF0
0FC0
0000
0000
3FF0
3FF8
3FF8
007C
003C
003C
1FFC
7FFC
7C3C
F83C
F07C
F87C
FFFC
7FBC
3F1C
ENDCHAR
STARTCHAR 1EB6
ENCODING 7862
SWIDTH 684 0
DWIDTH 19 0
BBX 19 32 0 -6
BITMAP
0E0E00
071E00
07FC00
03F800
004000
000000
01F000
03F800
03F800
03F800
07BC00
07BC00
079C00
0F1E00
0F1E00
0F1E00
1E0F00
1E0F00
1FFF80
3FFF80
3FFF80
3C07C0
7C03C0
7803C0
7803E0
F803E0
000000
000000
00E000
01F000
01F000
00E000
ENDCHAR
STARTCHAR 1EB7
ENCODING 7863
SWIDTH 576 0
DWIDTH 16 0
BBX 14 27 1 -6
BITMAP
3838
1FF0
1FF0
0FC0
0000
0000
3FF0
3FF8
3FF8
007C
003C
003C
1FFC
7FFC
7C3C
F83C
F07C
F87C
FFFC
7FBC
3F1C
0000
0000
0780
0780
0780
0700
ENDCHAR
STARTCHAR 1EB8
ENCODING 7864
SWIDTH 540 0
DWIDTH 15 0
BBX 12 26 2 -6
BITMAP
FFF0
FFF0
FFF0
FFF0
F800
F800
F800
F800
FFE0
FFE0
FFE0
F800
F800
F800
F800
F800
F800
FFF0
FFF0
FFF0
0000
0000
0F00
0F80
0F80
0700
ENDCHAR
STARTCHAR 1EB9
ENCODING 7865
SWIDTH 576 0
DWIDTH 16 0
BBX 14 21 1 -6
BITMAP
0FE0
3FF8
7FF8
783C
783C
F83C
FFFC
FFFC
F000
F800
7800
7C08
3FF8
1FF8
0FF8
0000
0000
0780
0780
0780
0300
ENDCHAR
STARTCHAR 1EBA
ENCODING 7866
SWIDTH 540 0
DWIDTH 15 0
BBX 12 28 2 0
BITMAP
0E00
0F80
0FC0
01C0
03C0
0780
0700
0000
FFF0
FFF0
FFF0
FFF0
F800
F800
F800
F800
FFE0
FFE0
FFE0
F800
F800
F800
F800
F800
F800
FFF0
FFF0
FFF0
ENDCHAR
STARTCHAR 1EBB
ENCODING 7867
SWIDTH 576 0
DWIDTH 16 0
BBX 14 23 1 0
BITMAP
07C0
07E0
00E0
00E0
03E0
0380
0000
0000
0FE0
3FF8
7FF8
783C
783C
F83C
FFFC
FFFC
F000
F800
7800
7C08
3FF8
1FF8
0FF8
ENDCHAR
STARTCHAR 1EBC
ENCODING 7868
SWIDTH 540 0
DWIDTH 15 0
BBX 12 26 2 0
BITMAP
1830
3F70
7FE0
63E0
6000
0000
FFF0
FFF0
FFF0
FFF0
F800
F800
F800
F800
FFE0
FFE0
FFE0
F800
F800
F800
F800
F800
F800
FFF0
FFF0
FFF0
ENDCHAR
STARTCHAR 1EBD
ENCODING 7869
SWIDTH 576 0
DWIDTH 16 0
BBX 14 21 1 0
BITMAP
1E18
3FF8
3FF0
31E0
0000
0000
0FE0
3FF8
7FF8
783C
783C
F83C
FFFC
FFFC
F000
F800
7800
7C08
3FF8
1FF8
0FF8
ENDCHAR
STARTCHAR 1EBE
ENCODING 7870
SWIDTH 540 0
DWIDTH 15 0
BBX 15 27 2 0
BITMAP
000E
0F1C
1FB8
1FC0
38E0
7060
0000
FFF0
FFF0
FFF0
FFF0
F800
F800
F800
F800
FFE0
FFE0
FFE0
F800
F800
F800
F800
F800
F800
FFF0
FFF0
FFF0
ENDCHAR
STARTCHAR 1EBF
ENCODING 7871
SWIDTH 576 0
DWIDTH 16 0
BBX 16 23 1 0
BITMAP
0007
0007
07CE
0FF8
1EE0
1C70
0000
0000
0FE0
3FF8
7FF8
783C
783C
F83C
FFFC
FFFC
F000
F800
7800
7C08
3FF8
1FF8
0FF8
ENDCHAR
STARTCHAR 1EC0
ENCODING 7872
SWIDTH 540 0
DWIDTH 15 0
BBX 14 27 0 0
BITMAP
E000
73E0
37E0
07F0
0E38
1C18
0000
3FFC
3FFC
3FFC
3FFC
3E00
3E00
3E00
3E00
3FF8
3FF8
3FF8
3E00
3E00
3E00
3E00
3E00
3E00
3FFC
3FFC
3FFC
ENDCHAR
STARTCHAR 1EC1
ENCODING 7873
SWIDTH 576 0
DWIDTH 16 0
BBX 15 23 0 0
BITMAP
E000
E000
73E0
1FF0
0778
0E38
0000
0000
07F0
1FFC
3FFC
3C1E
3C1E
7C1E
7FFE
7FFE
7800
7C00
3C00
3E04
1FFC
0FFC
07FC
ENDCHAR
STARTCHAR 1EC2
ENCODING 7874
SWIDTH 540 0
DWIDTH 15 0
BBX 14 29 2 0
BITMAP
0038
003C
000C
0F3C
1FB0
1FC0
38E0
6060
0000
FFF0
FFF0
FFF0
FFF0
F800
F800
F800
F800
FFE0
FFE0
FFE0
F800
F800
F800
F800
F800
F800
FFF0
FFF0
FFF0
ENDCHAR
STARTCHAR 1EC3
ENCODING 7875
SWIDTH 576 0
DWIDTH 16 0
BBX 15 24 1 0
BITMAP
001E
001E
0006
07CC
0FE8
1EE0
1C70
0000
0000
0FE0
3FF8
7FF8
783C
783C
F83C
FFFC
FFFC
F000
F800
7800
7C08
3FF8
1FF8
0FF8
ENDCHAR
STARTCHAR 1EC4
ENCODING 7876
SWIDTH 540 0
DWIDTH 15 0
BBX 12 29 2 0
BITMAP
3E60
3FE0
63C0
0000
0F80
1FC0
38E0
6060
0000
FFF0
FFF0
FFF0
FFF0
F800
F800
F800
F800
FFE0
FFE0
FFE0
F800
F800
F800
F800
F800
F800
FFF0
FFF0
FFF0
ENDCHAR
STARTCHAR 1EC5
ENCODING 7877
SWIDTH 576 0
DWIDTH 16 0
BBX 14 25 1 0
BITMAP
0E10
1FF0
1BF0
1000
07C0
07C0
0EE0
1C70
0000
0000
0FE0
3FF8
7FF8
783C
783C
F83C
FFFC
FFFC
F000
F800
7800
7C08
3FF8
1FF8
0FF8
ENDCHAR
STARTCHAR 1EC6
ENCODING 7878
SWIDTH 540 0
DWIDTH 15 0
BBX 12 32 2 -6
BITMAP
0F80
1FC0
3DE0
78F0
E030
0000
FFF0
FFF0
FFF0
FFF0
F800
F800
F800
F800
FFE0
FFE0
FFE0
F800
F800
F800
F800
F800
F800
FFF0
FFF0
FFF0
0000
0000
0F00
0F80
0F80
0700
ENDCHAR
STARTCHAR 1EC7
ENCODING 7879
SWIDTH 576 0
DWIDTH 16 0
BBX 14 27 1 -6
BITMAP
0FC0
1FE0
1CF0
3878
0000
0000
0FE0
3FF8
7FF8
783C
783C
F83C
FFFC
FFFC
F000
F800
7800
7C08
3FF8
1FF8
0FF8
0000
0000
0780
0780
0780
0300
ENDCHAR
STARTCHAR 1EC8
ENCODING 7880
SWIDTH 324 0
DWIDTH 9 0
BBX 6 28 2 0
BITMAP
70
FC
FC
1C
3C
78
70
00
F8
F8
F8
F8
F8
F8
F8
F8
F8
F8
F8
F8
F8
F8
F8
F8
F8
F8
F8
F8
ENDCHAR
STARTCHAR 1EC9
ENCODING 7881
SWIDTH 288 0
DWIDTH 8 0
BBX 6 23 2 0
BITMAP
F8
F8
3C
3C
78
70
00
00
F0
F0
F0
F0
F0
F0
F0
F0
F0
F0
F0
F0
F0
F0
F0
ENDCHAR
STARTCHAR 1ECA
ENCODING 7882
SWIDTH 324 0
DWIDTH 9 0
BBX 5 26 2 -6
BITMAP
F8
F8
F8
F8
F8
F8
F8
F8
F8
F8
F8
F8
F8
F8
F8
F8
F8
F8
F8
F8
00
00
70
F8
F8
70
ENDCHAR
STARTCHAR 1ECB
ENCODING 7883
SWIDTH 288 0
DWIDTH 8 0
BBX 5 27 2 -6
BITMAP
F0
F0
F0
70
00
00
F0
F0
F0
F0
F0
F0
F0
F0
F0
F0
F0
F0
F0
F0
F0
00
00
F0
F8
F0
60
ENDCHAR
STARTCHAR 1ECC
ENCODING 7884
SWIDTH 792 0
DWIDTH 22 0
BBX 18 26 2 -6
BITMAP
07F800
1FFE00
3FFF00
7F3F80
7C0F80
F807C0
F803C0
F003C0
F003C0
F003C0
F003C0
F003C0
F003C0
F003C0
F807C0
7C0F80
7E1F80
3FFF00
1FFE00
07F800
000000
000000
01E000
01E000
01E000
00C000
ENDCHAR
STARTCHAR 1ECD
ENCODING 7885
SWIDTH 612 0
DWIDTH 17 0
BBX 15 21 1 -6
BITMAP
0FF0
3FF8
7FFC
7C3C
783E
F81E
F81E
F01E
F81E
F83E
783E
7C7C
3FFC
1FF8
0FE0
0000
0000
0380
07C0
07C0
0380
ENDCHAR
STARTCHAR 1ECE
ENCODING 7886
SWIDTH 792 0
DWIDTH 22 0
BBX 18 28 2 0
BITMAP
01C000
03F000
03F000
007800
007000
00E000
00C000
000000
07F800
1FFE00
3FFF00
7F3F80
7C0F80
F807C0
F803C0
F003C0
F003C0
F003C0
F003C0
F003C0
F003C0
F003C0
F807C0
7C0F80
7E1F80
3FFF00
1FFE00
07F800
ENDCHAR
STARTCHAR 1ECF
ENCODING 7887
SWIDTH 612 0
DWIDTH 17 0
BBX 15 23 1 0
BITMAP
07C0
07E0
00E0
00E0
03E0
0380
0000
0000
0FF0
3FF8
7FFC
7C3C
783E
F81E
F81E
F01E
F81E
F83E
783E
7C7C
3FFC
1FF8
0FE0
ENDCHAR
STARTCHAR 1ED0
ENCODING 7888
SWIDTH 792 0
DWIDTH 22 0
BBX 18 27 2 0
BITMAP
0003C0
01E380
03F600
07F800
0F3800
0C0C00
000000
07F800
1FFE00
3FFF00
7F3F80
7C0F80
F807C0
F803C0
F003C0
F003C0
F003C0
F003C0
F003C0
F003C0
F003C0
F807C0
7C0F80
7E1F80
3FFF00
1FFE00
07F800
ENDCHAR
STARTCHAR 1ED1
ENCODING 7889
SWIDTH 612 0
DWIDTH 17 0
BBX 16 23 1 0
BITMAP
0007
0007
07CE
0FF8
0EE0
1C70
0000
0000
0FF0
3FF8
7FFC
7C3C
783E
F81E
F81E
F01E
F81E
F83E
783E
7C7C
3FFC
1FF8
0FE0
ENDCHAR
STARTCHAR 1ED2
ENCODING 7890
SWIDTH 792 0
DWIDTH 22 0
BBX 18 27 2 0
BITMAP
F00000
71E000
3BF000
07F800
073800
0C0C00
000000
07F800
1FFE00
3FFF00
7F3F80
7C0F80
F807C0
F803C0
F003C0
F003C0
F003C0
F003C0
F003C0
F003C0
F003C0
F807C0
7C0F80
7E1F80
3FFF00
1FFE00
07F800
ENDCHAR
STARTCHAR 1ED3
ENCODING 7891
SWIDTH 612 0
DWIDTH 17 0
BBX 16 23 0 0
BITMAP
E000
E000
73E0
1FF0
0778
0E38
0000
0000
07F8
1FFC
3FFE
3E1E
3C1F
7C0F
7C0F
780F
7C0F
7C1F
3C1F
3E3E
1FFE
0FFC
07F0
ENDCHAR
STARTCHAR 1ED4
ENCODING 7892
SWIDTH 792 0
DWIDTH 22 0
BBX 18 29 2 0
BITMAP
000600
000780
000180
01E700
03F600
07F800
0F3800
0C0C00
000000
07F800
1FFE00
3FFF00
7F3F80
7C0F80
F807C0
F803C0
F003C0
F003C0
F003C0
F003C0
F003C0
F003C0
F003C0
F807C0
7C0F80
7E1F80
3FFF00
1FFE00
07F800
ENDCHAR
STARTCHAR 1ED5
ENCODING 7893
SWIDTH 612 0
DWIDTH 17 0
BBX 15 24 1 0
BITMAP
001E
001E
0006
07CC
0FEC
0EE0
1C70
0000
0000
0FF0
3FF8
7FFC
7C3C
783E
F81E
F81E
F01E
F81E
F83E
783E
7C7C
3FFC
1FF8
0FE0
ENDCHAR
STARTCHAR 1ED6
ENCODING 7894
SWIDTH 792 0
DWIDTH 22 0
BBX 18 29 2 0
BITMAP
07CC00
0FF800
0C7800
000000
01E000
03F000
073800
0C0C00
000000
07F800
1FFE00
3FFF00
7F3F80
7C0F80
F807C0
F803C0
F003C0
F003C0
F003C0
F003C0
F003C0
F003C0
F003C0
F807C0
7C0F80
7E1F80
3FFF00
1FFE00
07F800
ENDCHAR
STARTCHAR 1ED7
ENCODING 7895
SWIDTH 612 0
DWIDTH 17 0
BBX 15 25 1 0
BITMAP
0618
1FF0
1BF0
1040
03C0
07C0
0EE0
1C30
0000
0000
0FF0
3FF8
7FFC
7C3C
783E
F81E
F81E
F01E
F81E
F83E
783E
7C7C
3FFC
1FF8
0FE0
ENDCHAR
STARTCHAR 1ED8
ENCODING 7896
SWIDTH 792 0
DWIDTH 22 0
BBX 18 32 2 -6
BITMAP
03F000
03F800
07F800
0E1C00
1C0E00
000000
07F800
1FFE00
3FFF00
7F3F80
7C0F80
F807C0
F803C0
F003C0
F003C0
F003C0
F003C0
F003C0
F003C0
F003C0
F807C0
7C0F80
7E1F80
3FFF00
1FFE00
07F800
000000
000000
01E000
01E000
01E000
00C000
ENDCHAR
STARTCHAR 1ED9
ENCODING 7897
SWIDTH 612 0
DWIDTH 17 0
BBX 15 27 1 -6
BITMAP
07E0
0FE0
1EF0
3838
0000
0000
0FF0
3FF8
7FFC
7C3C
783E
F81E
F81E
F01E
F81E
F83E
783E
7C7C
3FFC
1FF8
0FE0
0000
0000
0380
07C0
07C0
0380
ENDCHAR
STARTCHAR 1EDA
ENCODING 7898
SWIDTH 792 0
DWIDTH 22 0
BBX 22 26 2 0
BITMAP
007C00
007800
00F000
01E000
018000
00007C
07F878
1FFE78
3FFFF8
7F3FF0
7C0FE0
F807C0
F803C0
F003C0
F003C0
F003C0
F003C0
F003C0
F003C0
F003C0
F807C0
7C0F80
7E1F80
3FFF00
1FFE00
07F800
ENDCHAR
STARTCHAR 1EDB
ENCODING 7899
SWIDTH 648 0
DWIDTH 18 0
BBX 19 21 1 0
BITMAP
00F000
01E000
03C000
078000
0001E0
0001E0
0FF3C0
3FFFC0
7FFF80
7C3E00
783E00
F81E00
F81E00
F01E00
F81E00
F83E00
783E00
7C7C00
3FFC00
1FF800
0FE000
ENDCHAR
STARTCHAR 1EDC
ENCODING 7900
SWIDTH 792 0
DWIDTH 22 0
BBX 22 26 2 0
BITMAP
0F8000
078000
03C000
01E000
007000
00007C
07F878
1FFE78
3FFFF8
7F3FF0
7C0FE0
F807C0
F803C0
F003C0
F003C0
F003C0
F003C0
F003C0
F003C0
F003C0
F807C0
7C0F80
7E1F80
3FFF00
1FFE00
07F800
ENDCHAR
STARTCHAR 1EDD
ENCODING 7901
SWIDTH 648 0
DWIDTH 18 0
BBX 19 21 1 0
BITMAP
1E0000
0F0000
078000
03C000
0001E0
0001E0
0FF3C0
3FFFC0
7FFF80
7C3E00
783E00
F81E00
F81E00
F01E00
F81E00
F83E00
783E00
7C7C00
3FFC00
1FF800
0FE000
ENDCHAR
STARTCHAR 1EDE
ENCODING 7902
SWIDTH 792 0
DWIDTH 22 0
BBX 22 28 2 0
BITMAP
01C000
01F000
01F800
003800
007800
00F000
00E000
00007C
07F878
1FFE78
3FFFF8
7F3FF0
7C0FE0
F807C0
F803C0
F003C0
F003C0
F003C0
F003C0
F003C0
F003C0
F003C0
F807C0
7C0F80
7E1F80
3FFF00
1FFE00
07F800
ENDCHAR
STARTCHAR 1EDF
ENCODING 7903
SWIDTH 648 0
DWIDTH 18 0
BBX 19 23 1 0
BITMAP
07C000
07E000
00E000
00E000
03E000
038000
0001E0
0001E0
0FF3C0
3FFFC0
7FFF80
7C3E00
783E00
F81E00
F81E00
F01E00
F81E00
F83E00
783E00
7C7C00
3FFC00
1FF800
0FE000
ENDCHAR
STARTCHAR 1EE0
ENCODING 7904
SWIDTH 792 0
DWIDTH 22 0
BBX 22 26 2 0
BITMAP
030600
0FCC00
0FFC00
0CF800
180000
00007C
07F878
1FFE78
3FFFF8
7F3FF0
7C0FE0
F807C0
F803C0
F003C0
F003C0
F003C0
F003C0
F003C0
F003C0
F003C0
F807C0
7C0F80
7E1F80
3FFF00
1FFE00
07F800
ENDCHAR
STARTCHAR 1EE1
ENCODING 7905
SWIDTH 648 0
DWIDTH 18 0
BBX 19 21 1 0
BITMAP
0E1800
1FF800
3FF800
31F000
0001E0
0001E0
0FF3C0
3FFFC0
7FFF80
7C3E00
783E00
F81E00
F81E00
F01E00
F81E00
F83E00
783E00
7C7C00
3FFC00
1FF800
0FE000
ENDCHAR
STARTCHAR 1EE2
ENCODING 7906
SWIDTH 792 0
DWIDTH 22 0
BBX 22 27 2 -6
BITMAP
00007C
07F878
1FFE78
3FFFF8
7F3FF0
7C0FE0
F807C0
F803C0
F003C0
F003C0
F003C0
F003C0
F003C0
F003C0
F003C0
F807C0
7C0F80
7E1F80
3FFF00
1FFE00
07F800
000000
000000
01E000
01E000
01E000
00C000
ENDCHAR
STARTCHAR 1EE3
ENCODING 7907
SWIDTH 648 0
DWIDTH 18 0
BBX 19 23 1 -6
BITMAP
0001E0
0001E0
0FF3C0
3FFFC0
7FFF80
7C3E00
783E00
F81E00
F81E00
F01E00
F81E00
F83E00
783E00
7C7C00
3FFC00
1FF800
0FE000
000000
000000
03C000
07C000
07C000
038000
ENDCHAR
STARTCHAR 1EE4
ENCODING 7908
SWIDTH 756 0
DWIDTH 21 0
BBX 17 26 2 -6
BITMAP
F80F80
F80F80
F80F80
F80F80
F80F80
F80F80
F80F80
F80F80
F80F80
F80F80
F80F80
F80F80
F80F80
F80F80
F80F80
780F00
7E3F00
3FFE00
1FFC00
0FF800
000000
000000
03C000
03E000
03E000
01C000
ENDCHAR
STARTCHAR 1EE5
ENCODING 7909
SWIDTH 648 0
DWIDTH 18 0
BBX 14 21 2 -6
BITMAP
F03C
F03C
F03C
F03C
F03C
F03C
F03C
F03C
F03C
F03C
F07C
F8FC
7FFC
7FFC
3F9C
0000
0000
0780
0780
0780
0300
ENDCHAR
STARTCHAR 1EE6
ENCODING 7910
SWIDTH 756 0
DWIDTH 21 0
BBX 17 28 2 0
BITMAP
038000
03E000
03F000
007000
00F000
01E000
01C000
000000
F80F80
F80F80
F80F80
F80F80
F80F80
F80F80
F80F80
F80F80
F80F80
F80F80
F80F80
F80F80
F80F80
F80F80
F80F80
780F00
7E3F00
3FFE00
1FFC00
0FF800
ENDCHAR
STARTCHAR 1EE7
ENCODING 7911
SWIDTH 648 0
DWIDTH 18 0
BBX 14 23 2 0
BITMAP
0F80
0FC0
01C0
01C0
07C0
0300
0000
0000
F03C
F03C
F03C
F03C
F03C
F03C
F03C
F03C
F03C
F03C
F07C
F8FC
7FFC
7FFC
3F9C
ENDCHAR
STARTCHAR 1EE8
ENCODING 7912
SWIDTH 864 0
DWIDTH 24 0
BBX 23 26 2 0
BITMAP
007C00
00F800
01E000
01C000
038000
00001E
F80FBE
F80FBC
F80FFC
F80FF8
F80FE0
F80F80
F80F80
F80F80
F80F80
F80F80
F80F80
F80F80
F80F80
F80F80
F80F80
780F00
7E3F00
3FFE00
1FFC00
0FF800
ENDCHAR
STARTCHAR 1EE9
ENCODING 7913
SWIDTH 756 0
DWIDTH 21 0
BBX 20 21 2 0
BITMAP
01F000
01E000
03C000
070000
0000F0
0000F0
F03DF0
F03FE0
F03FC0
F03F00
F03C00
F03C00
F03C00
F03C00
F03C00
F03C00
F07C00
F8FC00
7FFC00
7FFC00
3F9C00
ENDCHAR
STARTCHAR 1EEA
ENCODING 7914
SWIDTH 864 0
DWIDTH 24 0
BBX 23 26 2 0
BITMAP
1F0000
0F8000
03C000
01C000
00E000
00001E
F80FBE
F80FBC
F80FFC
F80FF8
F80FE0
F80F80
F80F80
F80F80
F80F80
F80F80
F80F80
F80F80
F80F80
F80F80
F80F80
780F00
7E3F00
3FFE00
1FFC00
0FF800
ENDCHAR
STARTCHAR 1EEB
ENCODING 7915
SWIDTH 756 0
DWIDTH 21 0
BBX 20 21 2 0
BITMAP
3E0000
0F0000
078000
038000
0000F0
0000F0
F03DF0
F03FE0
F03FC0
F03F00
F03C00
F03C00
F03C00
F03C00
F03C00
F03C00
F07C00
F8FC00
7FFC00
7FFC00
3F9C00
ENDCHAR
STARTCHAR 1EEC
ENCODING 7916
SWIDTH 864 0
DWIDTH 24 0
BBX 23 28 2 0
BITMAP
01C000
03E000
03F000
007000
00F000
01E000
01C000
00001E
F80FBE
F80FBC
F80FFC
F80FF8
F80FE0
F80F80
F80F80
F80F80
F80F80
F80F80
F80F80
F80F80
F80F80
F80F80
F80F80
780F00
7E3F00
3FFE00
1FFC00
0FF800
ENDCHAR
STARTCHAR 1EED
ENCODING 7917
SWIDTH 756 0
DWIDTH 21 0
BBX 20 23 2 0
BITMAP
0F8000
0FC000
09E000
01C000
03C000
030000
0000F0
0000F0
F03DF0
F03FE0
F03FC0
F03F00
F03C00
F03C00
F03C00
F03C00
F03C00
F03C00
F07C00
F8FC00
7FFC00
7FFC00
3F9C00
ENDCHAR
STARTCHAR 1EEE
ENCODING 7918
SWIDTH 864 0
DWIDTH 24 0
BBX 23 26 2 0
BITMAP
030C00
0FDC00
1FFC00
18F800
180000
00001E
F80FBE
F80FBC
F80FFC
F80FF8
F80FE0
F80F80
F80F80
F80F80
F80F80
F80F80
F80F80
F80F80
F80F80
F80F80
F80F80
780F00
7E3F00
3FFE00
1FFC00
0FF800
ENDCHAR
STARTCHAR 1EEF
ENCODING 7919
SWIDTH 756 0
DWIDTH 21 0
BBX 20 21 2 0
BITMAP
1E1800
3FF000
3FF000
31E000
0000F0
0000F0
F03DF0
F03FE0
F03FC0
F03F00
F03C00
F03C00
F03C00
F03C00
F03C00
F03C00
F07C00
F8FC00
7FFC00
7FFC00
3F9C00
ENDCHAR
STARTCHAR 1EF0
ENCODING 7920
SWIDTH 864 0
DWIDTH 24 0
BBX 23 27 2 -6
BITMAP
00001E
F80FBE
F80FBC
F80FFC
F80FF8
F80FE0
F80F80
F80F80
F80F80
F80F80
F80F80
F80F80
F80F80
F80F80
F80F80
F80F80
780F00
7E3F00
3FFE00
1FFC00
0FF800
000000
000000
03C000
03E000
03E000
01C000
ENDCHAR
STARTCHAR 1EF1
ENCODING 7921
SWIDTH 756 0
DWIDTH 21 0
BBX 20 23 2 -6
BITMAP
0000F0
0000F0
F03DF0
F03FE0
F03FC0
F03F00
F03C00
F03C00
F03C00
F03C00
F03C00
F03C00
F07C00
F8FC00
7FFC00
7FFC00
3F9C00
000000
000000
078000
078000
078000
030000
ENDCHAR
STARTCHAR 1EF2
ENCODING 7922
SWIDTH 612 0
DWIDTH 17 0
BBX 17 26 0 0
BITMAP
0F0000
078000
03C000
01E000
00E000
000000
F80780
780F80
7C0F00
3C1F00
3E1E00
1E3C00
1F3C00
0F7800
0FF800
07F000
03F000
03E000
01E000
01E000
01E000
01E000
01E000
01E000
01E000
01E000
ENDCHAR
STARTCHAR 1EF3
ENCODING 7923
SWIDTH 540 0
DWIDTH 15 0
BBX 16 28 0 -7
BITMAP
1F00
0F80
0780
01C0
0000
0000
F81F
781E
783E
7C3C
3C3C
3C7C
1E78
1E78
1E78
0FF0
0FF0
07E0
07E0
07E0
03C0
03C0
07C0
0780
7F80
7F00
7E00
7800
ENDCHAR
STARTCHAR 1EF4
ENCODING 7924
SWIDTH 612 0
DWIDTH 17 0
BBX 17 26 0 -6
BITMAP
F80780
780F80
7C0F00
3C1F00
3E1E00
1E3C00
1F3C00
0F7800
0FF800
07F000
03F000
03E000
01E000
01E000
01E000
01E000
01E000
01E000
01E000
01E000
000000
000000
01E000
03E000
03E000
01C000
ENDCHAR
STARTCHAR 1EF5
ENCODING 7925
SWIDTH 540 0
DWIDTH 15 0
BBX 16 22 0 -7
BITMAP
F81F
781E
783E
7C3C
3C3C
3C7C
1E78
1E78
1E78
0FF0
0FF0
07E0
07E0
07E0
03C0
03C0
07C0
079E
7FBE
7F3E
7E1C
7800
ENDCHAR
STARTCHAR 1EF6
ENCODING 7926
SWIDTH 612 0
DWIDTH 17 0
BBX 17 28 0 0
BITMAP
018000
03E000
03F000
007000
00F000
01E000
01C000
000000
F80780
780F80
7C0F00
3C1F00
3E1E00
1E3C00
1F3C00
0F7800
0FF800
07F000
03F000
03E000
01E000
01E000
01E000
01E000
01E000
01E000
01E000
01E000
ENDCHAR
STARTCHAR 1EF7
ENCODING 7927
SWIDTH 540 0
DWIDTH 15 0
BBX 16 30 0 -7
BITMAP
07C0
07E0
00E0
00E0
03E0
0380
0000
0000
F81F
781E
783E
7C3C
3C3C
3C7C
1E78
1E78
1E78
0FF0
0FF0
07E0
07E0
07E0
03C0
03C0
07C0
0780
7F80
7F00
7E00
7800
ENDCHAR
STARTCHAR 1EF8
ENCODING 7928
SWIDTH 612 0
DWIDTH 17 0
BBX 17 26 0 0
BITMAP
030C00
0FDC00
1FFC00
1CF800
182000
000000
F80780
780F80
7C0F00
3C1F00
3E1E00
1E3C00
1F3C00
0F7800
0FF800
07F000
03F000
03E000
01E000
01E000
01E000
01E000
01E000
01E000
01E000
01E000
ENDCHAR
STARTCHAR 1EF9
ENCODING 7929
SWIDTH 540 0
DWIDTH 15 0
BBX 16 28 0 -7
BITMAP
0F18
1FF8
1FF8
38F0
0000
0000
F81F
781E
783E
7C3C
3C3C
3C7C
1E78
1E78
1E78
0FF0
0FF0
07E0
07E0
07E0
03C0
03C0
07C0
0780
7F80
7F00
7E00
7800
ENDCHAR
STARTCHAR 1F4D
ENCODING 8013
SWIDTH 1008 0
DWIDTH 28 0
BBX 27 20 0 0
BITMAP
E787F800
E71FFE00
C73FFF00
6E7F3F80
3C7C0F80
00F807C0
00F803C0
00F003C0
00F003C0
00F003E0
00F003E0
00F003C0
00F003C0
00F803C0
00F807C0
007C0780
007E1F80
003FFF00
001FFE00
0007F800
ENDCHAR
STARTCHAR 1FDE
ENCODING 8158
SWIDTH 576 0
DWIDTH 16 0
BBX 8 5 4 17
BITMAP
40
E7
E7
CE
6C
ENDCHAR
STARTCHAR 2000
ENCODING 8192
SWIDTH 468 0
DWIDTH 13 0
BBX 0 0 0 0
BITMAP
ENDCHAR
STARTCHAR 2001
ENCODING 8193
SWIDTH 972 0
DWIDTH 27 0
BBX 0 0 0 0
BITMAP
ENDCHAR
STARTCHAR 2002
ENCODING 8194
SWIDTH 468 0
DWIDTH 13 0
BBX 0 0 0 0
BITMAP
ENDCHAR
STARTCHAR 2003
ENCODING 8195
SWIDTH 972 0
DWIDTH 27 0
BBX 0 0 0 0
BITMAP
ENDCHAR
STARTCHAR 2004
ENCODING 8196
SWIDTH 324 0
DWIDTH 9 0
BBX 0 0 0 0
BITMAP
ENDCHAR
STARTCHAR 2005
ENCODING 8197
SWIDTH 216 0
DWIDTH 6 0
BBX 0 0 0 0
BITMAP
ENDCHAR
STARTCHAR 2006
ENCODING 8198
SWIDTH 144 0
DWIDTH 4 0
BBX 0 0 0 0
BITMAP
ENDCHAR
STARTCHAR 2007
ENCODING 8199
SWIDTH 540 0
DWIDTH 15 0
BBX 0 0 0 0
BITMAP
ENDCHAR
STARTCHAR 2008
ENCODING 8200
SWIDTH 252 0
DWIDTH 7 0
BBX 0 0 0 0
BITMAP
ENDCHAR
STARTCHAR 2009
ENCODING 8201
SWIDTH 144 0
DWIDTH 4 0
BBX 0 0 0 0
BITMAP
ENDCHAR
STARTCHAR 200A
ENCODING 8202
SWIDTH 72 0
DWIDTH 2 0
BBX 0 0 0 0
BITMAP
ENDCHAR
STARTCHAR 200B
ENCODING 8203
SWIDTH 0 0
DWIDTH 0 0
BBX 0 0 0 0
BITMAP
ENDCHAR
STARTCHAR 2013
ENCODING 8211
SWIDTH 468 0
DWIDTH 13 0
BBX 12 3 1 6
BITMAP
FFF0
FFF0
FFF0
ENDCHAR
STARTCHAR 2014
ENCODING 8212
SWIDTH 972 0
DWIDTH 27 0
BBX 26 3 1 6
BITMAP
FFFFFFC0
FFFFFFC0
FFFFFFC0
ENDCHAR
STARTCHAR 2015
ENCODING 8213
SWIDTH 972 0
DWIDTH 27 0
BBX 26 3 1 6
BITMAP
FFFFFFC0
FFFFFFC0
FFFFFFC0
ENDCHAR
STARTCHAR 2017
ENCODING 8215
SWIDTH 396 0
DWIDTH 11 0
BBX 11 5 0 -6
BITMAP
FFE0
FFE0
0000
FFE0
FFE0
ENDCHAR
STARTCHAR 2018
ENCODING 8216
SWIDTH 216 0
DWIDTH 6 0
BBX 6 7 0 13
BITMAP
1C
38
38
78
78
78
F0
ENDCHAR
STARTCHAR 2019
ENCODING 8217
SWIDTH 216 0
DWIDTH 6 0
BBX 6 7 0 13
BITMAP
3C
78
78
78
70
70
F0
ENDCHAR
STARTCHAR 201A
ENCODING 8218
SWIDTH 252 0
DWIDTH 7 0
BBX 5 7 1 -4
BITMAP
78
78
70
70
F0
E0
E0
ENDCHAR
STARTCHAR 201B
ENCODING 8219
SWIDTH 216 0
DWIDTH 6 0
BBX 6 7 0 13
BITMAP
F0
78
78
78
38
38
1C
ENDCHAR
STARTCHAR 201C
ENCODING 8220
SWIDTH 432 0
DWIDTH 12 0
BBX 12 7 0 13
BITMAP
1C70
38F0
38F0
78E0
79E0
79E0
F1E0
ENDCHAR
STARTCHAR 201D
ENCODING 8221
SWIDTH 432 0
DWIDTH 12 0
BBX 12 7 0 13
BITMAP
3CF0
78F0
78E0
79E0
71E0
71C0
F1C0
ENDCHAR
STARTCHAR 201E
ENCODING 8222
SWIDTH 504 0
DWIDTH 14 0
BBX 11 7 1 -4
BITMAP
79E0
79E0
71E0
71C0
F1C0
E3C0
E380
ENDCHAR
STARTCHAR 2020
ENCODING 8224
SWIDTH 504 0
DWIDTH 14 0
BBX 11 21 2 0
BITMAP
1E00
1E00
1E00
0C00
0C00
FDE0
FFE0
FFE0
0C00
0C00
0C00
0C00
0C00
0C00
0E00
1E00
1E00
1E00
1E00
1E00
1E00
ENDCHAR
STARTCHAR 2021
ENCODING 8225
SWIDTH 504 0
DWIDTH 14 0
BBX 11 21 2 0
BITMAP
1E00
0E00
0E00
0E00
0C00
FFE0
FFE0
FDE0
0E00
0E00
1E00
0E00
0E00
FFE0
FFE0
FFE0
0C00
0E00
0E00
1E00
1E00
ENDCHAR
STARTCHAR 2022
ENCODING 8226
SWIDTH 360 0
DWIDTH 10 0
BBX 8 8 1 6
BITMAP
7E
7F
FF
FF
FF
7F
7E
3E
ENDCHAR
STARTCHAR 2026
ENCODING 8230
SWIDTH 828 0
DWIDTH 23 0
BBX 20 4 2 0
BITMAP
F0F0F0
F0F1F0
F0F1F0
F0F0F0
ENDCHAR
STARTCHAR 2030
ENCODING 8240
SWIDTH 1260 0
DWIDTH 35 0
BBX 34 20 1 0
BITMAP
3E01C00000
7F01C00000
FF83800000
F783800000
E387000000
E38F000000
E38E000000
E39E000000
F39CF83F00
F7B9FC7F80
7F3BFE7F80
3E739E7380
00738EF3C0
00E38EF3C0
01E38EF3C0
01C38EF3C0
03C39E7380
0383FE7F80
0701FC7F80
0700F83F00
ENDCHAR
STARTCHAR 2032
ENCODING 8242
SWIDTH 288 0
DWIDTH 8 0
BBX 6 7 2 13
BITMAP
1C
3C
38
70
70
E0
E0
ENDCHAR
STARTCHAR 2033
ENCODING 8243
SWIDTH 504 0
DWIDTH 14 0
BBX 13 7 2 13
BITMAP
1C78
3CF0
38E0
71E0
71C0
E380
E380
ENDCHAR
STARTCHAR 2039
ENCODING 8249
SWIDTH 360 0
DWIDTH 10 0
BBX 8 13 1 1
BITMAP
04
0F
1E
3E
3C
78
F0
78
3C
3E
1F
0E
04
ENDCHAR
STARTCHAR 203A
ENCODING 8250
SWIDTH 360 0
DWIDTH 10 0
BBX 8 12 1 1
BITMAP
20
F0
78
3C
3E
1F
0F
1E
3E
7C
78
70
ENDCHAR
STARTCHAR 203C
ENCODING 8252
SWIDTH 540 0
DWIDTH 15 0
BBX 12 20 2 0
BITMAP
F0F0
F0F0
F0F0
F0F0
F0F0
F0F0
F0F0
F0F0
F0F0
F0F0
F0F0
F0F0
F0F0
0000
0000
0000
F0F0
F0F0
F0F0
F0F0
ENDCHAR
STARTCHAR 2044
ENCODING 8260
SWIDTH 108 0
DWIDTH 3 0
BBX 14 20 -5 0
BITMAP
003C
0038
0078
0070
00F0
00E0
01C0
01C0
0380
0780
0700
0F00
0E00
1E00
1C00
3800
3800
7000
F000
E000
ENDCHAR
STARTCHAR 2070
ENCODING 8304
SWIDTH 360 0
DWIDTH 10 0
BBX 9 13 1 11
BITMAP
1800
7E00
FF00
F780
E780
E780
E380
E780
E780
E780
FF00
7F00
1800
ENDCHAR
STARTCHAR 2074
ENCODING 8308
SWIDTH 360 0
DWIDTH 10 0
BBX 10 12 0 12
BITMAP
0780
0780
0F80
1F80
1F80
3780
7780
6780
FFC0
FFC0
0780
0780
ENDCHAR
STARTCHAR 2075
ENCODING 8309
SWIDTH 360 0
DWIDTH 10 0
BBX 9 12 1 11
BITMAP
7F00
7F00
6000
E000
FE00
FF00
0780
0380
0780
FF00
FE00
3800
ENDCHAR
STARTCHAR 2076
ENCODING 8310
SWIDTH 360 0
DWIDTH 10 0
BBX 9 13 1 11
BITMAP
0F00
3F00
7F00
F000
E000
FF00
FF80
E380
E380
E380
FF00
7F00
1C00
ENDCHAR
STARTCHAR 2077
ENCODING 8311
SWIDTH 360 0
DWIDTH 10 0
BBX 9 11 1 12
BITMAP
FF80
FF80
0700
0700
0F00
0E00
0E00
1C00
1C00
3800
3800
ENDCHAR
STARTCHAR 2078
ENCODING 8312
SWIDTH 360 0
DWIDTH 10 0
BBX 9 13 1 11
BITMAP
1C00
7F00
FF00
E700
F700
7E00
7E00
FF00
E380
E380
FF80
7F00
1C00
ENDCHAR
STARTCHAR 2079
ENCODING 8313
SWIDTH 360 0
DWIDTH 10 0
BBX 9 13 1 11
BITMAP
1C00
7E00
FF00
E300
E380
E380
FF80
7B80
0300
0700
7F00
7E00
7000
ENDCHAR
STARTCHAR 207A
ENCODING 8314
SWIDTH 324 0
DWIDTH 9 0
BBX 8 8 1 8
BITMAP
18
18
18
FF
FF
18
18
18
ENDCHAR
STARTCHAR 207C
ENCODING 8316
SWIDTH 324 0
DWIDTH 9 0
BBX 8 5 1 10
BITMAP
FF
FF
00
FF
FF
ENDCHAR
STARTCHAR 207D
ENCODING 8317
SWIDTH 216 0
DWIDTH 6 0
BBX 5 16 1 6
BITMAP
38
30
70
60
E0
E0
E0
E0
E0
E0
E0
E0
60
70
30
38
ENDCHAR
STARTCHAR 207E
ENCODING 8318
SWIDTH 216 0
DWIDTH 6 0
BBX 5 16 1 6
BITMAP
C0
60
70
70
30
30
38
38
38
38
38
30
30
70
60
C0
ENDCHAR
STARTCHAR 207F
ENCODING 8319
SWIDTH 396 0
DWIDTH 11 0
BBX 10 9 1 8
BITMAP
FF00
FF80
F180
E1C0
E1C0
E1C0
E1C0
E1C0
E1C0
ENDCHAR
STARTCHAR 2080
ENCODING 8320
SWIDTH 360 0
DWIDTH 10 0
BBX 9 12 1 -3
BITMAP
7E00
FF00
F700
E780
E780
E380
E780
E780
E780
FF00
7F00
3C00
ENDCHAR
STARTCHAR 2081
ENCODING 8321
SWIDTH 360 0
DWIDTH 10 0
BBX 6 12 2 -4
BITMAP
3C
7C
FC
DC
1C
1C
1C
1C
1C
1C
1C
1C
ENDCHAR
STARTCHAR 2082
ENCODING 8322
SWIDTH 360 0
DWIDTH 10 0
BBX 9 13 1 -4
BITMAP
0800
7E00
FF00
4700
0700
0F00
0E00
1C00
3800
7000
FF80
FF80
FF80
ENDCHAR
STARTCHAR 2083
ENCODING 8323
SWIDTH 360 0
DWIDTH 10 0
BBX 8 13 1 -4
BITMAP
10
FE
FF
47
07
3E
3C
3F
07
07
EF
FF
7C
ENDCHAR
STARTCHAR 2084
ENCODING 8324
SWIDTH 360 0
DWIDTH 10 0
BBX 10 12 0 -4
BITMAP
0780
0F80
1F80
1F80
3F80
7780
6780
FFC0
FFC0
FFC0
0780
0780
ENDCHAR
STARTCHAR 2085
ENCODING 8325
SWIDTH 360 0
DWIDTH 10 0
BBX 9 12 1 -4
BITMAP
7F00
7F00
6000
E000
FE00
FF00
0780
0380
0380
FF00
FF00
7C00
ENDCHAR
STARTCHAR 2086
ENCODING 8326
SWIDTH 360 0
DWIDTH 10 0
BBX 9 13 1 -4
BITMAP
0600
3F00
7F00
F000
E000
FF00
FF00
E380
E380
E380
FF80
7F00
1C00
ENDCHAR
STARTCHAR 2087
ENCODING 8327
SWIDTH 360 0
DWIDTH 10 0
BBX 9 12 1 -4
BITMAP
FF80
FF80
0380
0700
0700
0E00
0E00
1C00
1C00
3800
3800
7800
ENDCHAR
STARTCHAR 2088
ENCODING 8328
SWIDTH 360 0
DWIDTH 10 0
BBX 9 13 1 -4
BITMAP
0800
7F00
FF00
E700
E700
7F00
3E00
FF00
E780
E380
E780
FF00
3E00
ENDCHAR
STARTCHAR 2089
ENCODING 8329
SWIDTH 360 0
DWIDTH 10 0
BBX 9 12 1 -3
BITMAP
7E00
FF00
E700
E380
E380
FF80
7B80
0380
0700
7F00
7E00
7800
ENDCHAR
STARTCHAR 208A
ENCODING 8330
SWIDTH 324 0
DWIDTH 9 0
BBX 8 8 1 -3
BITMAP
18
18
18
FF
FF
18
18
18
ENDCHAR
STARTCHAR 208C
ENCODING 8332
SWIDTH 324 0
DWIDTH 9 0
BBX 8 5 1 -2
BITMAP
FF
00
00
FF
FF
ENDCHAR
STARTCHAR 208D
ENCODING 8333
SWIDTH 216 0
DWIDTH 6 0
BBX 5 16 1 -6
BITMAP
38
30
70
60
E0
E0
E0
E0
E0
E0
E0
E0
60
70
30
38
ENDCHAR
STARTCHAR 208E
ENCODING 8334
SWIDTH 216 0
DWIDTH 6 0
BBX 5 16 1 -6
BITMAP
E0
60
70
30
30
38
38
38
38
38
30
30
70
70
60
C0
ENDCHAR
STARTCHAR 2095
ENCODING 8341
SWIDTH 396 0
DWIDTH 11 0
BBX 10 13 1 -3
BITMAP
E000
E000
E000
E600
FF80
FB80
E1C0
E1C0
E1C0
E1C0
E1C0
E1C0
E1C0
ENDCHAR
STARTCHAR 2096
ENCODING 8342
SWIDTH 396 0
DWIDTH 11 0
BBX 10 13 1 -3
BITMAP
E000
E000
E000
E000
E380
E700
EE00
FC00
FE00
F700
E700
E380
E1C0
ENDCHAR
STARTCHAR 2097
ENCODING 8343
SWIDTH 180 0
DWIDTH 5 0
BBX 3 13 1 -3
BITMAP
E0
E0
E0
E0
E0
E0
E0
E0
E0
E0
E0
E0
E0
ENDCHAR
STARTCHAR 2098
ENCODING 8344
SWIDTH 612 0
DWIDTH 17 0
BBX 15 10 1 -3
BITMAP
0418
FFFE
FBEE
E386
E186
E186
E186
E186
E186
E186
ENDCHAR
STARTCHAR 2099
ENCODING 8345
SWIDTH 396 0
DWIDTH 11 0
BBX 10 10 1 -3
BITMAP
0600
FF80
FB80
E1C0
E1C0
E1C0
E1C0
E1C0
E1C0
E1C0
ENDCHAR
STARTCHAR 209A
ENCODING 8346
SWIDTH 396 0
DWIDTH 11 0
BBX 10 14 1 -7
BITMAP
0400
FF00
F380
E180
E1C0
E1C0
E1C0
F380
FF80
EE00
E000
E000
E000
E000
ENDCHAR
STARTCHAR 209B
ENCODING 8347
SWIDTH 288 0
DWIDTH 8 0
BBX 7 10 1 -3
BITMAP
18
FE
E6
E0
F8
3E
0E
86
FE
78
ENDCHAR
STARTCHAR 209C
ENCODING 8348
SWIDTH 252 0
DWIDTH 7 0
BBX 7 11 0 -3
BITMAP
30
30
FE
30
30
30
30
30
38
3E
1E
ENDCHAR
STARTCHAR 20A3
ENCODING 8355
SWIDTH 540 0
DWIDTH 15 0
BBX 14 20 0 0
BITMAP
3FFC
3FFC
3FFC
3FFC
3E00
3E00
3E00
3E00
3FFC
3FFC
3FFC
3FFC
3E00
3E00
FFE0
FFE0
3E00
3E00
3E00
3E00
ENDCHAR
STARTCHAR 20A4
ENCODING 8356
SWIDTH 540 0
DWIDTH 15 0
BBX 14 20 1 0
BITMAP
07F0
0FFC
1FF8
1F18
1E00
1E00
1E00
FFF0
FFF0
FFF0
1E00
FFF0
FFF0
1E00
3C00
3C00
FFFC
FFFC
FFFC
FFFC
ENDCHAR
STARTCHAR 20A7
ENCODING 8359
SWIDTH 864 0
DWIDTH 24 0
BBX 22 20 2 0
BITMAP
FF8000
FFE000
FFF000
FFF000
F0F800
F078C0
F078C0
F079C0
F0F9C0
FFF7FC
FFF7FC
FFE1C0
FF81C0
F001C0
F001C0
F001C0
F001C0
F001FC
F001FC
F000FC
ENDCHAR
STARTCHAR 20AA
ENCODING 8362
SWIDTH 900 0
DWIDTH 25 0
BBX 21 20 2 0
BITMAP
FFE038
FFF838
FFFC38
F03E38
F01E38
F3CE38
F3CE38
F3CE38
F3CE38
F3CE38
F3CE38
F3CE38
F3CE38
F3CE78
F3CE78
F3C078
F3C0F0
F3FFF0
F3FFE0
F3FF80
ENDCHAR
STARTCHAR 20AB
ENCODING 8363
SWIDTH 648 0
DWIDTH 18 0
BBX 17 25 1 -4
BITMAP
003C00
003C00
03FF80
03FF80
03FF80
003C00
023C00
1FBC00
3FDC00
7FFC00
7C3C00
F83C00
F83C00
F01C00
F81C00
F83C00
F83C00
7C7C00
7FFC00
3FDC00
1F9C00
000000
000000
3FFC00
3FFC00
ENDCHAR
STARTCHAR 20AC
ENCODING 8364
SWIDTH 540 0
DWIDTH 15 0
BBX 15 20 1 0
BITMAP
01F8
07FE
0FFC
1F9C
3E00
3C00
3C00
FFE0
FFE0
FFE0
7C00
FFC0
FFC0
3C00
3C00
3E00
1F8C
1FFC
0FFC
03FC
ENDCHAR
STARTCHAR 2105
ENCODING 8453
SWIDTH 792 0
DWIDTH 22 0
BBX 20 20 1 0
BITMAP
3E0780
7E0700
F20E00
E00E00
E01C00
E01C00
E03800
FE7800
7E7000
1EF000
00E100
01E7E0
01CFF0
039C70
039C70
071C70
0F1C70
0E1C70
1E0FE0
1C07C0
ENDCHAR
STARTCHAR 2113
ENCODING 8467
SWIDTH 504 0
DWIDTH 14 0
BBX 12 20 1 0
BITMAP
0FC0
1FE0
3FF0
3CF0
3CF0
3CF0
3CF0
3CE0
3DE0
3FC0
7F00
FE00
FC00
3C00
3C00
3C30
3C70
3FF0
1FE0
0FC0
ENDCHAR
STARTCHAR 2116
ENCODING 8470
SWIDTH 1008 0
DWIDTH 28 0
BBX 26 20 2 0
BITMAP
F01E0000
F81E0000
F81E0000
FC1E0000
FC1E0000
FE1E0000
EE1E0C00
EF1E3F00
E71E7F80
E79E6380
E39EE180
E3DEE1C0
E1DEE380
E1FE7380
E0FE7F80
E0FE3F00
E07E0000
E07E7F80
E03E7F80
E03E7F80
ENDCHAR
STARTCHAR 2120
ENCODING 8480
SWIDTH 756 0
DWIDTH 21 0
BBX 19 10 1 10
BITMAP
7CE0E0
FCE0E0
C0F1E0
C0F160
70D360
3CDB60
06DA60
06CE60
FCCC60
F8CC60
ENDCHAR
STARTCHAR 2122
ENCODING 8482
SWIDTH 756 0
DWIDTH 21 0
BBX 19 10 0 10
BITMAP
FF7060
FF70E0
1870E0
1878A0
1879A0
1869A0
186D20
186720
186620
186620
ENDCHAR
STARTCHAR 2126
ENCODING 8486
SWIDTH 756 0
DWIDTH 21 0
BBX 20 20 1 0
BITMAP
03FC00
0FFF00
1FFF80
3F9FC0
7E07E0
7C03E0
7801E0
F801E0
F801E0
7801E0
7801E0
7801E0
7801C0
3C03C0
1C0780
1E0F00
FF1FF0
FF1FF0
FF1FF0
FF1FF0
ENDCHAR
STARTCHAR 212E
ENCODING 8494
SWIDTH 612 0
DWIDTH 17 0
BBX 15 15 1 0
BITMAP
07C0
1C70
3018
700C
700C
700E
F00E
FFFE
F000
7000
7000
7004
3008
1818
0FE0
ENDCHAR
STARTCHAR 215B
ENCODING 8539
SWIDTH 864 0
DWIDTH 24 0
BBX 22 20 1 0
BITMAP
1C0380
3C0780
7C0700
FC0E00
5C0E00
1C1C00
1C3C00
1C3800
1C79F0
1C73F8
1CF71C
1CE71C
01C3F8
01C1F0
0383F8
0787BC
07071C
0F071C
0E07FC
1E03F8
ENDCHAR
STARTCHAR 215C
ENCODING 8540
SWIDTH 864 0
DWIDTH 24 0
BBX 23 20 1 0
BITMAP
7E01C0
FF0380
6F0380
070700
070700
3C0E00
3E1E00
071C00
073DF8
873BFC
FF739C
FE739C
00E3FC
00E1F8
01C3FC
03C39C
03870E
07879E
0703FC
0F01F8
ENDCHAR
STARTCHAR 215D
ENCODING 8541
SWIDTH 864 0
DWIDTH 24 0
BBX 23 20 1 0
BITMAP
7F01C0
7F03C0
7F0380
600780
780700
7F0E00
6F8E00
039C00
039CF8
87BBFC
FF7B9C
FE739C
00F3FC
00E1F8
01C1FC
01C39E
03838E
03838E
0703FC
0F01F8
ENDCHAR
STARTCHAR 215E
ENCODING 8542
SWIDTH 864 0
DWIDTH 24 0
BBX 22 20 1 0
BITMAP
FF8380
FF8780
FF8700
070E00
070E00
0E1C00
0E1C00
1E3800
1C79F0
3C73F8
38F79C
78E71C
01C3F8
01C1F0
0383F8
0387BC
07071C
0F071C
0E07FC
1E03F8
ENDCHAR
STARTCHAR 2202
ENCODING 8706
SWIDTH 576 0
DWIDTH 16 0
BBX 14 20 1 0
BITMAP
07E0
1FF0
1FF8
1CFC
107C
003C
0FBC
1FFC
3FFC
7C7C
783C
F87C
F07C
F078
F0F8
F0F0
F9F0
FFE0
7FC0
3F80
ENDCHAR
STARTCHAR 2206
ENCODING 8710
SWIDTH 648 0
DWIDTH 18 0
BBX 17 20 1 0
BITMAP
03E000
07E000
07E000
07F000
0FF000
0F7000
0E7800
1E7800
1E3800
1C3C00
3C3C00
3C1C00
381E00
781E00
780E00
F00F00
FFFF00
FFFF00
FFFF80
FFFF80
ENDCHAR
STARTCHAR 220F
ENCODING 8719
SWIDTH 720 0
DWIDTH 20 0
BBX 16 26 2 -6
BITMAP
FFFF
FFFF
FFFF
FFFF
F80F
F80F
F80F
F80F
F80F
F80F
F80F
F80F
F80F
F80F
F80F
F80F
F80F
F80F
F80F
F80F
F80F
F80F
F80F
F80F
F80F
F80F
ENDCHAR
STARTCHAR 2211
ENCODING 8721
SWIDTH 612 0
DWIDTH 17 0
BBX 16 26 1 -6
BITMAP
FFFF
FFFF
FFFF
7FFF
7C00
3E00
1F00
0F00
0F80
07C0
03E0
01E0
01F0
01E0
03E0
07C0
0780
0F80
1F00
1E00
3E00
7C00
7800
FFFF
FFFF
FFFF
ENDCHAR
STARTCHAR 2212
ENCODING 8722
SWIDTH 540 0
DWIDTH 15 0
BBX 14 3 1 8
BITMAP
FFFC
FFFC
FFFC
ENDCHAR
STARTCHAR 2215
ENCODING 8725
SWIDTH 396 0
DWIDTH 11 0
BBX 11 20 0 0
BITMAP
01E0
01E0
01C0
03C0
03C0
0380
0780
0780
0F00
0F00
0F00
1E00
1E00
1C00
3C00
3C00
7800
7800
7800
F000
ENDCHAR
STARTCHAR 221A
ENCODING 8730
SWIDTH 540 0
DWIDTH 15 0
BBX 17 24 0 0
BITMAP
000380
000380
000380
000700
000700
000E00
000E00
000E00
001C00
001C00
001C00
F83800
F83800
FC3800
1C7000
1C7000
0E7000
0EE000
0FE000
07E000
07C000
03C000
03C000
038000
ENDCHAR
STARTCHAR 221E
ENCODING 8734
SWIDTH 684 0
DWIDTH 19 0
BBX 16 9 2 5
BITMAP
7E7C
FEFE
EFEF
C3C7
C3C7
E7C7
FFFF
7E7E
3838
ENDCHAR
STARTCHAR 222B
ENCODING 8747
SWIDTH 396 0
DWIDTH 11 0
BBX 11 28 0 -7
BITMAP
03E0
07E0
0FE0
0FA0
0F00
0F00
0F00
0F00
0F00
0F00
0F00
0F00
0F00
0F00
0F00
0F00
0F00
0F00
0F00
0F00
0F00
0F00
0F00
1F00
FF00
FE00
FC00
7000
ENDCHAR
STARTCHAR 2248
ENCODING 8776
SWIDTH 540 0
DWIDTH 15 0
BBX 14 10 1 5
BITMAP
3C04
FF0C
FFFC
C7FC
80F0
0000
7E04
FFFC
FFFC
81F8
ENDCHAR
STARTCHAR 2260
ENCODING 8800
SWIDTH 540 0
DWIDTH 15 0
BBX 14 15 1 3
BITMAP
00F0
00E0
01E0
FFFC
FFFC
FFFC
0380
0700
FFFC
FFFC
FFFC
1E00
1C00
3C00
1800
ENDCHAR
STARTCHAR 2264
ENCODING 8804
SWIDTH 540 0
DWIDTH 15 0
BBX 14 18 1 0
BITMAP
000C
003C
00FC
03F8
0FE0
3F00
FC00
F800
FE00
3FC0
07F0
01FC
007C
000C
0000
FFFC
FFFC
FFFC
ENDCHAR
STARTCHAR 2265
ENCODING 8805
SWIDTH 540 0
DWIDTH 15 0
BBX 14 18 1 0
BITMAP
C000
F000
FC00
7F00
1FC0
07F0
00FC
007C
01FC
0FE0
3F80
FE00
F800
C000
0000
FFFC
FFFC
FFFC
ENDCHAR
STARTCHAR 25CA
ENCODING 9674
SWIDTH 576 0
DWIDTH 16 0
BBX 14 20 1 0
BITMAP
0300
0780
0780
0FC0
0FE0
1CE0
3CF0
3870
7878
703C
F03C
7878
3870
3CF0
1CE0
0FE0
0FC0
0780
0780
0300
ENDCHAR
STARTCHAR A7B3
ENCODING 42931
SWIDTH 684 0
DWIDTH 19 0
BBX 19 27 0 -7
BITMAP
7C03E0
7E03C0
7F07C0
7F0780
0F8F00
078F00
079E00
03DE00
03FC00
01FC00
01F800
01F000
00F000
01F000
01F000
03F800
03F800
07BC00
0F3C00
0F3C00
1E1E00
1E1E00
3C1F00
3C0FE0
780FE0
F807E0
F001C0
ENDCHAR
STARTCHAR A7B4
ENCODING 42932
SWIDTH 648 0
DWIDTH 18 0
BBX 15 27 2 -7
BITMAP
FFC0
FFF8
FFFC
FFFC
F83E
F83E
F83E
F83C
FFFC
FFF0
FFFC
F8FE
F83E
F81E
F81E
F83E
F8FE
FFFC
FFF8
FFE0
F800
F800
F800
F800
F800
F800
F800
ENDCHAR
STARTCHAR A7B5
ENCODING 42933
SWIDTH 648 0
DWIDTH 18 0
BBX 15 28 2 -7
BITMAP
0FE0
3FF8
7FFC
787C
F83C
F03C
F03C
F03C
F1F8
F1E0
F1F8
F1FC
F03E
F01E
F01E
F01E
F01E
F83E
FFFE
FFFC
F7F0
F000
F000
F000
F000
F000
F000
F000
ENDCHAR
STARTCHAR AB53
ENCODING 43859
SWIDTH 576 0
DWIDTH 16 0
BBX 18 22 -1 -7
BITMAP
3E0780
3F0F80
3F0F00
0F9E00
079E00
03BC00
03FC00
03F800
01F000
01F000
01F000
03F000
03F000
07F800
0F7800
0F3C00
1E3C00
1E3E00
3C1FC0
3C1FC0
780FC0
F80380
ENDCHAR
STARTCHAR FB00
ENCODING 64256
SWIDTH 756 0
DWIDTH 21 0
BBX 22 21 1 0
BITMAP
0FE3FC
1FE7F8
3FC7F8
3C0780
3C0780
3C0780
FFDFF0
FFFFF0
FFFFF0
3C0780
3C0780
3C0780
3C0780
3C0780
3C0780
3C0780
3C0780
3C0780
3C0780
3C0780
3C0780
ENDCHAR
STARTCHAR FB01
ENCODING 64257
SWIDTH 684 0
DWIDTH 19 0
BBX 16 21 1 0
BITMAP
0FEF
1FEF
3FCF
3C0F
3C00
3C00
FFCF
FFCF
FFCF
3C0F
3C0F
3C0F
3C0F
3C0F
3C0F
3C0F
3C0F
3C0F
3C0F
3C0F
3C0F
ENDCHAR
STARTCHAR FB02
ENCODING 64258
SWIDTH 684 0
DWIDTH 19 0
BBX 16 21 1 0
BITMAP
0FEF
1FEF
3FCF
3C0F
3C0F
3C0F
FFCF
FFCF
FFCF
3C0F
3C0F
3C0F
3C0F
3C0F
3C0F
3C0F
3C0F
3C0F
3C0F
3C0F
3C0F
ENDCHAR
STARTCHAR FB03
ENCODING 64259
SWIDTH 1044 0
DWIDTH 29 0
BBX 27 21 1 0
BITMAP
0FE3FDE0
1FE7F9E0
3FC7F9E0
3C0781C0
3C078000
3C078000
FFDFF1E0
FFFFF1E0
FFFFF1E0
3C0781E0
3C0781E0
3C0781E0
3C0781E0
3C0781E0
3C0781E0
3C0781E0
3C0781E0
3C0781E0
3C0781E0
3C0781E0
3C0781E0
ENDCHAR
STARTCHAR FB04
ENCODING 64260
SWIDTH 1044 0
DWIDTH 29 0
BBX 27 21 1 0
BITMAP
0FE3FDE0
1FE7F9E0
3FC7F9E0
3C0781E0
3C0781E0
3C0781E0
FFDFF1E0
FFFFF1E0
FFFFF1E0
3C0781E0
3C0781E0
3C0781E0
3C0781E0
3C0781E0
3C0781E0
3C0781E0
3C0781E0
3C0781E0
3C0781E0
3C0781E0
3C0781E0
ENDCHAR
STARTCHAR FB2A
ENCODING 64298
SWIDTH 756 0
DWIDTH 21 0
BBX 19 21 1 0
BITMAP
0000E0
0000E0
000000
F0F1E0
F0F1E0
78F1E0
78F1E0
78F1E0
78F1E0
79E1E0
79E1E0
79E1E0
7FE3C0
7FC3C0
7F83C0
7807C0
780F80
3C1F80
3FFF00
3FFC00
3FF000
ENDCHAR
STARTCHAR FB2B
ENCODING 64299
SWIDTH 756 0
DWIDTH 21 0
BBX 19 21 1 0
BITMAP
600000
600000
000000
F0F1E0
F0F1E0
78F1E0
78F1E0
78F1E0
78F1E0
79E1E0
79E1E0
79E1E0
7FE3C0
7FC3C0
7F83C0
7807C0
780F80
3C1F80
3FFF00
3FFC00
3FF000
ENDCHAR
STARTCHAR FB2C
ENCODING 64300
SWIDTH 756 0
DWIDTH 21 0
BBX 19 21 1 0
BITMAP
0000E0
0000E0
000000
F0F1E0
F0F1E0
78F1E0
78F1E0
78F1E0
78F1E0
79E1E0
79E1E0
79E1E0
7FE3C0
7FC3C0
7FB3C0
7837C0
780F80
3C1F80
3FFF00
3FFC00
3FF000
ENDCHAR
STARTCHAR FB2D
ENCODING 64301
SWIDTH 756 0
DWIDTH 21 0
BBX 19 21 1 0
BITMAP
600000
600000
000000
F0F1E0
F0F1E0
78F1E0
78F1E0
78F1E0
78F1E0
79E1E0
79E1E0
79E1E0
7FE3C0
7FC3C0
7FB3C0
7837C0
780F80
3C1F80
3FFF00
3FFC00
3FF000
ENDCHAR
STARTCHAR FB2E
ENCODING 64302
SWIDTH 648 0
DWIDTH 18 0
BBX 15 21 1 -3
BITMAP
F81E
781E
3C1E
3E1E
1E1E
1F1E
0F1E
3F9E
7FDE
7BFE
79FC
79F8
78F0
78F8
7878
783C
783E
781E
0000
0000
07C0
ENDCHAR
STARTCHAR FB2F
ENCODING 64303
SWIDTH 648 0
DWIDTH 18 0
BBX 15 24 1 -6
BITMAP
F81E
781E
3C1E
3E1E
1E1E
1F1E
0F1E
3F9E
7FDE
7BFE
79FC
79F8
78F0
78F8
7878
783C
783E
781E
0000
0000
07C0
0180
0180
0180
ENDCHAR
STARTCHAR FB30
ENCODING 64304
SWIDTH 648 0
DWIDTH 18 0
BBX 15 18 1 0
BITMAP
F81E
781E
3C1E
3E1E
1E1E
1F1E
0F1E
3F9E
7FDE
7BFE
79FC
79F8
78F0
78F8
7B78
7B3C
783E
781E
ENDCHAR
STARTCHAR FB31
ENCODING 64305
SWIDTH 576 0
DWIDTH 16 0
BBX 14 18 1 0
BITMAP
FF80
FFE0
FFF0
E3F0
00F0
00F0
00F0
00F0
1CF0
18F0
00F0
00F0
00F0
00F0
00F0
FFFC
FFFC
FFFC
ENDCHAR
STARTCHAR FB32
ENCODING 64306
SWIDTH 432 0
DWIDTH 12 0
BBX 10 18 1 0
BITMAP
3E00
3F80
3F80
37C0
03C0
03C0
03C0
03C0
33C0
33C0
03C0
03C0
07C0
07C0
BFC0
FFC0
FBC0
F1C0
ENDCHAR
STARTCHAR FB33
ENCODING 64307
SWIDTH 540 0
DWIDTH 15 0
BBX 14 18 1 0
BITMAP
FFFC
FFFC
FFFC
FFF8
00F0
01E0
01E0
01E0
31E0
31E0
01E0
01E0
01E0
01E0
01E0
01E0
01E0
01E0
ENDCHAR
STARTCHAR FB34
ENCODING 64308
SWIDTH 648 0
DWIDTH 18 0
BBX 14 18 2 0
BITMAP
7FC0
FFF0
FFF8
F0FC
003C
003C
003C
003C
F33C
F33C
F03C
F03C
F03C
F03C
F03C
F03C
F03C
F03C
ENDCHAR
STARTCHAR FB35
ENCODING 64309
SWIDTH 288 0
DWIDTH 8 0
BBX 7 18 -1 0
BITMAP
1E
1E
1E
1E
1E
1E
1E
1E
DE
DE
1E
1E
1E
1E
1E
1E
1E
1E
ENDCHAR
STARTCHAR FB36
ENCODING 64310
SWIDTH 324 0
DWIDTH 9 0
BBX 10 18 -1 0
BITMAP
1FC0
1FC0
1FC0
1FC0
0780
0700
0F00
0F00
EF00
EF00
0F00
0F00
0F00
0F00
0F00
0F00
0F00
0F00
ENDCHAR
STARTCHAR FB38
ENCODING 64312
SWIDTH 648 0
DWIDTH 18 0
BBX 15 18 2 0
BITMAP
F1E0
F1F8
F1F8
F0FC
F03C
F03E
F03E
F01E
F31E
F31E
F01E
F03E
F83C
783C
7C7C
3FF8
3FF0
0FE0
ENDCHAR
STARTCHAR FB39
ENCODING 64313
SWIDTH 288 0
DWIDTH 8 0
BBX 7 12 -1 6
BITMAP
1E
1E
1E
1E
5E
DE
DE
1E
1E
1E
1C
18
ENDCHAR
STARTCHAR FB3A
ENCODING 64314
SWIDTH 504 0
DWIDTH 14 0
BBX 12 25 1 -7
BITMAP
FE00
FF80
FFC0
CFE0
01E0
01E0
00F0
00F0
30F0
30F0
00F0
00F0
00F0
00F0
00F0
00F0
00F0
00F0
00F0
00F0
00F0
00F0
00F0
00F0
00F0
ENDCHAR
STARTCHAR FB3B
ENCODING 64315
SWIDTH 504 0
DWIDTH 14 0
BBX 12 18 1 0
BITMAP
FE00
FF80
FFC0
C7E0
01F0
00F0
00F0
00F0
18F0
18F0
00F0
00F0
00F0
01F0
03E0
FFE0
FFC0
FF00
ENDCHAR
STARTCHAR FB3C
ENCODING 64316
SWIDTH 540 0
DWIDTH 15 0
BBX 13 21 1 0
BITMAP
F000
F000
F000
FFF8
FFF8
FFF8
FFF8
0078
00F0
00F0
00F0
39F0
31E0
01E0
01E0
03C0
03C0
03C0
03C0
03C0
0780
ENDCHAR
STARTCHAR FB3E
ENCODING 64318
SWIDTH 684 0
DWIDTH 19 0
BBX 16 18 1 0
BITMAP
70F0
7BFC
7FFE
7FFE
3C1E
3C1F
781F
781F
799F
799F
781F
781F
781F
781F
781F
78FF
78FF
F0FF
ENDCHAR
STARTCHAR FB40
ENCODING 64320
SWIDTH 396 0
DWIDTH 11 0
BBX 9 18 1 0
BITMAP
7C00
7F00
7F80
6F80
0780
0780
0780
0780
7780
7780
0780
0780
0780
0780
0780
FF80
FF80
FF80
ENDCHAR
STARTCHAR FB41
ENCODING 64321
SWIDTH 612 0
DWIDTH 17 0
BBX 15 18 1 0
BITMAP
FFC0
FFF0
FFF8
FCFC
783C
783E
781E
F81E
F39E
F19E
F01E
F81E
783E
783C
7C7C
3FF8
1FF0
0FE0
ENDCHAR
STARTCHAR FB43
ENCODING 64323
SWIDTH 612 0
DWIDTH 17 0
BBX 15 25 1 -7
BITMAP
07C0
3FF0
7FF8
7FF8
F83C
F33C
F33C
F03E
F83E
7E3E
7E3E
3E3E
003E
003E
003E
003E
003E
003E
003E
003E
003E
003E
003E
003E
003E
ENDCHAR
STARTCHAR FB44
ENCODING 64324
SWIDTH 612 0
DWIDTH 17 0
BBX 15 18 1 0
BITMAP
07C0
1FF0
3FF8
7FFC
783C
F93C
F3BE
F91E
781E
7E1E
3E1E
1E1E
003E
003C
007C
3FFC
3FF8
3FE0
ENDCHAR
STARTCHAR FB46
ENCODING 64326
SWIDTH 612 0
DWIDTH 17 0
BBX 15 18 1 0
BITMAP
F01E
781E
7C1E
3C1E
3E3C
1E3C
0F3C
0FFC
07F8
03F8
33F0
31F0
00F0
0078
007C
FFFE
FFFE
FFFE
ENDCHAR
STARTCHAR FB47
ENCODING 64327
SWIDTH 612 0
DWIDTH 17 0
BBX 15 25 2 -7
BITMAP
FFFE
FFFE
FFFE
FFFE
001E
003E
003C
F03C
F778
F378
F078
F0F0
F0F0
F0F0
F0F0
F1E0
F1E0
F1E0
F000
F000
F000
F000
F000
F000
F000
ENDCHAR
STARTCHAR FB48
ENCODING 64328
SWIDTH 504 0
DWIDTH 14 0
BBX 12 18 1 0
BITMAP
FF00
FFC0
FFE0
C7E0
01F0
00F0
00F0
00F0
18F0
18F0
00F0
00F0
00F0
00F0
00F0
00F0
00F0
00F0
ENDCHAR
STARTCHAR FB49
ENCODING 64329
SWIDTH 756 0
DWIDTH 21 0
BBX 19 18 1 0
BITMAP
F0F1E0
F0F1E0
78F1E0
78F1E0
78F1E0
78F1E0
79E1E0
79E1E0
79E1E0
7FE3C0
7FC3C0
7FB3C0
7837C0
780F80
3C1F80
3FFF00
3FFC00
3FF000
ENDCHAR
STARTCHAR FB4A
ENCODING 64330
SWIDTH 684 0
DWIDTH 19 0
BBX 16 18 1 0
BITMAP
3FF0
7FFC
7FFE
7E7F
1E0F
1E0F
1E0F
1E0F
1ECF
1ECF
1E0F
1E0F
1E0F
1E0F
3E0F
FE0F
FC0F
F80F
ENDCHAR
STARTCHAR FB4B
ENCODING 64331
SWIDTH 288 0
DWIDTH 8 0
BBX 4 20 2 0
BITMAP
60
60
F0
F0
F0
F0
F0
F0
F0
F0
F0
F0
F0
F0
F0
F0
F0
F0
F0
F0
ENDCHAR
STARTCHAR FEFF
ENCODING 65279
SWIDTH 0 0
DWIDTH 0 0
BBX 0 0 0 0
BITMAP
ENDCHAR
STARTCHAR FFFC
ENCODING 65532
SWIDTH 972 0
DWIDTH 27 0
BBX 26 26 1 -5
BITMAP
F3DEF3C0
F3DEF3C0
C00000C0
C00000C0
C00000C0
00000000
C00000C0
C00000C0
C10E0CC0
CFCF8CC0
0C4D8C00
C86D8CC0
C86F8CC0
C86C8CC0
CCCC8CC0
07CFBC00
00000000
C00000C0
C00000C0
C00000C0
00000000
00000000
C00000C0
C00000C0
C00000C0
F3DEF3C0
ENDCHAR
STARTCHAR FFFD
ENCODING 65533
SWIDTH 972 0
DWIDTH 27 0
BBX 26 25 1 -4
BITMAP
00080000
001C0000
003E0000
007F0000
00FF8000
01E1C000
03006000
07807800
0FBC3C00
1FFC3E00
3FFC7F00
7FF87F80
FFF0FFC0
7FE1FF80
3FE3FF00
1FE3FE00
0FFFFC00
07FFF800
03E3F000
01E3E000
00E3C000
00778000
003F0000
001E0000
000C0000
ENDCHAR
ENDFONT
